%TF.GenerationSoftware,KiCad,Pcbnew,(5.1.10-1-10_14)*%
%TF.CreationDate,2021-07-17T22:38:12-07:00*%
%TF.ProjectId,Backplane,4261636b-706c-4616-9e65-2e6b69636164,rev?*%
%TF.SameCoordinates,Original*%
%TF.FileFunction,Legend,Top*%
%TF.FilePolarity,Positive*%
%FSLAX46Y46*%
G04 Gerber Fmt 4.6, Leading zero omitted, Abs format (unit mm)*
G04 Created by KiCad (PCBNEW (5.1.10-1-10_14)) date 2021-07-17 22:38:12*
%MOMM*%
%LPD*%
G01*
G04 APERTURE LIST*
%ADD10C,0.300000*%
%ADD11C,0.120000*%
%ADD12C,0.150000*%
G04 APERTURE END LIST*
D10*
X155226857Y-74646142D02*
X155155428Y-74860428D01*
X155155428Y-75217571D01*
X155226857Y-75360428D01*
X155298285Y-75431857D01*
X155441142Y-75503285D01*
X155584000Y-75503285D01*
X155726857Y-75431857D01*
X155798285Y-75360428D01*
X155869714Y-75217571D01*
X155941142Y-74931857D01*
X156012571Y-74789000D01*
X156084000Y-74717571D01*
X156226857Y-74646142D01*
X156369714Y-74646142D01*
X156512571Y-74717571D01*
X156584000Y-74789000D01*
X156655428Y-74931857D01*
X156655428Y-75289000D01*
X156584000Y-75503285D01*
X155155428Y-77003285D02*
X155869714Y-76503285D01*
X155155428Y-76146142D02*
X156655428Y-76146142D01*
X156655428Y-76717571D01*
X156584000Y-76860428D01*
X156512571Y-76931857D01*
X156369714Y-77003285D01*
X156155428Y-77003285D01*
X156012571Y-76931857D01*
X155941142Y-76860428D01*
X155869714Y-76717571D01*
X155869714Y-76146142D01*
X156655428Y-78289000D02*
X156655428Y-78003285D01*
X156584000Y-77860428D01*
X156512571Y-77789000D01*
X156298285Y-77646142D01*
X156012571Y-77574714D01*
X155441142Y-77574714D01*
X155298285Y-77646142D01*
X155226857Y-77717571D01*
X155155428Y-77860428D01*
X155155428Y-78146142D01*
X155226857Y-78289000D01*
X155298285Y-78360428D01*
X155441142Y-78431857D01*
X155798285Y-78431857D01*
X155941142Y-78360428D01*
X156012571Y-78289000D01*
X156084000Y-78146142D01*
X156084000Y-77860428D01*
X156012571Y-77717571D01*
X155941142Y-77646142D01*
X155798285Y-77574714D01*
X156655428Y-79789000D02*
X156655428Y-79074714D01*
X155941142Y-79003285D01*
X156012571Y-79074714D01*
X156084000Y-79217571D01*
X156084000Y-79574714D01*
X156012571Y-79717571D01*
X155941142Y-79789000D01*
X155798285Y-79860428D01*
X155441142Y-79860428D01*
X155298285Y-79789000D01*
X155226857Y-79717571D01*
X155155428Y-79574714D01*
X155155428Y-79217571D01*
X155226857Y-79074714D01*
X155298285Y-79003285D01*
X156655428Y-80789000D02*
X156655428Y-80931857D01*
X156584000Y-81074714D01*
X156512571Y-81146142D01*
X156369714Y-81217571D01*
X156084000Y-81289000D01*
X155726857Y-81289000D01*
X155441142Y-81217571D01*
X155298285Y-81146142D01*
X155226857Y-81074714D01*
X155155428Y-80931857D01*
X155155428Y-80789000D01*
X155226857Y-80646142D01*
X155298285Y-80574714D01*
X155441142Y-80503285D01*
X155726857Y-80431857D01*
X156084000Y-80431857D01*
X156369714Y-80503285D01*
X156512571Y-80574714D01*
X156584000Y-80646142D01*
X156655428Y-80789000D01*
X156512571Y-81860428D02*
X156584000Y-81931857D01*
X156655428Y-82074714D01*
X156655428Y-82431857D01*
X156584000Y-82574714D01*
X156512571Y-82646142D01*
X156369714Y-82717571D01*
X156226857Y-82717571D01*
X156012571Y-82646142D01*
X155155428Y-81789000D01*
X155155428Y-82717571D01*
X155155428Y-84503285D02*
X156655428Y-84503285D01*
X156655428Y-85074714D01*
X156584000Y-85217571D01*
X156512571Y-85289000D01*
X156369714Y-85360428D01*
X156155428Y-85360428D01*
X156012571Y-85289000D01*
X155941142Y-85217571D01*
X155869714Y-85074714D01*
X155869714Y-84503285D01*
X155155428Y-86646142D02*
X155941142Y-86646142D01*
X156084000Y-86574714D01*
X156155428Y-86431857D01*
X156155428Y-86146142D01*
X156084000Y-86003285D01*
X155226857Y-86646142D02*
X155155428Y-86503285D01*
X155155428Y-86146142D01*
X155226857Y-86003285D01*
X155369714Y-85931857D01*
X155512571Y-85931857D01*
X155655428Y-86003285D01*
X155726857Y-86146142D01*
X155726857Y-86503285D01*
X155798285Y-86646142D01*
X155226857Y-87289000D02*
X155155428Y-87431857D01*
X155155428Y-87717571D01*
X155226857Y-87860428D01*
X155369714Y-87931857D01*
X155441142Y-87931857D01*
X155584000Y-87860428D01*
X155655428Y-87717571D01*
X155655428Y-87503285D01*
X155726857Y-87360428D01*
X155869714Y-87289000D01*
X155941142Y-87289000D01*
X156084000Y-87360428D01*
X156155428Y-87503285D01*
X156155428Y-87717571D01*
X156084000Y-87860428D01*
X155226857Y-88503285D02*
X155155428Y-88646142D01*
X155155428Y-88931857D01*
X155226857Y-89074714D01*
X155369714Y-89146142D01*
X155441142Y-89146142D01*
X155584000Y-89074714D01*
X155655428Y-88931857D01*
X155655428Y-88717571D01*
X155726857Y-88574714D01*
X155869714Y-88503285D01*
X155941142Y-88503285D01*
X156084000Y-88574714D01*
X156155428Y-88717571D01*
X156155428Y-88931857D01*
X156084000Y-89074714D01*
X155155428Y-89789000D02*
X156155428Y-89789000D01*
X156655428Y-89789000D02*
X156584000Y-89717571D01*
X156512571Y-89789000D01*
X156584000Y-89860428D01*
X156655428Y-89789000D01*
X156512571Y-89789000D01*
X156155428Y-90360428D02*
X155155428Y-90717571D01*
X156155428Y-91074714D01*
X155226857Y-92217571D02*
X155155428Y-92074714D01*
X155155428Y-91789000D01*
X155226857Y-91646142D01*
X155369714Y-91574714D01*
X155941142Y-91574714D01*
X156084000Y-91646142D01*
X156155428Y-91789000D01*
X156155428Y-92074714D01*
X156084000Y-92217571D01*
X155941142Y-92289000D01*
X155798285Y-92289000D01*
X155655428Y-91574714D01*
X155941142Y-94574714D02*
X155869714Y-94789000D01*
X155798285Y-94860428D01*
X155655428Y-94931857D01*
X155441142Y-94931857D01*
X155298285Y-94860428D01*
X155226857Y-94789000D01*
X155155428Y-94646142D01*
X155155428Y-94074714D01*
X156655428Y-94074714D01*
X156655428Y-94574714D01*
X156584000Y-94717571D01*
X156512571Y-94789000D01*
X156369714Y-94860428D01*
X156226857Y-94860428D01*
X156084000Y-94789000D01*
X156012571Y-94717571D01*
X155941142Y-94574714D01*
X155941142Y-94074714D01*
X155155428Y-96217571D02*
X155941142Y-96217571D01*
X156084000Y-96146142D01*
X156155428Y-96003285D01*
X156155428Y-95717571D01*
X156084000Y-95574714D01*
X155226857Y-96217571D02*
X155155428Y-96074714D01*
X155155428Y-95717571D01*
X155226857Y-95574714D01*
X155369714Y-95503285D01*
X155512571Y-95503285D01*
X155655428Y-95574714D01*
X155726857Y-95717571D01*
X155726857Y-96074714D01*
X155798285Y-96217571D01*
X155226857Y-97574714D02*
X155155428Y-97431857D01*
X155155428Y-97146142D01*
X155226857Y-97003285D01*
X155298285Y-96931857D01*
X155441142Y-96860428D01*
X155869714Y-96860428D01*
X156012571Y-96931857D01*
X156084000Y-97003285D01*
X156155428Y-97146142D01*
X156155428Y-97431857D01*
X156084000Y-97574714D01*
X155155428Y-98217571D02*
X156655428Y-98217571D01*
X155726857Y-98360428D02*
X155155428Y-98789000D01*
X156155428Y-98789000D02*
X155584000Y-98217571D01*
X156155428Y-99431857D02*
X154655428Y-99431857D01*
X156084000Y-99431857D02*
X156155428Y-99574714D01*
X156155428Y-99860428D01*
X156084000Y-100003285D01*
X156012571Y-100074714D01*
X155869714Y-100146142D01*
X155441142Y-100146142D01*
X155298285Y-100074714D01*
X155226857Y-100003285D01*
X155155428Y-99860428D01*
X155155428Y-99574714D01*
X155226857Y-99431857D01*
X155155428Y-101003285D02*
X155226857Y-100860428D01*
X155369714Y-100789000D01*
X156655428Y-100789000D01*
X155155428Y-102217571D02*
X155941142Y-102217571D01*
X156084000Y-102146142D01*
X156155428Y-102003285D01*
X156155428Y-101717571D01*
X156084000Y-101574714D01*
X155226857Y-102217571D02*
X155155428Y-102074714D01*
X155155428Y-101717571D01*
X155226857Y-101574714D01*
X155369714Y-101503285D01*
X155512571Y-101503285D01*
X155655428Y-101574714D01*
X155726857Y-101717571D01*
X155726857Y-102074714D01*
X155798285Y-102217571D01*
X156155428Y-102931857D02*
X155155428Y-102931857D01*
X156012571Y-102931857D02*
X156084000Y-103003285D01*
X156155428Y-103146142D01*
X156155428Y-103360428D01*
X156084000Y-103503285D01*
X155941142Y-103574714D01*
X155155428Y-103574714D01*
X155226857Y-104860428D02*
X155155428Y-104717571D01*
X155155428Y-104431857D01*
X155226857Y-104289000D01*
X155369714Y-104217571D01*
X155941142Y-104217571D01*
X156084000Y-104289000D01*
X156155428Y-104431857D01*
X156155428Y-104717571D01*
X156084000Y-104860428D01*
X155941142Y-104931857D01*
X155798285Y-104931857D01*
X155655428Y-104217571D01*
X154105428Y-76860428D02*
X154105428Y-77860428D01*
X152605428Y-77217571D01*
X154176857Y-79503285D02*
X152248285Y-78217571D01*
X153962571Y-79931857D02*
X154034000Y-80003285D01*
X154105428Y-80146142D01*
X154105428Y-80503285D01*
X154034000Y-80646142D01*
X153962571Y-80717571D01*
X153819714Y-80789000D01*
X153676857Y-80789000D01*
X153462571Y-80717571D01*
X152605428Y-79860428D01*
X152605428Y-80789000D01*
X154105428Y-81717571D02*
X154105428Y-81860428D01*
X154034000Y-82003285D01*
X153962571Y-82074714D01*
X153819714Y-82146142D01*
X153534000Y-82217571D01*
X153176857Y-82217571D01*
X152891142Y-82146142D01*
X152748285Y-82074714D01*
X152676857Y-82003285D01*
X152605428Y-81860428D01*
X152605428Y-81717571D01*
X152676857Y-81574714D01*
X152748285Y-81503285D01*
X152891142Y-81431857D01*
X153176857Y-81360428D01*
X153534000Y-81360428D01*
X153819714Y-81431857D01*
X153962571Y-81503285D01*
X154034000Y-81574714D01*
X154105428Y-81717571D01*
X153962571Y-82789000D02*
X154034000Y-82860428D01*
X154105428Y-83003285D01*
X154105428Y-83360428D01*
X154034000Y-83503285D01*
X153962571Y-83574714D01*
X153819714Y-83646142D01*
X153676857Y-83646142D01*
X153462571Y-83574714D01*
X152605428Y-82717571D01*
X152605428Y-83646142D01*
X152605428Y-85074714D02*
X152605428Y-84217571D01*
X152605428Y-84646142D02*
X154105428Y-84646142D01*
X153891142Y-84503285D01*
X153748285Y-84360428D01*
X153676857Y-84217571D01*
X153176857Y-86860428D02*
X153176857Y-88003285D01*
X152676857Y-89789000D02*
X152605428Y-90003285D01*
X152605428Y-90360428D01*
X152676857Y-90503285D01*
X152748285Y-90574714D01*
X152891142Y-90646142D01*
X153034000Y-90646142D01*
X153176857Y-90574714D01*
X153248285Y-90503285D01*
X153319714Y-90360428D01*
X153391142Y-90074714D01*
X153462571Y-89931857D01*
X153534000Y-89860428D01*
X153676857Y-89789000D01*
X153819714Y-89789000D01*
X153962571Y-89860428D01*
X154034000Y-89931857D01*
X154105428Y-90074714D01*
X154105428Y-90431857D01*
X154034000Y-90646142D01*
X153605428Y-91074714D02*
X153605428Y-91646142D01*
X154105428Y-91289000D02*
X152819714Y-91289000D01*
X152676857Y-91360428D01*
X152605428Y-91503285D01*
X152605428Y-91646142D01*
X152676857Y-92717571D02*
X152605428Y-92574714D01*
X152605428Y-92289000D01*
X152676857Y-92146142D01*
X152819714Y-92074714D01*
X153391142Y-92074714D01*
X153534000Y-92146142D01*
X153605428Y-92289000D01*
X153605428Y-92574714D01*
X153534000Y-92717571D01*
X153391142Y-92789000D01*
X153248285Y-92789000D01*
X153105428Y-92074714D01*
X153605428Y-93289000D02*
X152605428Y-93646142D01*
X153605428Y-94003285D01*
X152676857Y-95146142D02*
X152605428Y-95003285D01*
X152605428Y-94717571D01*
X152676857Y-94574714D01*
X152819714Y-94503285D01*
X153391142Y-94503285D01*
X153534000Y-94574714D01*
X153605428Y-94717571D01*
X153605428Y-95003285D01*
X153534000Y-95146142D01*
X153391142Y-95217571D01*
X153248285Y-95217571D01*
X153105428Y-94503285D01*
X152605428Y-97860428D02*
X153319714Y-97360428D01*
X152605428Y-97003285D02*
X154105428Y-97003285D01*
X154105428Y-97574714D01*
X154034000Y-97717571D01*
X153962571Y-97789000D01*
X153819714Y-97860428D01*
X153605428Y-97860428D01*
X153462571Y-97789000D01*
X153391142Y-97717571D01*
X153319714Y-97574714D01*
X153319714Y-97003285D01*
X153605428Y-99146142D02*
X152605428Y-99146142D01*
X153605428Y-98503285D02*
X152819714Y-98503285D01*
X152676857Y-98574714D01*
X152605428Y-98717571D01*
X152605428Y-98931857D01*
X152676857Y-99074714D01*
X152748285Y-99146142D01*
X152605428Y-99860428D02*
X154105428Y-99860428D01*
X153534000Y-99860428D02*
X153605428Y-100003285D01*
X153605428Y-100289000D01*
X153534000Y-100431857D01*
X153462571Y-100503285D01*
X153319714Y-100574714D01*
X152891142Y-100574714D01*
X152748285Y-100503285D01*
X152676857Y-100431857D01*
X152605428Y-100289000D01*
X152605428Y-100003285D01*
X152676857Y-99860428D01*
X152605428Y-101217571D02*
X153605428Y-101217571D01*
X154105428Y-101217571D02*
X154034000Y-101146142D01*
X153962571Y-101217571D01*
X154034000Y-101289000D01*
X154105428Y-101217571D01*
X153962571Y-101217571D01*
X153605428Y-101931857D02*
X152605428Y-101931857D01*
X153462571Y-101931857D02*
X153534000Y-102003285D01*
X153605428Y-102146142D01*
X153605428Y-102360428D01*
X153534000Y-102503285D01*
X153391142Y-102574714D01*
X152605428Y-102574714D01*
D11*
%TO.C,J3*%
X191770000Y-144205000D02*
X190440000Y-144205000D01*
X190440000Y-144205000D02*
X190440000Y-142875000D01*
X193040000Y-144205000D02*
X193040000Y-141605000D01*
X193040000Y-141605000D02*
X190440000Y-141605000D01*
X190440000Y-141605000D02*
X190440000Y-42485000D01*
X195640000Y-42485000D02*
X190440000Y-42485000D01*
X195640000Y-144205000D02*
X195640000Y-42485000D01*
X195640000Y-144205000D02*
X193040000Y-144205000D01*
%TO.C,J1*%
X236023000Y-144085000D02*
X227393000Y-144085000D01*
X236023000Y-143966905D02*
X227393000Y-143966905D01*
X236023000Y-143848810D02*
X227393000Y-143848810D01*
X236023000Y-143730715D02*
X227393000Y-143730715D01*
X236023000Y-143612620D02*
X227393000Y-143612620D01*
X236023000Y-143494525D02*
X227393000Y-143494525D01*
X236023000Y-143376430D02*
X227393000Y-143376430D01*
X236023000Y-143258335D02*
X227393000Y-143258335D01*
X236023000Y-143140240D02*
X227393000Y-143140240D01*
X236023000Y-143022145D02*
X227393000Y-143022145D01*
X236023000Y-142904050D02*
X227393000Y-142904050D01*
X236023000Y-142785955D02*
X227393000Y-142785955D01*
X236023000Y-142667860D02*
X227393000Y-142667860D01*
X236023000Y-142549765D02*
X227393000Y-142549765D01*
X236023000Y-142431670D02*
X227393000Y-142431670D01*
X236023000Y-142313575D02*
X227393000Y-142313575D01*
X236023000Y-142195480D02*
X227393000Y-142195480D01*
X236023000Y-142077385D02*
X227393000Y-142077385D01*
X236023000Y-141959290D02*
X227393000Y-141959290D01*
X236023000Y-141841195D02*
X227393000Y-141841195D01*
X236023000Y-141723100D02*
X227393000Y-141723100D01*
X227393000Y-143235000D02*
X226983000Y-143235000D01*
X224883000Y-143235000D02*
X224503000Y-143235000D01*
X227393000Y-142515000D02*
X226983000Y-142515000D01*
X224883000Y-142515000D02*
X224503000Y-142515000D01*
X227393000Y-140695000D02*
X226983000Y-140695000D01*
X224883000Y-140695000D02*
X224443000Y-140695000D01*
X227393000Y-139975000D02*
X226983000Y-139975000D01*
X224883000Y-139975000D02*
X224443000Y-139975000D01*
X227393000Y-138155000D02*
X226983000Y-138155000D01*
X224883000Y-138155000D02*
X224443000Y-138155000D01*
X227393000Y-137435000D02*
X226983000Y-137435000D01*
X224883000Y-137435000D02*
X224443000Y-137435000D01*
X227393000Y-135615000D02*
X226983000Y-135615000D01*
X224883000Y-135615000D02*
X224443000Y-135615000D01*
X227393000Y-134895000D02*
X226983000Y-134895000D01*
X224883000Y-134895000D02*
X224443000Y-134895000D01*
X227393000Y-133075000D02*
X226983000Y-133075000D01*
X224883000Y-133075000D02*
X224443000Y-133075000D01*
X227393000Y-132355000D02*
X226983000Y-132355000D01*
X224883000Y-132355000D02*
X224443000Y-132355000D01*
X227393000Y-130535000D02*
X226983000Y-130535000D01*
X224883000Y-130535000D02*
X224443000Y-130535000D01*
X227393000Y-129815000D02*
X226983000Y-129815000D01*
X224883000Y-129815000D02*
X224443000Y-129815000D01*
X227393000Y-127995000D02*
X226983000Y-127995000D01*
X224883000Y-127995000D02*
X224443000Y-127995000D01*
X227393000Y-127275000D02*
X226983000Y-127275000D01*
X224883000Y-127275000D02*
X224443000Y-127275000D01*
X227393000Y-125455000D02*
X226983000Y-125455000D01*
X224883000Y-125455000D02*
X224443000Y-125455000D01*
X227393000Y-124735000D02*
X226983000Y-124735000D01*
X224883000Y-124735000D02*
X224443000Y-124735000D01*
X227393000Y-122915000D02*
X226983000Y-122915000D01*
X224883000Y-122915000D02*
X224443000Y-122915000D01*
X227393000Y-122195000D02*
X226983000Y-122195000D01*
X224883000Y-122195000D02*
X224443000Y-122195000D01*
X227393000Y-120375000D02*
X226983000Y-120375000D01*
X224883000Y-120375000D02*
X224443000Y-120375000D01*
X227393000Y-119655000D02*
X226983000Y-119655000D01*
X224883000Y-119655000D02*
X224443000Y-119655000D01*
X227393000Y-117835000D02*
X226983000Y-117835000D01*
X224883000Y-117835000D02*
X224443000Y-117835000D01*
X227393000Y-117115000D02*
X226983000Y-117115000D01*
X224883000Y-117115000D02*
X224443000Y-117115000D01*
X227393000Y-115295000D02*
X226983000Y-115295000D01*
X224883000Y-115295000D02*
X224443000Y-115295000D01*
X227393000Y-114575000D02*
X226983000Y-114575000D01*
X224883000Y-114575000D02*
X224443000Y-114575000D01*
X227393000Y-112755000D02*
X226983000Y-112755000D01*
X224883000Y-112755000D02*
X224443000Y-112755000D01*
X227393000Y-112035000D02*
X226983000Y-112035000D01*
X224883000Y-112035000D02*
X224443000Y-112035000D01*
X227393000Y-110215000D02*
X226983000Y-110215000D01*
X224883000Y-110215000D02*
X224443000Y-110215000D01*
X227393000Y-109495000D02*
X226983000Y-109495000D01*
X224883000Y-109495000D02*
X224443000Y-109495000D01*
X227393000Y-107675000D02*
X226983000Y-107675000D01*
X224883000Y-107675000D02*
X224443000Y-107675000D01*
X227393000Y-106955000D02*
X226983000Y-106955000D01*
X224883000Y-106955000D02*
X224443000Y-106955000D01*
X227393000Y-105135000D02*
X226983000Y-105135000D01*
X224883000Y-105135000D02*
X224443000Y-105135000D01*
X227393000Y-104415000D02*
X226983000Y-104415000D01*
X224883000Y-104415000D02*
X224443000Y-104415000D01*
X227393000Y-102595000D02*
X226983000Y-102595000D01*
X224883000Y-102595000D02*
X224443000Y-102595000D01*
X227393000Y-101875000D02*
X226983000Y-101875000D01*
X224883000Y-101875000D02*
X224443000Y-101875000D01*
X227393000Y-100055000D02*
X226983000Y-100055000D01*
X224883000Y-100055000D02*
X224443000Y-100055000D01*
X227393000Y-99335000D02*
X226983000Y-99335000D01*
X224883000Y-99335000D02*
X224443000Y-99335000D01*
X227393000Y-97515000D02*
X226983000Y-97515000D01*
X224883000Y-97515000D02*
X224443000Y-97515000D01*
X227393000Y-96795000D02*
X226983000Y-96795000D01*
X224883000Y-96795000D02*
X224443000Y-96795000D01*
X227393000Y-94975000D02*
X226983000Y-94975000D01*
X224883000Y-94975000D02*
X224443000Y-94975000D01*
X227393000Y-94255000D02*
X226983000Y-94255000D01*
X224883000Y-94255000D02*
X224443000Y-94255000D01*
X227393000Y-92435000D02*
X226983000Y-92435000D01*
X224883000Y-92435000D02*
X224443000Y-92435000D01*
X227393000Y-91715000D02*
X226983000Y-91715000D01*
X224883000Y-91715000D02*
X224443000Y-91715000D01*
X227393000Y-89895000D02*
X226983000Y-89895000D01*
X224883000Y-89895000D02*
X224443000Y-89895000D01*
X227393000Y-89175000D02*
X226983000Y-89175000D01*
X224883000Y-89175000D02*
X224443000Y-89175000D01*
X227393000Y-87355000D02*
X226983000Y-87355000D01*
X224883000Y-87355000D02*
X224443000Y-87355000D01*
X227393000Y-86635000D02*
X226983000Y-86635000D01*
X224883000Y-86635000D02*
X224443000Y-86635000D01*
X227393000Y-84815000D02*
X226983000Y-84815000D01*
X224883000Y-84815000D02*
X224443000Y-84815000D01*
X227393000Y-84095000D02*
X226983000Y-84095000D01*
X224883000Y-84095000D02*
X224443000Y-84095000D01*
X227393000Y-82275000D02*
X226983000Y-82275000D01*
X224883000Y-82275000D02*
X224443000Y-82275000D01*
X227393000Y-81555000D02*
X226983000Y-81555000D01*
X224883000Y-81555000D02*
X224443000Y-81555000D01*
X227393000Y-79735000D02*
X226983000Y-79735000D01*
X224883000Y-79735000D02*
X224443000Y-79735000D01*
X227393000Y-79015000D02*
X226983000Y-79015000D01*
X224883000Y-79015000D02*
X224443000Y-79015000D01*
X227393000Y-77195000D02*
X226983000Y-77195000D01*
X224883000Y-77195000D02*
X224443000Y-77195000D01*
X227393000Y-76475000D02*
X226983000Y-76475000D01*
X224883000Y-76475000D02*
X224443000Y-76475000D01*
X227393000Y-74655000D02*
X226983000Y-74655000D01*
X224883000Y-74655000D02*
X224443000Y-74655000D01*
X227393000Y-73935000D02*
X226983000Y-73935000D01*
X224883000Y-73935000D02*
X224443000Y-73935000D01*
X227393000Y-72115000D02*
X226983000Y-72115000D01*
X224883000Y-72115000D02*
X224443000Y-72115000D01*
X227393000Y-71395000D02*
X226983000Y-71395000D01*
X224883000Y-71395000D02*
X224443000Y-71395000D01*
X227393000Y-69575000D02*
X226983000Y-69575000D01*
X224883000Y-69575000D02*
X224443000Y-69575000D01*
X227393000Y-68855000D02*
X226983000Y-68855000D01*
X224883000Y-68855000D02*
X224443000Y-68855000D01*
X227393000Y-67035000D02*
X226983000Y-67035000D01*
X224883000Y-67035000D02*
X224443000Y-67035000D01*
X227393000Y-66315000D02*
X226983000Y-66315000D01*
X224883000Y-66315000D02*
X224443000Y-66315000D01*
X227393000Y-64495000D02*
X226983000Y-64495000D01*
X224883000Y-64495000D02*
X224443000Y-64495000D01*
X227393000Y-63775000D02*
X226983000Y-63775000D01*
X224883000Y-63775000D02*
X224443000Y-63775000D01*
X227393000Y-61955000D02*
X226983000Y-61955000D01*
X224883000Y-61955000D02*
X224443000Y-61955000D01*
X227393000Y-61235000D02*
X226983000Y-61235000D01*
X224883000Y-61235000D02*
X224443000Y-61235000D01*
X227393000Y-59415000D02*
X226983000Y-59415000D01*
X224883000Y-59415000D02*
X224443000Y-59415000D01*
X227393000Y-58695000D02*
X226983000Y-58695000D01*
X224883000Y-58695000D02*
X224443000Y-58695000D01*
X227393000Y-56875000D02*
X226983000Y-56875000D01*
X224883000Y-56875000D02*
X224443000Y-56875000D01*
X227393000Y-56155000D02*
X226983000Y-56155000D01*
X224883000Y-56155000D02*
X224443000Y-56155000D01*
X227393000Y-54335000D02*
X226983000Y-54335000D01*
X224883000Y-54335000D02*
X224443000Y-54335000D01*
X227393000Y-53615000D02*
X226983000Y-53615000D01*
X224883000Y-53615000D02*
X224443000Y-53615000D01*
X227393000Y-51795000D02*
X226983000Y-51795000D01*
X224883000Y-51795000D02*
X224443000Y-51795000D01*
X227393000Y-51075000D02*
X226983000Y-51075000D01*
X224883000Y-51075000D02*
X224443000Y-51075000D01*
X227393000Y-49255000D02*
X226983000Y-49255000D01*
X224883000Y-49255000D02*
X224443000Y-49255000D01*
X227393000Y-48535000D02*
X226983000Y-48535000D01*
X224883000Y-48535000D02*
X224443000Y-48535000D01*
X227393000Y-46715000D02*
X226983000Y-46715000D01*
X224883000Y-46715000D02*
X224443000Y-46715000D01*
X227393000Y-45995000D02*
X226983000Y-45995000D01*
X224883000Y-45995000D02*
X224443000Y-45995000D01*
X227393000Y-44175000D02*
X226983000Y-44175000D01*
X224883000Y-44175000D02*
X224443000Y-44175000D01*
X227393000Y-43455000D02*
X226983000Y-43455000D01*
X224883000Y-43455000D02*
X224443000Y-43455000D01*
X236023000Y-141605000D02*
X227393000Y-141605000D01*
X236023000Y-139065000D02*
X227393000Y-139065000D01*
X236023000Y-136525000D02*
X227393000Y-136525000D01*
X236023000Y-133985000D02*
X227393000Y-133985000D01*
X236023000Y-131445000D02*
X227393000Y-131445000D01*
X236023000Y-128905000D02*
X227393000Y-128905000D01*
X236023000Y-126365000D02*
X227393000Y-126365000D01*
X236023000Y-123825000D02*
X227393000Y-123825000D01*
X236023000Y-121285000D02*
X227393000Y-121285000D01*
X236023000Y-118745000D02*
X227393000Y-118745000D01*
X236023000Y-116205000D02*
X227393000Y-116205000D01*
X236023000Y-113665000D02*
X227393000Y-113665000D01*
X236023000Y-111125000D02*
X227393000Y-111125000D01*
X236023000Y-108585000D02*
X227393000Y-108585000D01*
X236023000Y-106045000D02*
X227393000Y-106045000D01*
X236023000Y-103505000D02*
X227393000Y-103505000D01*
X236023000Y-100965000D02*
X227393000Y-100965000D01*
X236023000Y-98425000D02*
X227393000Y-98425000D01*
X236023000Y-95885000D02*
X227393000Y-95885000D01*
X236023000Y-93345000D02*
X227393000Y-93345000D01*
X236023000Y-90805000D02*
X227393000Y-90805000D01*
X236023000Y-88265000D02*
X227393000Y-88265000D01*
X236023000Y-85725000D02*
X227393000Y-85725000D01*
X236023000Y-83185000D02*
X227393000Y-83185000D01*
X236023000Y-80645000D02*
X227393000Y-80645000D01*
X236023000Y-78105000D02*
X227393000Y-78105000D01*
X236023000Y-75565000D02*
X227393000Y-75565000D01*
X236023000Y-73025000D02*
X227393000Y-73025000D01*
X236023000Y-70485000D02*
X227393000Y-70485000D01*
X236023000Y-67945000D02*
X227393000Y-67945000D01*
X236023000Y-65405000D02*
X227393000Y-65405000D01*
X236023000Y-62865000D02*
X227393000Y-62865000D01*
X236023000Y-60325000D02*
X227393000Y-60325000D01*
X236023000Y-57785000D02*
X227393000Y-57785000D01*
X236023000Y-55245000D02*
X227393000Y-55245000D01*
X236023000Y-52705000D02*
X227393000Y-52705000D01*
X236023000Y-50165000D02*
X227393000Y-50165000D01*
X236023000Y-47625000D02*
X227393000Y-47625000D01*
X236023000Y-45085000D02*
X227393000Y-45085000D01*
X236023000Y-144205000D02*
X227393000Y-144205000D01*
X227393000Y-144205000D02*
X227393000Y-42485000D01*
X236023000Y-42485000D02*
X227393000Y-42485000D01*
X236023000Y-144205000D02*
X236023000Y-42485000D01*
X222283000Y-144205000D02*
X222283000Y-142875000D01*
X223393000Y-144205000D02*
X222283000Y-144205000D01*
%TO.C,J7*%
X90170000Y-144205000D02*
X88840000Y-144205000D01*
X88840000Y-144205000D02*
X88840000Y-142875000D01*
X91440000Y-144205000D02*
X91440000Y-141605000D01*
X91440000Y-141605000D02*
X88840000Y-141605000D01*
X88840000Y-141605000D02*
X88840000Y-42485000D01*
X94040000Y-42485000D02*
X88840000Y-42485000D01*
X94040000Y-144205000D02*
X94040000Y-42485000D01*
X94040000Y-144205000D02*
X91440000Y-144205000D01*
%TO.C,J8*%
X79967000Y-144205000D02*
X79967000Y-42485000D01*
X79967000Y-42485000D02*
X77307000Y-42485000D01*
X77307000Y-42485000D02*
X77307000Y-144205000D01*
X77307000Y-144205000D02*
X79967000Y-144205000D01*
X77307000Y-143255000D02*
X71307000Y-143255000D01*
X71307000Y-143255000D02*
X71307000Y-142495000D01*
X71307000Y-142495000D02*
X77307000Y-142495000D01*
X77307000Y-143195000D02*
X71307000Y-143195000D01*
X77307000Y-143075000D02*
X71307000Y-143075000D01*
X77307000Y-142955000D02*
X71307000Y-142955000D01*
X77307000Y-142835000D02*
X71307000Y-142835000D01*
X77307000Y-142715000D02*
X71307000Y-142715000D01*
X77307000Y-142595000D02*
X71307000Y-142595000D01*
X80364071Y-143255000D02*
X79967000Y-143255000D01*
X80364071Y-142495000D02*
X79967000Y-142495000D01*
X82837000Y-143255000D02*
X82449929Y-143255000D01*
X82837000Y-142495000D02*
X82449929Y-142495000D01*
X79967000Y-141605000D02*
X77307000Y-141605000D01*
X77307000Y-140715000D02*
X71307000Y-140715000D01*
X71307000Y-140715000D02*
X71307000Y-139955000D01*
X71307000Y-139955000D02*
X77307000Y-139955000D01*
X80364071Y-140715000D02*
X79967000Y-140715000D01*
X80364071Y-139955000D02*
X79967000Y-139955000D01*
X82904071Y-140715000D02*
X82449929Y-140715000D01*
X82904071Y-139955000D02*
X82449929Y-139955000D01*
X79967000Y-139065000D02*
X77307000Y-139065000D01*
X77307000Y-138175000D02*
X71307000Y-138175000D01*
X71307000Y-138175000D02*
X71307000Y-137415000D01*
X71307000Y-137415000D02*
X77307000Y-137415000D01*
X80364071Y-138175000D02*
X79967000Y-138175000D01*
X80364071Y-137415000D02*
X79967000Y-137415000D01*
X82904071Y-138175000D02*
X82449929Y-138175000D01*
X82904071Y-137415000D02*
X82449929Y-137415000D01*
X79967000Y-136525000D02*
X77307000Y-136525000D01*
X77307000Y-135635000D02*
X71307000Y-135635000D01*
X71307000Y-135635000D02*
X71307000Y-134875000D01*
X71307000Y-134875000D02*
X77307000Y-134875000D01*
X80364071Y-135635000D02*
X79967000Y-135635000D01*
X80364071Y-134875000D02*
X79967000Y-134875000D01*
X82904071Y-135635000D02*
X82449929Y-135635000D01*
X82904071Y-134875000D02*
X82449929Y-134875000D01*
X79967000Y-133985000D02*
X77307000Y-133985000D01*
X77307000Y-133095000D02*
X71307000Y-133095000D01*
X71307000Y-133095000D02*
X71307000Y-132335000D01*
X71307000Y-132335000D02*
X77307000Y-132335000D01*
X80364071Y-133095000D02*
X79967000Y-133095000D01*
X80364071Y-132335000D02*
X79967000Y-132335000D01*
X82904071Y-133095000D02*
X82449929Y-133095000D01*
X82904071Y-132335000D02*
X82449929Y-132335000D01*
X79967000Y-131445000D02*
X77307000Y-131445000D01*
X77307000Y-130555000D02*
X71307000Y-130555000D01*
X71307000Y-130555000D02*
X71307000Y-129795000D01*
X71307000Y-129795000D02*
X77307000Y-129795000D01*
X80364071Y-130555000D02*
X79967000Y-130555000D01*
X80364071Y-129795000D02*
X79967000Y-129795000D01*
X82904071Y-130555000D02*
X82449929Y-130555000D01*
X82904071Y-129795000D02*
X82449929Y-129795000D01*
X79967000Y-128905000D02*
X77307000Y-128905000D01*
X77307000Y-128015000D02*
X71307000Y-128015000D01*
X71307000Y-128015000D02*
X71307000Y-127255000D01*
X71307000Y-127255000D02*
X77307000Y-127255000D01*
X80364071Y-128015000D02*
X79967000Y-128015000D01*
X80364071Y-127255000D02*
X79967000Y-127255000D01*
X82904071Y-128015000D02*
X82449929Y-128015000D01*
X82904071Y-127255000D02*
X82449929Y-127255000D01*
X79967000Y-126365000D02*
X77307000Y-126365000D01*
X77307000Y-125475000D02*
X71307000Y-125475000D01*
X71307000Y-125475000D02*
X71307000Y-124715000D01*
X71307000Y-124715000D02*
X77307000Y-124715000D01*
X80364071Y-125475000D02*
X79967000Y-125475000D01*
X80364071Y-124715000D02*
X79967000Y-124715000D01*
X82904071Y-125475000D02*
X82449929Y-125475000D01*
X82904071Y-124715000D02*
X82449929Y-124715000D01*
X79967000Y-123825000D02*
X77307000Y-123825000D01*
X77307000Y-122935000D02*
X71307000Y-122935000D01*
X71307000Y-122935000D02*
X71307000Y-122175000D01*
X71307000Y-122175000D02*
X77307000Y-122175000D01*
X80364071Y-122935000D02*
X79967000Y-122935000D01*
X80364071Y-122175000D02*
X79967000Y-122175000D01*
X82904071Y-122935000D02*
X82449929Y-122935000D01*
X82904071Y-122175000D02*
X82449929Y-122175000D01*
X79967000Y-121285000D02*
X77307000Y-121285000D01*
X77307000Y-120395000D02*
X71307000Y-120395000D01*
X71307000Y-120395000D02*
X71307000Y-119635000D01*
X71307000Y-119635000D02*
X77307000Y-119635000D01*
X80364071Y-120395000D02*
X79967000Y-120395000D01*
X80364071Y-119635000D02*
X79967000Y-119635000D01*
X82904071Y-120395000D02*
X82449929Y-120395000D01*
X82904071Y-119635000D02*
X82449929Y-119635000D01*
X79967000Y-118745000D02*
X77307000Y-118745000D01*
X77307000Y-117855000D02*
X71307000Y-117855000D01*
X71307000Y-117855000D02*
X71307000Y-117095000D01*
X71307000Y-117095000D02*
X77307000Y-117095000D01*
X80364071Y-117855000D02*
X79967000Y-117855000D01*
X80364071Y-117095000D02*
X79967000Y-117095000D01*
X82904071Y-117855000D02*
X82449929Y-117855000D01*
X82904071Y-117095000D02*
X82449929Y-117095000D01*
X79967000Y-116205000D02*
X77307000Y-116205000D01*
X77307000Y-115315000D02*
X71307000Y-115315000D01*
X71307000Y-115315000D02*
X71307000Y-114555000D01*
X71307000Y-114555000D02*
X77307000Y-114555000D01*
X80364071Y-115315000D02*
X79967000Y-115315000D01*
X80364071Y-114555000D02*
X79967000Y-114555000D01*
X82904071Y-115315000D02*
X82449929Y-115315000D01*
X82904071Y-114555000D02*
X82449929Y-114555000D01*
X79967000Y-113665000D02*
X77307000Y-113665000D01*
X77307000Y-112775000D02*
X71307000Y-112775000D01*
X71307000Y-112775000D02*
X71307000Y-112015000D01*
X71307000Y-112015000D02*
X77307000Y-112015000D01*
X80364071Y-112775000D02*
X79967000Y-112775000D01*
X80364071Y-112015000D02*
X79967000Y-112015000D01*
X82904071Y-112775000D02*
X82449929Y-112775000D01*
X82904071Y-112015000D02*
X82449929Y-112015000D01*
X79967000Y-111125000D02*
X77307000Y-111125000D01*
X77307000Y-110235000D02*
X71307000Y-110235000D01*
X71307000Y-110235000D02*
X71307000Y-109475000D01*
X71307000Y-109475000D02*
X77307000Y-109475000D01*
X80364071Y-110235000D02*
X79967000Y-110235000D01*
X80364071Y-109475000D02*
X79967000Y-109475000D01*
X82904071Y-110235000D02*
X82449929Y-110235000D01*
X82904071Y-109475000D02*
X82449929Y-109475000D01*
X79967000Y-108585000D02*
X77307000Y-108585000D01*
X77307000Y-107695000D02*
X71307000Y-107695000D01*
X71307000Y-107695000D02*
X71307000Y-106935000D01*
X71307000Y-106935000D02*
X77307000Y-106935000D01*
X80364071Y-107695000D02*
X79967000Y-107695000D01*
X80364071Y-106935000D02*
X79967000Y-106935000D01*
X82904071Y-107695000D02*
X82449929Y-107695000D01*
X82904071Y-106935000D02*
X82449929Y-106935000D01*
X79967000Y-106045000D02*
X77307000Y-106045000D01*
X77307000Y-105155000D02*
X71307000Y-105155000D01*
X71307000Y-105155000D02*
X71307000Y-104395000D01*
X71307000Y-104395000D02*
X77307000Y-104395000D01*
X80364071Y-105155000D02*
X79967000Y-105155000D01*
X80364071Y-104395000D02*
X79967000Y-104395000D01*
X82904071Y-105155000D02*
X82449929Y-105155000D01*
X82904071Y-104395000D02*
X82449929Y-104395000D01*
X79967000Y-103505000D02*
X77307000Y-103505000D01*
X77307000Y-102615000D02*
X71307000Y-102615000D01*
X71307000Y-102615000D02*
X71307000Y-101855000D01*
X71307000Y-101855000D02*
X77307000Y-101855000D01*
X80364071Y-102615000D02*
X79967000Y-102615000D01*
X80364071Y-101855000D02*
X79967000Y-101855000D01*
X82904071Y-102615000D02*
X82449929Y-102615000D01*
X82904071Y-101855000D02*
X82449929Y-101855000D01*
X79967000Y-100965000D02*
X77307000Y-100965000D01*
X77307000Y-100075000D02*
X71307000Y-100075000D01*
X71307000Y-100075000D02*
X71307000Y-99315000D01*
X71307000Y-99315000D02*
X77307000Y-99315000D01*
X80364071Y-100075000D02*
X79967000Y-100075000D01*
X80364071Y-99315000D02*
X79967000Y-99315000D01*
X82904071Y-100075000D02*
X82449929Y-100075000D01*
X82904071Y-99315000D02*
X82449929Y-99315000D01*
X79967000Y-98425000D02*
X77307000Y-98425000D01*
X77307000Y-97535000D02*
X71307000Y-97535000D01*
X71307000Y-97535000D02*
X71307000Y-96775000D01*
X71307000Y-96775000D02*
X77307000Y-96775000D01*
X80364071Y-97535000D02*
X79967000Y-97535000D01*
X80364071Y-96775000D02*
X79967000Y-96775000D01*
X82904071Y-97535000D02*
X82449929Y-97535000D01*
X82904071Y-96775000D02*
X82449929Y-96775000D01*
X79967000Y-95885000D02*
X77307000Y-95885000D01*
X77307000Y-94995000D02*
X71307000Y-94995000D01*
X71307000Y-94995000D02*
X71307000Y-94235000D01*
X71307000Y-94235000D02*
X77307000Y-94235000D01*
X80364071Y-94995000D02*
X79967000Y-94995000D01*
X80364071Y-94235000D02*
X79967000Y-94235000D01*
X82904071Y-94995000D02*
X82449929Y-94995000D01*
X82904071Y-94235000D02*
X82449929Y-94235000D01*
X79967000Y-93345000D02*
X77307000Y-93345000D01*
X77307000Y-92455000D02*
X71307000Y-92455000D01*
X71307000Y-92455000D02*
X71307000Y-91695000D01*
X71307000Y-91695000D02*
X77307000Y-91695000D01*
X80364071Y-92455000D02*
X79967000Y-92455000D01*
X80364071Y-91695000D02*
X79967000Y-91695000D01*
X82904071Y-92455000D02*
X82449929Y-92455000D01*
X82904071Y-91695000D02*
X82449929Y-91695000D01*
X79967000Y-90805000D02*
X77307000Y-90805000D01*
X77307000Y-89915000D02*
X71307000Y-89915000D01*
X71307000Y-89915000D02*
X71307000Y-89155000D01*
X71307000Y-89155000D02*
X77307000Y-89155000D01*
X80364071Y-89915000D02*
X79967000Y-89915000D01*
X80364071Y-89155000D02*
X79967000Y-89155000D01*
X82904071Y-89915000D02*
X82449929Y-89915000D01*
X82904071Y-89155000D02*
X82449929Y-89155000D01*
X79967000Y-88265000D02*
X77307000Y-88265000D01*
X77307000Y-87375000D02*
X71307000Y-87375000D01*
X71307000Y-87375000D02*
X71307000Y-86615000D01*
X71307000Y-86615000D02*
X77307000Y-86615000D01*
X80364071Y-87375000D02*
X79967000Y-87375000D01*
X80364071Y-86615000D02*
X79967000Y-86615000D01*
X82904071Y-87375000D02*
X82449929Y-87375000D01*
X82904071Y-86615000D02*
X82449929Y-86615000D01*
X79967000Y-85725000D02*
X77307000Y-85725000D01*
X77307000Y-84835000D02*
X71307000Y-84835000D01*
X71307000Y-84835000D02*
X71307000Y-84075000D01*
X71307000Y-84075000D02*
X77307000Y-84075000D01*
X80364071Y-84835000D02*
X79967000Y-84835000D01*
X80364071Y-84075000D02*
X79967000Y-84075000D01*
X82904071Y-84835000D02*
X82449929Y-84835000D01*
X82904071Y-84075000D02*
X82449929Y-84075000D01*
X79967000Y-83185000D02*
X77307000Y-83185000D01*
X77307000Y-82295000D02*
X71307000Y-82295000D01*
X71307000Y-82295000D02*
X71307000Y-81535000D01*
X71307000Y-81535000D02*
X77307000Y-81535000D01*
X80364071Y-82295000D02*
X79967000Y-82295000D01*
X80364071Y-81535000D02*
X79967000Y-81535000D01*
X82904071Y-82295000D02*
X82449929Y-82295000D01*
X82904071Y-81535000D02*
X82449929Y-81535000D01*
X79967000Y-80645000D02*
X77307000Y-80645000D01*
X77307000Y-79755000D02*
X71307000Y-79755000D01*
X71307000Y-79755000D02*
X71307000Y-78995000D01*
X71307000Y-78995000D02*
X77307000Y-78995000D01*
X80364071Y-79755000D02*
X79967000Y-79755000D01*
X80364071Y-78995000D02*
X79967000Y-78995000D01*
X82904071Y-79755000D02*
X82449929Y-79755000D01*
X82904071Y-78995000D02*
X82449929Y-78995000D01*
X79967000Y-78105000D02*
X77307000Y-78105000D01*
X77307000Y-77215000D02*
X71307000Y-77215000D01*
X71307000Y-77215000D02*
X71307000Y-76455000D01*
X71307000Y-76455000D02*
X77307000Y-76455000D01*
X80364071Y-77215000D02*
X79967000Y-77215000D01*
X80364071Y-76455000D02*
X79967000Y-76455000D01*
X82904071Y-77215000D02*
X82449929Y-77215000D01*
X82904071Y-76455000D02*
X82449929Y-76455000D01*
X79967000Y-75565000D02*
X77307000Y-75565000D01*
X77307000Y-74675000D02*
X71307000Y-74675000D01*
X71307000Y-74675000D02*
X71307000Y-73915000D01*
X71307000Y-73915000D02*
X77307000Y-73915000D01*
X80364071Y-74675000D02*
X79967000Y-74675000D01*
X80364071Y-73915000D02*
X79967000Y-73915000D01*
X82904071Y-74675000D02*
X82449929Y-74675000D01*
X82904071Y-73915000D02*
X82449929Y-73915000D01*
X79967000Y-73025000D02*
X77307000Y-73025000D01*
X77307000Y-72135000D02*
X71307000Y-72135000D01*
X71307000Y-72135000D02*
X71307000Y-71375000D01*
X71307000Y-71375000D02*
X77307000Y-71375000D01*
X80364071Y-72135000D02*
X79967000Y-72135000D01*
X80364071Y-71375000D02*
X79967000Y-71375000D01*
X82904071Y-72135000D02*
X82449929Y-72135000D01*
X82904071Y-71375000D02*
X82449929Y-71375000D01*
X79967000Y-70485000D02*
X77307000Y-70485000D01*
X77307000Y-69595000D02*
X71307000Y-69595000D01*
X71307000Y-69595000D02*
X71307000Y-68835000D01*
X71307000Y-68835000D02*
X77307000Y-68835000D01*
X80364071Y-69595000D02*
X79967000Y-69595000D01*
X80364071Y-68835000D02*
X79967000Y-68835000D01*
X82904071Y-69595000D02*
X82449929Y-69595000D01*
X82904071Y-68835000D02*
X82449929Y-68835000D01*
X79967000Y-67945000D02*
X77307000Y-67945000D01*
X77307000Y-67055000D02*
X71307000Y-67055000D01*
X71307000Y-67055000D02*
X71307000Y-66295000D01*
X71307000Y-66295000D02*
X77307000Y-66295000D01*
X80364071Y-67055000D02*
X79967000Y-67055000D01*
X80364071Y-66295000D02*
X79967000Y-66295000D01*
X82904071Y-67055000D02*
X82449929Y-67055000D01*
X82904071Y-66295000D02*
X82449929Y-66295000D01*
X79967000Y-65405000D02*
X77307000Y-65405000D01*
X77307000Y-64515000D02*
X71307000Y-64515000D01*
X71307000Y-64515000D02*
X71307000Y-63755000D01*
X71307000Y-63755000D02*
X77307000Y-63755000D01*
X80364071Y-64515000D02*
X79967000Y-64515000D01*
X80364071Y-63755000D02*
X79967000Y-63755000D01*
X82904071Y-64515000D02*
X82449929Y-64515000D01*
X82904071Y-63755000D02*
X82449929Y-63755000D01*
X79967000Y-62865000D02*
X77307000Y-62865000D01*
X77307000Y-61975000D02*
X71307000Y-61975000D01*
X71307000Y-61975000D02*
X71307000Y-61215000D01*
X71307000Y-61215000D02*
X77307000Y-61215000D01*
X80364071Y-61975000D02*
X79967000Y-61975000D01*
X80364071Y-61215000D02*
X79967000Y-61215000D01*
X82904071Y-61975000D02*
X82449929Y-61975000D01*
X82904071Y-61215000D02*
X82449929Y-61215000D01*
X79967000Y-60325000D02*
X77307000Y-60325000D01*
X77307000Y-59435000D02*
X71307000Y-59435000D01*
X71307000Y-59435000D02*
X71307000Y-58675000D01*
X71307000Y-58675000D02*
X77307000Y-58675000D01*
X80364071Y-59435000D02*
X79967000Y-59435000D01*
X80364071Y-58675000D02*
X79967000Y-58675000D01*
X82904071Y-59435000D02*
X82449929Y-59435000D01*
X82904071Y-58675000D02*
X82449929Y-58675000D01*
X79967000Y-57785000D02*
X77307000Y-57785000D01*
X77307000Y-56895000D02*
X71307000Y-56895000D01*
X71307000Y-56895000D02*
X71307000Y-56135000D01*
X71307000Y-56135000D02*
X77307000Y-56135000D01*
X80364071Y-56895000D02*
X79967000Y-56895000D01*
X80364071Y-56135000D02*
X79967000Y-56135000D01*
X82904071Y-56895000D02*
X82449929Y-56895000D01*
X82904071Y-56135000D02*
X82449929Y-56135000D01*
X79967000Y-55245000D02*
X77307000Y-55245000D01*
X77307000Y-54355000D02*
X71307000Y-54355000D01*
X71307000Y-54355000D02*
X71307000Y-53595000D01*
X71307000Y-53595000D02*
X77307000Y-53595000D01*
X80364071Y-54355000D02*
X79967000Y-54355000D01*
X80364071Y-53595000D02*
X79967000Y-53595000D01*
X82904071Y-54355000D02*
X82449929Y-54355000D01*
X82904071Y-53595000D02*
X82449929Y-53595000D01*
X79967000Y-52705000D02*
X77307000Y-52705000D01*
X77307000Y-51815000D02*
X71307000Y-51815000D01*
X71307000Y-51815000D02*
X71307000Y-51055000D01*
X71307000Y-51055000D02*
X77307000Y-51055000D01*
X80364071Y-51815000D02*
X79967000Y-51815000D01*
X80364071Y-51055000D02*
X79967000Y-51055000D01*
X82904071Y-51815000D02*
X82449929Y-51815000D01*
X82904071Y-51055000D02*
X82449929Y-51055000D01*
X79967000Y-50165000D02*
X77307000Y-50165000D01*
X77307000Y-49275000D02*
X71307000Y-49275000D01*
X71307000Y-49275000D02*
X71307000Y-48515000D01*
X71307000Y-48515000D02*
X77307000Y-48515000D01*
X80364071Y-49275000D02*
X79967000Y-49275000D01*
X80364071Y-48515000D02*
X79967000Y-48515000D01*
X82904071Y-49275000D02*
X82449929Y-49275000D01*
X82904071Y-48515000D02*
X82449929Y-48515000D01*
X79967000Y-47625000D02*
X77307000Y-47625000D01*
X77307000Y-46735000D02*
X71307000Y-46735000D01*
X71307000Y-46735000D02*
X71307000Y-45975000D01*
X71307000Y-45975000D02*
X77307000Y-45975000D01*
X80364071Y-46735000D02*
X79967000Y-46735000D01*
X80364071Y-45975000D02*
X79967000Y-45975000D01*
X82904071Y-46735000D02*
X82449929Y-46735000D01*
X82904071Y-45975000D02*
X82449929Y-45975000D01*
X79967000Y-45085000D02*
X77307000Y-45085000D01*
X77307000Y-44195000D02*
X71307000Y-44195000D01*
X71307000Y-44195000D02*
X71307000Y-43435000D01*
X71307000Y-43435000D02*
X77307000Y-43435000D01*
X80364071Y-44195000D02*
X79967000Y-44195000D01*
X80364071Y-43435000D02*
X79967000Y-43435000D01*
X82904071Y-44195000D02*
X82449929Y-44195000D01*
X82904071Y-43435000D02*
X82449929Y-43435000D01*
X85217000Y-142875000D02*
X85217000Y-144145000D01*
X85217000Y-144145000D02*
X83947000Y-144145000D01*
%TO.C,J6*%
X119440000Y-144205000D02*
X116840000Y-144205000D01*
X119440000Y-144205000D02*
X119440000Y-42485000D01*
X119440000Y-42485000D02*
X114240000Y-42485000D01*
X114240000Y-141605000D02*
X114240000Y-42485000D01*
X116840000Y-141605000D02*
X114240000Y-141605000D01*
X116840000Y-144205000D02*
X116840000Y-141605000D01*
X114240000Y-144205000D02*
X114240000Y-142875000D01*
X115570000Y-144205000D02*
X114240000Y-144205000D01*
%TO.C,J2*%
X221040000Y-144205000D02*
X218440000Y-144205000D01*
X221040000Y-144205000D02*
X221040000Y-42485000D01*
X221040000Y-42485000D02*
X215840000Y-42485000D01*
X215840000Y-141605000D02*
X215840000Y-42485000D01*
X218440000Y-141605000D02*
X215840000Y-141605000D01*
X218440000Y-144205000D02*
X218440000Y-141605000D01*
X215840000Y-144205000D02*
X215840000Y-142875000D01*
X217170000Y-144205000D02*
X215840000Y-144205000D01*
%TO.C,J4*%
X170240000Y-144205000D02*
X167640000Y-144205000D01*
X170240000Y-144205000D02*
X170240000Y-42485000D01*
X170240000Y-42485000D02*
X165040000Y-42485000D01*
X165040000Y-141605000D02*
X165040000Y-42485000D01*
X167640000Y-141605000D02*
X165040000Y-141605000D01*
X167640000Y-144205000D02*
X167640000Y-141605000D01*
X165040000Y-144205000D02*
X165040000Y-142875000D01*
X166370000Y-144205000D02*
X165040000Y-144205000D01*
%TO.C,J5*%
X140970000Y-144205000D02*
X139640000Y-144205000D01*
X139640000Y-144205000D02*
X139640000Y-142875000D01*
X142240000Y-144205000D02*
X142240000Y-141605000D01*
X142240000Y-141605000D02*
X139640000Y-141605000D01*
X139640000Y-141605000D02*
X139640000Y-42485000D01*
X144840000Y-42485000D02*
X139640000Y-42485000D01*
X144840000Y-144205000D02*
X144840000Y-42485000D01*
X144840000Y-144205000D02*
X142240000Y-144205000D01*
%TO.C,J3*%
D12*
X192706666Y-145097380D02*
X192706666Y-145811666D01*
X192659047Y-145954523D01*
X192563809Y-146049761D01*
X192420952Y-146097380D01*
X192325714Y-146097380D01*
X193087619Y-145097380D02*
X193706666Y-145097380D01*
X193373333Y-145478333D01*
X193516190Y-145478333D01*
X193611428Y-145525952D01*
X193659047Y-145573571D01*
X193706666Y-145668809D01*
X193706666Y-145906904D01*
X193659047Y-146002142D01*
X193611428Y-146049761D01*
X193516190Y-146097380D01*
X193230476Y-146097380D01*
X193135238Y-146049761D01*
X193087619Y-146002142D01*
%TO.C,J1*%
X228709666Y-145097380D02*
X228709666Y-145811666D01*
X228662047Y-145954523D01*
X228566809Y-146049761D01*
X228423952Y-146097380D01*
X228328714Y-146097380D01*
X229709666Y-146097380D02*
X229138238Y-146097380D01*
X229423952Y-146097380D02*
X229423952Y-145097380D01*
X229328714Y-145240238D01*
X229233476Y-145335476D01*
X229138238Y-145383095D01*
%TO.C,J7*%
X91106666Y-145097380D02*
X91106666Y-145811666D01*
X91059047Y-145954523D01*
X90963809Y-146049761D01*
X90820952Y-146097380D01*
X90725714Y-146097380D01*
X91487619Y-145097380D02*
X92154285Y-145097380D01*
X91725714Y-146097380D01*
%TO.C,J8*%
X84883666Y-145097380D02*
X84883666Y-145811666D01*
X84836047Y-145954523D01*
X84740809Y-146049761D01*
X84597952Y-146097380D01*
X84502714Y-146097380D01*
X85502714Y-145525952D02*
X85407476Y-145478333D01*
X85359857Y-145430714D01*
X85312238Y-145335476D01*
X85312238Y-145287857D01*
X85359857Y-145192619D01*
X85407476Y-145145000D01*
X85502714Y-145097380D01*
X85693190Y-145097380D01*
X85788428Y-145145000D01*
X85836047Y-145192619D01*
X85883666Y-145287857D01*
X85883666Y-145335476D01*
X85836047Y-145430714D01*
X85788428Y-145478333D01*
X85693190Y-145525952D01*
X85502714Y-145525952D01*
X85407476Y-145573571D01*
X85359857Y-145621190D01*
X85312238Y-145716428D01*
X85312238Y-145906904D01*
X85359857Y-146002142D01*
X85407476Y-146049761D01*
X85502714Y-146097380D01*
X85693190Y-146097380D01*
X85788428Y-146049761D01*
X85836047Y-146002142D01*
X85883666Y-145906904D01*
X85883666Y-145716428D01*
X85836047Y-145621190D01*
X85788428Y-145573571D01*
X85693190Y-145525952D01*
%TO.C,J6*%
X116506666Y-145097380D02*
X116506666Y-145811666D01*
X116459047Y-145954523D01*
X116363809Y-146049761D01*
X116220952Y-146097380D01*
X116125714Y-146097380D01*
X117411428Y-145097380D02*
X117220952Y-145097380D01*
X117125714Y-145145000D01*
X117078095Y-145192619D01*
X116982857Y-145335476D01*
X116935238Y-145525952D01*
X116935238Y-145906904D01*
X116982857Y-146002142D01*
X117030476Y-146049761D01*
X117125714Y-146097380D01*
X117316190Y-146097380D01*
X117411428Y-146049761D01*
X117459047Y-146002142D01*
X117506666Y-145906904D01*
X117506666Y-145668809D01*
X117459047Y-145573571D01*
X117411428Y-145525952D01*
X117316190Y-145478333D01*
X117125714Y-145478333D01*
X117030476Y-145525952D01*
X116982857Y-145573571D01*
X116935238Y-145668809D01*
%TO.C,J2*%
X218106666Y-145097380D02*
X218106666Y-145811666D01*
X218059047Y-145954523D01*
X217963809Y-146049761D01*
X217820952Y-146097380D01*
X217725714Y-146097380D01*
X218535238Y-145192619D02*
X218582857Y-145145000D01*
X218678095Y-145097380D01*
X218916190Y-145097380D01*
X219011428Y-145145000D01*
X219059047Y-145192619D01*
X219106666Y-145287857D01*
X219106666Y-145383095D01*
X219059047Y-145525952D01*
X218487619Y-146097380D01*
X219106666Y-146097380D01*
%TO.C,J4*%
X167306666Y-145097380D02*
X167306666Y-145811666D01*
X167259047Y-145954523D01*
X167163809Y-146049761D01*
X167020952Y-146097380D01*
X166925714Y-146097380D01*
X168211428Y-145430714D02*
X168211428Y-146097380D01*
X167973333Y-145049761D02*
X167735238Y-145764047D01*
X168354285Y-145764047D01*
%TO.C,J5*%
X141906666Y-145097380D02*
X141906666Y-145811666D01*
X141859047Y-145954523D01*
X141763809Y-146049761D01*
X141620952Y-146097380D01*
X141525714Y-146097380D01*
X142859047Y-145097380D02*
X142382857Y-145097380D01*
X142335238Y-145573571D01*
X142382857Y-145525952D01*
X142478095Y-145478333D01*
X142716190Y-145478333D01*
X142811428Y-145525952D01*
X142859047Y-145573571D01*
X142906666Y-145668809D01*
X142906666Y-145906904D01*
X142859047Y-146002142D01*
X142811428Y-146049761D01*
X142716190Y-146097380D01*
X142478095Y-146097380D01*
X142382857Y-146049761D01*
X142335238Y-146002142D01*
%TD*%
M02*
