%TF.GenerationSoftware,KiCad,Pcbnew,(5.1.10-1-10_14)*%
%TF.CreationDate,2021-07-17T22:38:12-07:00*%
%TF.ProjectId,Backplane,4261636b-706c-4616-9e65-2e6b69636164,rev?*%
%TF.SameCoordinates,Original*%
%TF.FileFunction,Soldermask,Top*%
%TF.FilePolarity,Negative*%
%FSLAX46Y46*%
G04 Gerber Fmt 4.6, Leading zero omitted, Abs format (unit mm)*
G04 Created by KiCad (PCBNEW (5.1.10-1-10_14)) date 2021-07-17 22:38:12*
%MOMM*%
%LPD*%
G01*
G04 APERTURE LIST*
%ADD10O,1.700000X1.700000*%
%ADD11R,1.700000X1.700000*%
G04 APERTURE END LIST*
D10*
%TO.C,J3*%
X194310000Y-43815000D03*
X191770000Y-43815000D03*
X194310000Y-46355000D03*
X191770000Y-46355000D03*
X194310000Y-48895000D03*
X191770000Y-48895000D03*
X194310000Y-51435000D03*
X191770000Y-51435000D03*
X194310000Y-53975000D03*
X191770000Y-53975000D03*
X194310000Y-56515000D03*
X191770000Y-56515000D03*
X194310000Y-59055000D03*
X191770000Y-59055000D03*
X194310000Y-61595000D03*
X191770000Y-61595000D03*
X194310000Y-64135000D03*
X191770000Y-64135000D03*
X194310000Y-66675000D03*
X191770000Y-66675000D03*
X194310000Y-69215000D03*
X191770000Y-69215000D03*
X194310000Y-71755000D03*
X191770000Y-71755000D03*
X194310000Y-74295000D03*
X191770000Y-74295000D03*
X194310000Y-76835000D03*
X191770000Y-76835000D03*
X194310000Y-79375000D03*
X191770000Y-79375000D03*
X194310000Y-81915000D03*
X191770000Y-81915000D03*
X194310000Y-84455000D03*
X191770000Y-84455000D03*
X194310000Y-86995000D03*
X191770000Y-86995000D03*
X194310000Y-89535000D03*
X191770000Y-89535000D03*
X194310000Y-92075000D03*
X191770000Y-92075000D03*
X194310000Y-94615000D03*
X191770000Y-94615000D03*
X194310000Y-97155000D03*
X191770000Y-97155000D03*
X194310000Y-99695000D03*
X191770000Y-99695000D03*
X194310000Y-102235000D03*
X191770000Y-102235000D03*
X194310000Y-104775000D03*
X191770000Y-104775000D03*
X194310000Y-107315000D03*
X191770000Y-107315000D03*
X194310000Y-109855000D03*
X191770000Y-109855000D03*
X194310000Y-112395000D03*
X191770000Y-112395000D03*
X194310000Y-114935000D03*
X191770000Y-114935000D03*
X194310000Y-117475000D03*
X191770000Y-117475000D03*
X194310000Y-120015000D03*
X191770000Y-120015000D03*
X194310000Y-122555000D03*
X191770000Y-122555000D03*
X194310000Y-125095000D03*
X191770000Y-125095000D03*
X194310000Y-127635000D03*
X191770000Y-127635000D03*
X194310000Y-130175000D03*
X191770000Y-130175000D03*
X194310000Y-132715000D03*
X191770000Y-132715000D03*
X194310000Y-135255000D03*
X191770000Y-135255000D03*
X194310000Y-137795000D03*
X191770000Y-137795000D03*
X194310000Y-140335000D03*
X191770000Y-140335000D03*
X194310000Y-142875000D03*
D11*
X191770000Y-142875000D03*
%TD*%
%TO.C,J1*%
X223393000Y-142875000D03*
D10*
X225933000Y-142875000D03*
X223393000Y-140335000D03*
X225933000Y-140335000D03*
X223393000Y-137795000D03*
X225933000Y-137795000D03*
X223393000Y-135255000D03*
X225933000Y-135255000D03*
X223393000Y-132715000D03*
X225933000Y-132715000D03*
X223393000Y-130175000D03*
X225933000Y-130175000D03*
X223393000Y-127635000D03*
X225933000Y-127635000D03*
X223393000Y-125095000D03*
X225933000Y-125095000D03*
X223393000Y-122555000D03*
X225933000Y-122555000D03*
X223393000Y-120015000D03*
X225933000Y-120015000D03*
X223393000Y-117475000D03*
X225933000Y-117475000D03*
X223393000Y-114935000D03*
X225933000Y-114935000D03*
X223393000Y-112395000D03*
X225933000Y-112395000D03*
X223393000Y-109855000D03*
X225933000Y-109855000D03*
X223393000Y-107315000D03*
X225933000Y-107315000D03*
X223393000Y-104775000D03*
X225933000Y-104775000D03*
X223393000Y-102235000D03*
X225933000Y-102235000D03*
X223393000Y-99695000D03*
X225933000Y-99695000D03*
X223393000Y-97155000D03*
X225933000Y-97155000D03*
X223393000Y-94615000D03*
X225933000Y-94615000D03*
X223393000Y-92075000D03*
X225933000Y-92075000D03*
X223393000Y-89535000D03*
X225933000Y-89535000D03*
X223393000Y-86995000D03*
X225933000Y-86995000D03*
X223393000Y-84455000D03*
X225933000Y-84455000D03*
X223393000Y-81915000D03*
X225933000Y-81915000D03*
X223393000Y-79375000D03*
X225933000Y-79375000D03*
X223393000Y-76835000D03*
X225933000Y-76835000D03*
X223393000Y-74295000D03*
X225933000Y-74295000D03*
X223393000Y-71755000D03*
X225933000Y-71755000D03*
X223393000Y-69215000D03*
X225933000Y-69215000D03*
X223393000Y-66675000D03*
X225933000Y-66675000D03*
X223393000Y-64135000D03*
X225933000Y-64135000D03*
X223393000Y-61595000D03*
X225933000Y-61595000D03*
X223393000Y-59055000D03*
X225933000Y-59055000D03*
X223393000Y-56515000D03*
X225933000Y-56515000D03*
X223393000Y-53975000D03*
X225933000Y-53975000D03*
X223393000Y-51435000D03*
X225933000Y-51435000D03*
X223393000Y-48895000D03*
X225933000Y-48895000D03*
X223393000Y-46355000D03*
X225933000Y-46355000D03*
X223393000Y-43815000D03*
X225933000Y-43815000D03*
%TD*%
%TO.C,J7*%
X92710000Y-43815000D03*
X90170000Y-43815000D03*
X92710000Y-46355000D03*
X90170000Y-46355000D03*
X92710000Y-48895000D03*
X90170000Y-48895000D03*
X92710000Y-51435000D03*
X90170000Y-51435000D03*
X92710000Y-53975000D03*
X90170000Y-53975000D03*
X92710000Y-56515000D03*
X90170000Y-56515000D03*
X92710000Y-59055000D03*
X90170000Y-59055000D03*
X92710000Y-61595000D03*
X90170000Y-61595000D03*
X92710000Y-64135000D03*
X90170000Y-64135000D03*
X92710000Y-66675000D03*
X90170000Y-66675000D03*
X92710000Y-69215000D03*
X90170000Y-69215000D03*
X92710000Y-71755000D03*
X90170000Y-71755000D03*
X92710000Y-74295000D03*
X90170000Y-74295000D03*
X92710000Y-76835000D03*
X90170000Y-76835000D03*
X92710000Y-79375000D03*
X90170000Y-79375000D03*
X92710000Y-81915000D03*
X90170000Y-81915000D03*
X92710000Y-84455000D03*
X90170000Y-84455000D03*
X92710000Y-86995000D03*
X90170000Y-86995000D03*
X92710000Y-89535000D03*
X90170000Y-89535000D03*
X92710000Y-92075000D03*
X90170000Y-92075000D03*
X92710000Y-94615000D03*
X90170000Y-94615000D03*
X92710000Y-97155000D03*
X90170000Y-97155000D03*
X92710000Y-99695000D03*
X90170000Y-99695000D03*
X92710000Y-102235000D03*
X90170000Y-102235000D03*
X92710000Y-104775000D03*
X90170000Y-104775000D03*
X92710000Y-107315000D03*
X90170000Y-107315000D03*
X92710000Y-109855000D03*
X90170000Y-109855000D03*
X92710000Y-112395000D03*
X90170000Y-112395000D03*
X92710000Y-114935000D03*
X90170000Y-114935000D03*
X92710000Y-117475000D03*
X90170000Y-117475000D03*
X92710000Y-120015000D03*
X90170000Y-120015000D03*
X92710000Y-122555000D03*
X90170000Y-122555000D03*
X92710000Y-125095000D03*
X90170000Y-125095000D03*
X92710000Y-127635000D03*
X90170000Y-127635000D03*
X92710000Y-130175000D03*
X90170000Y-130175000D03*
X92710000Y-132715000D03*
X90170000Y-132715000D03*
X92710000Y-135255000D03*
X90170000Y-135255000D03*
X92710000Y-137795000D03*
X90170000Y-137795000D03*
X92710000Y-140335000D03*
X90170000Y-140335000D03*
X92710000Y-142875000D03*
D11*
X90170000Y-142875000D03*
%TD*%
D10*
%TO.C,J8*%
X81407000Y-43815000D03*
X83947000Y-43815000D03*
X81407000Y-46355000D03*
X83947000Y-46355000D03*
X81407000Y-48895000D03*
X83947000Y-48895000D03*
X81407000Y-51435000D03*
X83947000Y-51435000D03*
X81407000Y-53975000D03*
X83947000Y-53975000D03*
X81407000Y-56515000D03*
X83947000Y-56515000D03*
X81407000Y-59055000D03*
X83947000Y-59055000D03*
X81407000Y-61595000D03*
X83947000Y-61595000D03*
X81407000Y-64135000D03*
X83947000Y-64135000D03*
X81407000Y-66675000D03*
X83947000Y-66675000D03*
X81407000Y-69215000D03*
X83947000Y-69215000D03*
X81407000Y-71755000D03*
X83947000Y-71755000D03*
X81407000Y-74295000D03*
X83947000Y-74295000D03*
X81407000Y-76835000D03*
X83947000Y-76835000D03*
X81407000Y-79375000D03*
X83947000Y-79375000D03*
X81407000Y-81915000D03*
X83947000Y-81915000D03*
X81407000Y-84455000D03*
X83947000Y-84455000D03*
X81407000Y-86995000D03*
X83947000Y-86995000D03*
X81407000Y-89535000D03*
X83947000Y-89535000D03*
X81407000Y-92075000D03*
X83947000Y-92075000D03*
X81407000Y-94615000D03*
X83947000Y-94615000D03*
X81407000Y-97155000D03*
X83947000Y-97155000D03*
X81407000Y-99695000D03*
X83947000Y-99695000D03*
X81407000Y-102235000D03*
X83947000Y-102235000D03*
X81407000Y-104775000D03*
X83947000Y-104775000D03*
X81407000Y-107315000D03*
X83947000Y-107315000D03*
X81407000Y-109855000D03*
X83947000Y-109855000D03*
X81407000Y-112395000D03*
X83947000Y-112395000D03*
X81407000Y-114935000D03*
X83947000Y-114935000D03*
X81407000Y-117475000D03*
X83947000Y-117475000D03*
X81407000Y-120015000D03*
X83947000Y-120015000D03*
X81407000Y-122555000D03*
X83947000Y-122555000D03*
X81407000Y-125095000D03*
X83947000Y-125095000D03*
X81407000Y-127635000D03*
X83947000Y-127635000D03*
X81407000Y-130175000D03*
X83947000Y-130175000D03*
X81407000Y-132715000D03*
X83947000Y-132715000D03*
X81407000Y-135255000D03*
X83947000Y-135255000D03*
X81407000Y-137795000D03*
X83947000Y-137795000D03*
X81407000Y-140335000D03*
X83947000Y-140335000D03*
X81407000Y-142875000D03*
D11*
X83947000Y-142875000D03*
%TD*%
%TO.C,J6*%
X115570000Y-142875000D03*
D10*
X118110000Y-142875000D03*
X115570000Y-140335000D03*
X118110000Y-140335000D03*
X115570000Y-137795000D03*
X118110000Y-137795000D03*
X115570000Y-135255000D03*
X118110000Y-135255000D03*
X115570000Y-132715000D03*
X118110000Y-132715000D03*
X115570000Y-130175000D03*
X118110000Y-130175000D03*
X115570000Y-127635000D03*
X118110000Y-127635000D03*
X115570000Y-125095000D03*
X118110000Y-125095000D03*
X115570000Y-122555000D03*
X118110000Y-122555000D03*
X115570000Y-120015000D03*
X118110000Y-120015000D03*
X115570000Y-117475000D03*
X118110000Y-117475000D03*
X115570000Y-114935000D03*
X118110000Y-114935000D03*
X115570000Y-112395000D03*
X118110000Y-112395000D03*
X115570000Y-109855000D03*
X118110000Y-109855000D03*
X115570000Y-107315000D03*
X118110000Y-107315000D03*
X115570000Y-104775000D03*
X118110000Y-104775000D03*
X115570000Y-102235000D03*
X118110000Y-102235000D03*
X115570000Y-99695000D03*
X118110000Y-99695000D03*
X115570000Y-97155000D03*
X118110000Y-97155000D03*
X115570000Y-94615000D03*
X118110000Y-94615000D03*
X115570000Y-92075000D03*
X118110000Y-92075000D03*
X115570000Y-89535000D03*
X118110000Y-89535000D03*
X115570000Y-86995000D03*
X118110000Y-86995000D03*
X115570000Y-84455000D03*
X118110000Y-84455000D03*
X115570000Y-81915000D03*
X118110000Y-81915000D03*
X115570000Y-79375000D03*
X118110000Y-79375000D03*
X115570000Y-76835000D03*
X118110000Y-76835000D03*
X115570000Y-74295000D03*
X118110000Y-74295000D03*
X115570000Y-71755000D03*
X118110000Y-71755000D03*
X115570000Y-69215000D03*
X118110000Y-69215000D03*
X115570000Y-66675000D03*
X118110000Y-66675000D03*
X115570000Y-64135000D03*
X118110000Y-64135000D03*
X115570000Y-61595000D03*
X118110000Y-61595000D03*
X115570000Y-59055000D03*
X118110000Y-59055000D03*
X115570000Y-56515000D03*
X118110000Y-56515000D03*
X115570000Y-53975000D03*
X118110000Y-53975000D03*
X115570000Y-51435000D03*
X118110000Y-51435000D03*
X115570000Y-48895000D03*
X118110000Y-48895000D03*
X115570000Y-46355000D03*
X118110000Y-46355000D03*
X115570000Y-43815000D03*
X118110000Y-43815000D03*
%TD*%
D11*
%TO.C,J2*%
X217170000Y-142875000D03*
D10*
X219710000Y-142875000D03*
X217170000Y-140335000D03*
X219710000Y-140335000D03*
X217170000Y-137795000D03*
X219710000Y-137795000D03*
X217170000Y-135255000D03*
X219710000Y-135255000D03*
X217170000Y-132715000D03*
X219710000Y-132715000D03*
X217170000Y-130175000D03*
X219710000Y-130175000D03*
X217170000Y-127635000D03*
X219710000Y-127635000D03*
X217170000Y-125095000D03*
X219710000Y-125095000D03*
X217170000Y-122555000D03*
X219710000Y-122555000D03*
X217170000Y-120015000D03*
X219710000Y-120015000D03*
X217170000Y-117475000D03*
X219710000Y-117475000D03*
X217170000Y-114935000D03*
X219710000Y-114935000D03*
X217170000Y-112395000D03*
X219710000Y-112395000D03*
X217170000Y-109855000D03*
X219710000Y-109855000D03*
X217170000Y-107315000D03*
X219710000Y-107315000D03*
X217170000Y-104775000D03*
X219710000Y-104775000D03*
X217170000Y-102235000D03*
X219710000Y-102235000D03*
X217170000Y-99695000D03*
X219710000Y-99695000D03*
X217170000Y-97155000D03*
X219710000Y-97155000D03*
X217170000Y-94615000D03*
X219710000Y-94615000D03*
X217170000Y-92075000D03*
X219710000Y-92075000D03*
X217170000Y-89535000D03*
X219710000Y-89535000D03*
X217170000Y-86995000D03*
X219710000Y-86995000D03*
X217170000Y-84455000D03*
X219710000Y-84455000D03*
X217170000Y-81915000D03*
X219710000Y-81915000D03*
X217170000Y-79375000D03*
X219710000Y-79375000D03*
X217170000Y-76835000D03*
X219710000Y-76835000D03*
X217170000Y-74295000D03*
X219710000Y-74295000D03*
X217170000Y-71755000D03*
X219710000Y-71755000D03*
X217170000Y-69215000D03*
X219710000Y-69215000D03*
X217170000Y-66675000D03*
X219710000Y-66675000D03*
X217170000Y-64135000D03*
X219710000Y-64135000D03*
X217170000Y-61595000D03*
X219710000Y-61595000D03*
X217170000Y-59055000D03*
X219710000Y-59055000D03*
X217170000Y-56515000D03*
X219710000Y-56515000D03*
X217170000Y-53975000D03*
X219710000Y-53975000D03*
X217170000Y-51435000D03*
X219710000Y-51435000D03*
X217170000Y-48895000D03*
X219710000Y-48895000D03*
X217170000Y-46355000D03*
X219710000Y-46355000D03*
X217170000Y-43815000D03*
X219710000Y-43815000D03*
%TD*%
D11*
%TO.C,J4*%
X166370000Y-142875000D03*
D10*
X168910000Y-142875000D03*
X166370000Y-140335000D03*
X168910000Y-140335000D03*
X166370000Y-137795000D03*
X168910000Y-137795000D03*
X166370000Y-135255000D03*
X168910000Y-135255000D03*
X166370000Y-132715000D03*
X168910000Y-132715000D03*
X166370000Y-130175000D03*
X168910000Y-130175000D03*
X166370000Y-127635000D03*
X168910000Y-127635000D03*
X166370000Y-125095000D03*
X168910000Y-125095000D03*
X166370000Y-122555000D03*
X168910000Y-122555000D03*
X166370000Y-120015000D03*
X168910000Y-120015000D03*
X166370000Y-117475000D03*
X168910000Y-117475000D03*
X166370000Y-114935000D03*
X168910000Y-114935000D03*
X166370000Y-112395000D03*
X168910000Y-112395000D03*
X166370000Y-109855000D03*
X168910000Y-109855000D03*
X166370000Y-107315000D03*
X168910000Y-107315000D03*
X166370000Y-104775000D03*
X168910000Y-104775000D03*
X166370000Y-102235000D03*
X168910000Y-102235000D03*
X166370000Y-99695000D03*
X168910000Y-99695000D03*
X166370000Y-97155000D03*
X168910000Y-97155000D03*
X166370000Y-94615000D03*
X168910000Y-94615000D03*
X166370000Y-92075000D03*
X168910000Y-92075000D03*
X166370000Y-89535000D03*
X168910000Y-89535000D03*
X166370000Y-86995000D03*
X168910000Y-86995000D03*
X166370000Y-84455000D03*
X168910000Y-84455000D03*
X166370000Y-81915000D03*
X168910000Y-81915000D03*
X166370000Y-79375000D03*
X168910000Y-79375000D03*
X166370000Y-76835000D03*
X168910000Y-76835000D03*
X166370000Y-74295000D03*
X168910000Y-74295000D03*
X166370000Y-71755000D03*
X168910000Y-71755000D03*
X166370000Y-69215000D03*
X168910000Y-69215000D03*
X166370000Y-66675000D03*
X168910000Y-66675000D03*
X166370000Y-64135000D03*
X168910000Y-64135000D03*
X166370000Y-61595000D03*
X168910000Y-61595000D03*
X166370000Y-59055000D03*
X168910000Y-59055000D03*
X166370000Y-56515000D03*
X168910000Y-56515000D03*
X166370000Y-53975000D03*
X168910000Y-53975000D03*
X166370000Y-51435000D03*
X168910000Y-51435000D03*
X166370000Y-48895000D03*
X168910000Y-48895000D03*
X166370000Y-46355000D03*
X168910000Y-46355000D03*
X166370000Y-43815000D03*
X168910000Y-43815000D03*
%TD*%
%TO.C,J5*%
X143510000Y-43815000D03*
X140970000Y-43815000D03*
X143510000Y-46355000D03*
X140970000Y-46355000D03*
X143510000Y-48895000D03*
X140970000Y-48895000D03*
X143510000Y-51435000D03*
X140970000Y-51435000D03*
X143510000Y-53975000D03*
X140970000Y-53975000D03*
X143510000Y-56515000D03*
X140970000Y-56515000D03*
X143510000Y-59055000D03*
X140970000Y-59055000D03*
X143510000Y-61595000D03*
X140970000Y-61595000D03*
X143510000Y-64135000D03*
X140970000Y-64135000D03*
X143510000Y-66675000D03*
X140970000Y-66675000D03*
X143510000Y-69215000D03*
X140970000Y-69215000D03*
X143510000Y-71755000D03*
X140970000Y-71755000D03*
X143510000Y-74295000D03*
X140970000Y-74295000D03*
X143510000Y-76835000D03*
X140970000Y-76835000D03*
X143510000Y-79375000D03*
X140970000Y-79375000D03*
X143510000Y-81915000D03*
X140970000Y-81915000D03*
X143510000Y-84455000D03*
X140970000Y-84455000D03*
X143510000Y-86995000D03*
X140970000Y-86995000D03*
X143510000Y-89535000D03*
X140970000Y-89535000D03*
X143510000Y-92075000D03*
X140970000Y-92075000D03*
X143510000Y-94615000D03*
X140970000Y-94615000D03*
X143510000Y-97155000D03*
X140970000Y-97155000D03*
X143510000Y-99695000D03*
X140970000Y-99695000D03*
X143510000Y-102235000D03*
X140970000Y-102235000D03*
X143510000Y-104775000D03*
X140970000Y-104775000D03*
X143510000Y-107315000D03*
X140970000Y-107315000D03*
X143510000Y-109855000D03*
X140970000Y-109855000D03*
X143510000Y-112395000D03*
X140970000Y-112395000D03*
X143510000Y-114935000D03*
X140970000Y-114935000D03*
X143510000Y-117475000D03*
X140970000Y-117475000D03*
X143510000Y-120015000D03*
X140970000Y-120015000D03*
X143510000Y-122555000D03*
X140970000Y-122555000D03*
X143510000Y-125095000D03*
X140970000Y-125095000D03*
X143510000Y-127635000D03*
X140970000Y-127635000D03*
X143510000Y-130175000D03*
X140970000Y-130175000D03*
X143510000Y-132715000D03*
X140970000Y-132715000D03*
X143510000Y-135255000D03*
X140970000Y-135255000D03*
X143510000Y-137795000D03*
X140970000Y-137795000D03*
X143510000Y-140335000D03*
X140970000Y-140335000D03*
X143510000Y-142875000D03*
D11*
X140970000Y-142875000D03*
%TD*%
M02*
