%TF.GenerationSoftware,KiCad,Pcbnew,(5.1.10-1-10_14)*%
%TF.CreationDate,2021-07-17T22:38:12-07:00*%
%TF.ProjectId,Backplane,4261636b-706c-4616-9e65-2e6b69636164,rev?*%
%TF.SameCoordinates,Original*%
%TF.FileFunction,Copper,L1,Top*%
%TF.FilePolarity,Positive*%
%FSLAX46Y46*%
G04 Gerber Fmt 4.6, Leading zero omitted, Abs format (unit mm)*
G04 Created by KiCad (PCBNEW (5.1.10-1-10_14)) date 2021-07-17 22:38:12*
%MOMM*%
%LPD*%
G01*
G04 APERTURE LIST*
%TA.AperFunction,ComponentPad*%
%ADD10O,1.700000X1.700000*%
%TD*%
%TA.AperFunction,ComponentPad*%
%ADD11R,1.700000X1.700000*%
%TD*%
%TA.AperFunction,Conductor*%
%ADD12C,0.250000*%
%TD*%
G04 APERTURE END LIST*
D10*
%TO.P,J3,80*%
%TO.N,/41*%
X194310000Y-43815000D03*
%TO.P,J3,79*%
%TO.N,/40*%
X191770000Y-43815000D03*
%TO.P,J3,78*%
%TO.N,/42*%
X194310000Y-46355000D03*
%TO.P,J3,77*%
%TO.N,/39*%
X191770000Y-46355000D03*
%TO.P,J3,76*%
%TO.N,/43*%
X194310000Y-48895000D03*
%TO.P,J3,75*%
%TO.N,/38*%
X191770000Y-48895000D03*
%TO.P,J3,74*%
%TO.N,/44*%
X194310000Y-51435000D03*
%TO.P,J3,73*%
%TO.N,/37*%
X191770000Y-51435000D03*
%TO.P,J3,72*%
%TO.N,/45*%
X194310000Y-53975000D03*
%TO.P,J3,71*%
%TO.N,/36*%
X191770000Y-53975000D03*
%TO.P,J3,70*%
%TO.N,/46*%
X194310000Y-56515000D03*
%TO.P,J3,69*%
%TO.N,/35*%
X191770000Y-56515000D03*
%TO.P,J3,68*%
%TO.N,/47*%
X194310000Y-59055000D03*
%TO.P,J3,67*%
%TO.N,/34*%
X191770000Y-59055000D03*
%TO.P,J3,66*%
%TO.N,/48*%
X194310000Y-61595000D03*
%TO.P,J3,65*%
%TO.N,/33*%
X191770000Y-61595000D03*
%TO.P,J3,64*%
%TO.N,/49*%
X194310000Y-64135000D03*
%TO.P,J3,63*%
%TO.N,/32*%
X191770000Y-64135000D03*
%TO.P,J3,62*%
%TO.N,/50*%
X194310000Y-66675000D03*
%TO.P,J3,61*%
%TO.N,/31*%
X191770000Y-66675000D03*
%TO.P,J3,60*%
%TO.N,/51*%
X194310000Y-69215000D03*
%TO.P,J3,59*%
%TO.N,/30*%
X191770000Y-69215000D03*
%TO.P,J3,58*%
%TO.N,/52*%
X194310000Y-71755000D03*
%TO.P,J3,57*%
%TO.N,/29*%
X191770000Y-71755000D03*
%TO.P,J3,56*%
%TO.N,/53*%
X194310000Y-74295000D03*
%TO.P,J3,55*%
%TO.N,/28*%
X191770000Y-74295000D03*
%TO.P,J3,54*%
%TO.N,/54*%
X194310000Y-76835000D03*
%TO.P,J3,53*%
%TO.N,/27*%
X191770000Y-76835000D03*
%TO.P,J3,52*%
%TO.N,/55*%
X194310000Y-79375000D03*
%TO.P,J3,51*%
%TO.N,/26*%
X191770000Y-79375000D03*
%TO.P,J3,50*%
%TO.N,/56*%
X194310000Y-81915000D03*
%TO.P,J3,49*%
%TO.N,/25*%
X191770000Y-81915000D03*
%TO.P,J3,48*%
%TO.N,/57*%
X194310000Y-84455000D03*
%TO.P,J3,47*%
%TO.N,/24*%
X191770000Y-84455000D03*
%TO.P,J3,46*%
%TO.N,/58*%
X194310000Y-86995000D03*
%TO.P,J3,45*%
%TO.N,/23*%
X191770000Y-86995000D03*
%TO.P,J3,44*%
%TO.N,/59*%
X194310000Y-89535000D03*
%TO.P,J3,43*%
%TO.N,/22*%
X191770000Y-89535000D03*
%TO.P,J3,42*%
%TO.N,/60*%
X194310000Y-92075000D03*
%TO.P,J3,41*%
%TO.N,/21*%
X191770000Y-92075000D03*
%TO.P,J3,40*%
%TO.N,/61*%
X194310000Y-94615000D03*
%TO.P,J3,39*%
%TO.N,/20*%
X191770000Y-94615000D03*
%TO.P,J3,38*%
%TO.N,/62*%
X194310000Y-97155000D03*
%TO.P,J3,37*%
%TO.N,/19*%
X191770000Y-97155000D03*
%TO.P,J3,36*%
%TO.N,/63*%
X194310000Y-99695000D03*
%TO.P,J3,35*%
%TO.N,/18*%
X191770000Y-99695000D03*
%TO.P,J3,34*%
%TO.N,/64*%
X194310000Y-102235000D03*
%TO.P,J3,33*%
%TO.N,/17*%
X191770000Y-102235000D03*
%TO.P,J3,32*%
%TO.N,/65*%
X194310000Y-104775000D03*
%TO.P,J3,31*%
%TO.N,/16*%
X191770000Y-104775000D03*
%TO.P,J3,30*%
%TO.N,/66*%
X194310000Y-107315000D03*
%TO.P,J3,29*%
%TO.N,/15*%
X191770000Y-107315000D03*
%TO.P,J3,28*%
%TO.N,/67*%
X194310000Y-109855000D03*
%TO.P,J3,27*%
%TO.N,/14*%
X191770000Y-109855000D03*
%TO.P,J3,26*%
%TO.N,/68*%
X194310000Y-112395000D03*
%TO.P,J3,25*%
%TO.N,/13*%
X191770000Y-112395000D03*
%TO.P,J3,24*%
%TO.N,/69*%
X194310000Y-114935000D03*
%TO.P,J3,23*%
%TO.N,/12*%
X191770000Y-114935000D03*
%TO.P,J3,22*%
%TO.N,/70*%
X194310000Y-117475000D03*
%TO.P,J3,21*%
%TO.N,/11*%
X191770000Y-117475000D03*
%TO.P,J3,20*%
%TO.N,/71*%
X194310000Y-120015000D03*
%TO.P,J3,19*%
%TO.N,/10*%
X191770000Y-120015000D03*
%TO.P,J3,18*%
%TO.N,/72*%
X194310000Y-122555000D03*
%TO.P,J3,17*%
%TO.N,/9*%
X191770000Y-122555000D03*
%TO.P,J3,16*%
%TO.N,/73*%
X194310000Y-125095000D03*
%TO.P,J3,15*%
%TO.N,/8*%
X191770000Y-125095000D03*
%TO.P,J3,14*%
%TO.N,/74*%
X194310000Y-127635000D03*
%TO.P,J3,13*%
%TO.N,/7*%
X191770000Y-127635000D03*
%TO.P,J3,12*%
%TO.N,/75*%
X194310000Y-130175000D03*
%TO.P,J3,11*%
%TO.N,/6*%
X191770000Y-130175000D03*
%TO.P,J3,10*%
%TO.N,/76*%
X194310000Y-132715000D03*
%TO.P,J3,9*%
%TO.N,/5*%
X191770000Y-132715000D03*
%TO.P,J3,8*%
%TO.N,/77*%
X194310000Y-135255000D03*
%TO.P,J3,7*%
%TO.N,/4*%
X191770000Y-135255000D03*
%TO.P,J3,6*%
%TO.N,/78*%
X194310000Y-137795000D03*
%TO.P,J3,5*%
%TO.N,/3*%
X191770000Y-137795000D03*
%TO.P,J3,4*%
%TO.N,/79*%
X194310000Y-140335000D03*
%TO.P,J3,3*%
%TO.N,/2*%
X191770000Y-140335000D03*
%TO.P,J3,2*%
%TO.N,/80*%
X194310000Y-142875000D03*
D11*
%TO.P,J3,1*%
%TO.N,/1*%
X191770000Y-142875000D03*
%TD*%
%TO.P,J1,1*%
%TO.N,/1*%
X223393000Y-142875000D03*
D10*
%TO.P,J1,2*%
%TO.N,/80*%
X225933000Y-142875000D03*
%TO.P,J1,3*%
%TO.N,/2*%
X223393000Y-140335000D03*
%TO.P,J1,4*%
%TO.N,/79*%
X225933000Y-140335000D03*
%TO.P,J1,5*%
%TO.N,/3*%
X223393000Y-137795000D03*
%TO.P,J1,6*%
%TO.N,/78*%
X225933000Y-137795000D03*
%TO.P,J1,7*%
%TO.N,/4*%
X223393000Y-135255000D03*
%TO.P,J1,8*%
%TO.N,/77*%
X225933000Y-135255000D03*
%TO.P,J1,9*%
%TO.N,/5*%
X223393000Y-132715000D03*
%TO.P,J1,10*%
%TO.N,/76*%
X225933000Y-132715000D03*
%TO.P,J1,11*%
%TO.N,/6*%
X223393000Y-130175000D03*
%TO.P,J1,12*%
%TO.N,/75*%
X225933000Y-130175000D03*
%TO.P,J1,13*%
%TO.N,/7*%
X223393000Y-127635000D03*
%TO.P,J1,14*%
%TO.N,/74*%
X225933000Y-127635000D03*
%TO.P,J1,15*%
%TO.N,/8*%
X223393000Y-125095000D03*
%TO.P,J1,16*%
%TO.N,/73*%
X225933000Y-125095000D03*
%TO.P,J1,17*%
%TO.N,/9*%
X223393000Y-122555000D03*
%TO.P,J1,18*%
%TO.N,/72*%
X225933000Y-122555000D03*
%TO.P,J1,19*%
%TO.N,/10*%
X223393000Y-120015000D03*
%TO.P,J1,20*%
%TO.N,/71*%
X225933000Y-120015000D03*
%TO.P,J1,21*%
%TO.N,/11*%
X223393000Y-117475000D03*
%TO.P,J1,22*%
%TO.N,/70*%
X225933000Y-117475000D03*
%TO.P,J1,23*%
%TO.N,/12*%
X223393000Y-114935000D03*
%TO.P,J1,24*%
%TO.N,/69*%
X225933000Y-114935000D03*
%TO.P,J1,25*%
%TO.N,/13*%
X223393000Y-112395000D03*
%TO.P,J1,26*%
%TO.N,/68*%
X225933000Y-112395000D03*
%TO.P,J1,27*%
%TO.N,/14*%
X223393000Y-109855000D03*
%TO.P,J1,28*%
%TO.N,/67*%
X225933000Y-109855000D03*
%TO.P,J1,29*%
%TO.N,/15*%
X223393000Y-107315000D03*
%TO.P,J1,30*%
%TO.N,/66*%
X225933000Y-107315000D03*
%TO.P,J1,31*%
%TO.N,/16*%
X223393000Y-104775000D03*
%TO.P,J1,32*%
%TO.N,/65*%
X225933000Y-104775000D03*
%TO.P,J1,33*%
%TO.N,/17*%
X223393000Y-102235000D03*
%TO.P,J1,34*%
%TO.N,/64*%
X225933000Y-102235000D03*
%TO.P,J1,35*%
%TO.N,/18*%
X223393000Y-99695000D03*
%TO.P,J1,36*%
%TO.N,/63*%
X225933000Y-99695000D03*
%TO.P,J1,37*%
%TO.N,/19*%
X223393000Y-97155000D03*
%TO.P,J1,38*%
%TO.N,/62*%
X225933000Y-97155000D03*
%TO.P,J1,39*%
%TO.N,/20*%
X223393000Y-94615000D03*
%TO.P,J1,40*%
%TO.N,/61*%
X225933000Y-94615000D03*
%TO.P,J1,41*%
%TO.N,/21*%
X223393000Y-92075000D03*
%TO.P,J1,42*%
%TO.N,/60*%
X225933000Y-92075000D03*
%TO.P,J1,43*%
%TO.N,/22*%
X223393000Y-89535000D03*
%TO.P,J1,44*%
%TO.N,/59*%
X225933000Y-89535000D03*
%TO.P,J1,45*%
%TO.N,/23*%
X223393000Y-86995000D03*
%TO.P,J1,46*%
%TO.N,/58*%
X225933000Y-86995000D03*
%TO.P,J1,47*%
%TO.N,/24*%
X223393000Y-84455000D03*
%TO.P,J1,48*%
%TO.N,/57*%
X225933000Y-84455000D03*
%TO.P,J1,49*%
%TO.N,/25*%
X223393000Y-81915000D03*
%TO.P,J1,50*%
%TO.N,/56*%
X225933000Y-81915000D03*
%TO.P,J1,51*%
%TO.N,/26*%
X223393000Y-79375000D03*
%TO.P,J1,52*%
%TO.N,/55*%
X225933000Y-79375000D03*
%TO.P,J1,53*%
%TO.N,/27*%
X223393000Y-76835000D03*
%TO.P,J1,54*%
%TO.N,/54*%
X225933000Y-76835000D03*
%TO.P,J1,55*%
%TO.N,/28*%
X223393000Y-74295000D03*
%TO.P,J1,56*%
%TO.N,/53*%
X225933000Y-74295000D03*
%TO.P,J1,57*%
%TO.N,/29*%
X223393000Y-71755000D03*
%TO.P,J1,58*%
%TO.N,/52*%
X225933000Y-71755000D03*
%TO.P,J1,59*%
%TO.N,/30*%
X223393000Y-69215000D03*
%TO.P,J1,60*%
%TO.N,/51*%
X225933000Y-69215000D03*
%TO.P,J1,61*%
%TO.N,/31*%
X223393000Y-66675000D03*
%TO.P,J1,62*%
%TO.N,/50*%
X225933000Y-66675000D03*
%TO.P,J1,63*%
%TO.N,/32*%
X223393000Y-64135000D03*
%TO.P,J1,64*%
%TO.N,/49*%
X225933000Y-64135000D03*
%TO.P,J1,65*%
%TO.N,/33*%
X223393000Y-61595000D03*
%TO.P,J1,66*%
%TO.N,/48*%
X225933000Y-61595000D03*
%TO.P,J1,67*%
%TO.N,/34*%
X223393000Y-59055000D03*
%TO.P,J1,68*%
%TO.N,/47*%
X225933000Y-59055000D03*
%TO.P,J1,69*%
%TO.N,/35*%
X223393000Y-56515000D03*
%TO.P,J1,70*%
%TO.N,/46*%
X225933000Y-56515000D03*
%TO.P,J1,71*%
%TO.N,/36*%
X223393000Y-53975000D03*
%TO.P,J1,72*%
%TO.N,/45*%
X225933000Y-53975000D03*
%TO.P,J1,73*%
%TO.N,/37*%
X223393000Y-51435000D03*
%TO.P,J1,74*%
%TO.N,/44*%
X225933000Y-51435000D03*
%TO.P,J1,75*%
%TO.N,/38*%
X223393000Y-48895000D03*
%TO.P,J1,76*%
%TO.N,/43*%
X225933000Y-48895000D03*
%TO.P,J1,77*%
%TO.N,/39*%
X223393000Y-46355000D03*
%TO.P,J1,78*%
%TO.N,/42*%
X225933000Y-46355000D03*
%TO.P,J1,79*%
%TO.N,/40*%
X223393000Y-43815000D03*
%TO.P,J1,80*%
%TO.N,/41*%
X225933000Y-43815000D03*
%TD*%
%TO.P,J7,80*%
%TO.N,/41*%
X92710000Y-43815000D03*
%TO.P,J7,79*%
%TO.N,/40*%
X90170000Y-43815000D03*
%TO.P,J7,78*%
%TO.N,/42*%
X92710000Y-46355000D03*
%TO.P,J7,77*%
%TO.N,/39*%
X90170000Y-46355000D03*
%TO.P,J7,76*%
%TO.N,/43*%
X92710000Y-48895000D03*
%TO.P,J7,75*%
%TO.N,/38*%
X90170000Y-48895000D03*
%TO.P,J7,74*%
%TO.N,/44*%
X92710000Y-51435000D03*
%TO.P,J7,73*%
%TO.N,/37*%
X90170000Y-51435000D03*
%TO.P,J7,72*%
%TO.N,/45*%
X92710000Y-53975000D03*
%TO.P,J7,71*%
%TO.N,/36*%
X90170000Y-53975000D03*
%TO.P,J7,70*%
%TO.N,/46*%
X92710000Y-56515000D03*
%TO.P,J7,69*%
%TO.N,/35*%
X90170000Y-56515000D03*
%TO.P,J7,68*%
%TO.N,/47*%
X92710000Y-59055000D03*
%TO.P,J7,67*%
%TO.N,/34*%
X90170000Y-59055000D03*
%TO.P,J7,66*%
%TO.N,/48*%
X92710000Y-61595000D03*
%TO.P,J7,65*%
%TO.N,/33*%
X90170000Y-61595000D03*
%TO.P,J7,64*%
%TO.N,/49*%
X92710000Y-64135000D03*
%TO.P,J7,63*%
%TO.N,/32*%
X90170000Y-64135000D03*
%TO.P,J7,62*%
%TO.N,/50*%
X92710000Y-66675000D03*
%TO.P,J7,61*%
%TO.N,/31*%
X90170000Y-66675000D03*
%TO.P,J7,60*%
%TO.N,/51*%
X92710000Y-69215000D03*
%TO.P,J7,59*%
%TO.N,/30*%
X90170000Y-69215000D03*
%TO.P,J7,58*%
%TO.N,/52*%
X92710000Y-71755000D03*
%TO.P,J7,57*%
%TO.N,/29*%
X90170000Y-71755000D03*
%TO.P,J7,56*%
%TO.N,/53*%
X92710000Y-74295000D03*
%TO.P,J7,55*%
%TO.N,/28*%
X90170000Y-74295000D03*
%TO.P,J7,54*%
%TO.N,/54*%
X92710000Y-76835000D03*
%TO.P,J7,53*%
%TO.N,/27*%
X90170000Y-76835000D03*
%TO.P,J7,52*%
%TO.N,/55*%
X92710000Y-79375000D03*
%TO.P,J7,51*%
%TO.N,/26*%
X90170000Y-79375000D03*
%TO.P,J7,50*%
%TO.N,/56*%
X92710000Y-81915000D03*
%TO.P,J7,49*%
%TO.N,/25*%
X90170000Y-81915000D03*
%TO.P,J7,48*%
%TO.N,/57*%
X92710000Y-84455000D03*
%TO.P,J7,47*%
%TO.N,/24*%
X90170000Y-84455000D03*
%TO.P,J7,46*%
%TO.N,/58*%
X92710000Y-86995000D03*
%TO.P,J7,45*%
%TO.N,/23*%
X90170000Y-86995000D03*
%TO.P,J7,44*%
%TO.N,/59*%
X92710000Y-89535000D03*
%TO.P,J7,43*%
%TO.N,/22*%
X90170000Y-89535000D03*
%TO.P,J7,42*%
%TO.N,/60*%
X92710000Y-92075000D03*
%TO.P,J7,41*%
%TO.N,/21*%
X90170000Y-92075000D03*
%TO.P,J7,40*%
%TO.N,/61*%
X92710000Y-94615000D03*
%TO.P,J7,39*%
%TO.N,/20*%
X90170000Y-94615000D03*
%TO.P,J7,38*%
%TO.N,/62*%
X92710000Y-97155000D03*
%TO.P,J7,37*%
%TO.N,/19*%
X90170000Y-97155000D03*
%TO.P,J7,36*%
%TO.N,/63*%
X92710000Y-99695000D03*
%TO.P,J7,35*%
%TO.N,/18*%
X90170000Y-99695000D03*
%TO.P,J7,34*%
%TO.N,/64*%
X92710000Y-102235000D03*
%TO.P,J7,33*%
%TO.N,/17*%
X90170000Y-102235000D03*
%TO.P,J7,32*%
%TO.N,/65*%
X92710000Y-104775000D03*
%TO.P,J7,31*%
%TO.N,/16*%
X90170000Y-104775000D03*
%TO.P,J7,30*%
%TO.N,/66*%
X92710000Y-107315000D03*
%TO.P,J7,29*%
%TO.N,/15*%
X90170000Y-107315000D03*
%TO.P,J7,28*%
%TO.N,/67*%
X92710000Y-109855000D03*
%TO.P,J7,27*%
%TO.N,/14*%
X90170000Y-109855000D03*
%TO.P,J7,26*%
%TO.N,/68*%
X92710000Y-112395000D03*
%TO.P,J7,25*%
%TO.N,/13*%
X90170000Y-112395000D03*
%TO.P,J7,24*%
%TO.N,/69*%
X92710000Y-114935000D03*
%TO.P,J7,23*%
%TO.N,/12*%
X90170000Y-114935000D03*
%TO.P,J7,22*%
%TO.N,/70*%
X92710000Y-117475000D03*
%TO.P,J7,21*%
%TO.N,/11*%
X90170000Y-117475000D03*
%TO.P,J7,20*%
%TO.N,/71*%
X92710000Y-120015000D03*
%TO.P,J7,19*%
%TO.N,/10*%
X90170000Y-120015000D03*
%TO.P,J7,18*%
%TO.N,/72*%
X92710000Y-122555000D03*
%TO.P,J7,17*%
%TO.N,/9*%
X90170000Y-122555000D03*
%TO.P,J7,16*%
%TO.N,/73*%
X92710000Y-125095000D03*
%TO.P,J7,15*%
%TO.N,/8*%
X90170000Y-125095000D03*
%TO.P,J7,14*%
%TO.N,/74*%
X92710000Y-127635000D03*
%TO.P,J7,13*%
%TO.N,/7*%
X90170000Y-127635000D03*
%TO.P,J7,12*%
%TO.N,/75*%
X92710000Y-130175000D03*
%TO.P,J7,11*%
%TO.N,/6*%
X90170000Y-130175000D03*
%TO.P,J7,10*%
%TO.N,/76*%
X92710000Y-132715000D03*
%TO.P,J7,9*%
%TO.N,/5*%
X90170000Y-132715000D03*
%TO.P,J7,8*%
%TO.N,/77*%
X92710000Y-135255000D03*
%TO.P,J7,7*%
%TO.N,/4*%
X90170000Y-135255000D03*
%TO.P,J7,6*%
%TO.N,/78*%
X92710000Y-137795000D03*
%TO.P,J7,5*%
%TO.N,/3*%
X90170000Y-137795000D03*
%TO.P,J7,4*%
%TO.N,/79*%
X92710000Y-140335000D03*
%TO.P,J7,3*%
%TO.N,/2*%
X90170000Y-140335000D03*
%TO.P,J7,2*%
%TO.N,/80*%
X92710000Y-142875000D03*
D11*
%TO.P,J7,1*%
%TO.N,/1*%
X90170000Y-142875000D03*
%TD*%
D10*
%TO.P,J8,80*%
%TO.N,/41*%
X81407000Y-43815000D03*
%TO.P,J8,79*%
%TO.N,/40*%
X83947000Y-43815000D03*
%TO.P,J8,78*%
%TO.N,/42*%
X81407000Y-46355000D03*
%TO.P,J8,77*%
%TO.N,/39*%
X83947000Y-46355000D03*
%TO.P,J8,76*%
%TO.N,/43*%
X81407000Y-48895000D03*
%TO.P,J8,75*%
%TO.N,/38*%
X83947000Y-48895000D03*
%TO.P,J8,74*%
%TO.N,/44*%
X81407000Y-51435000D03*
%TO.P,J8,73*%
%TO.N,/37*%
X83947000Y-51435000D03*
%TO.P,J8,72*%
%TO.N,/45*%
X81407000Y-53975000D03*
%TO.P,J8,71*%
%TO.N,/36*%
X83947000Y-53975000D03*
%TO.P,J8,70*%
%TO.N,/46*%
X81407000Y-56515000D03*
%TO.P,J8,69*%
%TO.N,/35*%
X83947000Y-56515000D03*
%TO.P,J8,68*%
%TO.N,/47*%
X81407000Y-59055000D03*
%TO.P,J8,67*%
%TO.N,/34*%
X83947000Y-59055000D03*
%TO.P,J8,66*%
%TO.N,/48*%
X81407000Y-61595000D03*
%TO.P,J8,65*%
%TO.N,/33*%
X83947000Y-61595000D03*
%TO.P,J8,64*%
%TO.N,/49*%
X81407000Y-64135000D03*
%TO.P,J8,63*%
%TO.N,/32*%
X83947000Y-64135000D03*
%TO.P,J8,62*%
%TO.N,/50*%
X81407000Y-66675000D03*
%TO.P,J8,61*%
%TO.N,/31*%
X83947000Y-66675000D03*
%TO.P,J8,60*%
%TO.N,/51*%
X81407000Y-69215000D03*
%TO.P,J8,59*%
%TO.N,/30*%
X83947000Y-69215000D03*
%TO.P,J8,58*%
%TO.N,/52*%
X81407000Y-71755000D03*
%TO.P,J8,57*%
%TO.N,/29*%
X83947000Y-71755000D03*
%TO.P,J8,56*%
%TO.N,/53*%
X81407000Y-74295000D03*
%TO.P,J8,55*%
%TO.N,/28*%
X83947000Y-74295000D03*
%TO.P,J8,54*%
%TO.N,/54*%
X81407000Y-76835000D03*
%TO.P,J8,53*%
%TO.N,/27*%
X83947000Y-76835000D03*
%TO.P,J8,52*%
%TO.N,/55*%
X81407000Y-79375000D03*
%TO.P,J8,51*%
%TO.N,/26*%
X83947000Y-79375000D03*
%TO.P,J8,50*%
%TO.N,/56*%
X81407000Y-81915000D03*
%TO.P,J8,49*%
%TO.N,/25*%
X83947000Y-81915000D03*
%TO.P,J8,48*%
%TO.N,/57*%
X81407000Y-84455000D03*
%TO.P,J8,47*%
%TO.N,/24*%
X83947000Y-84455000D03*
%TO.P,J8,46*%
%TO.N,/58*%
X81407000Y-86995000D03*
%TO.P,J8,45*%
%TO.N,/23*%
X83947000Y-86995000D03*
%TO.P,J8,44*%
%TO.N,/59*%
X81407000Y-89535000D03*
%TO.P,J8,43*%
%TO.N,/22*%
X83947000Y-89535000D03*
%TO.P,J8,42*%
%TO.N,/60*%
X81407000Y-92075000D03*
%TO.P,J8,41*%
%TO.N,/21*%
X83947000Y-92075000D03*
%TO.P,J8,40*%
%TO.N,/61*%
X81407000Y-94615000D03*
%TO.P,J8,39*%
%TO.N,/20*%
X83947000Y-94615000D03*
%TO.P,J8,38*%
%TO.N,/62*%
X81407000Y-97155000D03*
%TO.P,J8,37*%
%TO.N,/19*%
X83947000Y-97155000D03*
%TO.P,J8,36*%
%TO.N,/63*%
X81407000Y-99695000D03*
%TO.P,J8,35*%
%TO.N,/18*%
X83947000Y-99695000D03*
%TO.P,J8,34*%
%TO.N,/64*%
X81407000Y-102235000D03*
%TO.P,J8,33*%
%TO.N,/17*%
X83947000Y-102235000D03*
%TO.P,J8,32*%
%TO.N,/65*%
X81407000Y-104775000D03*
%TO.P,J8,31*%
%TO.N,/16*%
X83947000Y-104775000D03*
%TO.P,J8,30*%
%TO.N,/66*%
X81407000Y-107315000D03*
%TO.P,J8,29*%
%TO.N,/15*%
X83947000Y-107315000D03*
%TO.P,J8,28*%
%TO.N,/67*%
X81407000Y-109855000D03*
%TO.P,J8,27*%
%TO.N,/14*%
X83947000Y-109855000D03*
%TO.P,J8,26*%
%TO.N,/68*%
X81407000Y-112395000D03*
%TO.P,J8,25*%
%TO.N,/13*%
X83947000Y-112395000D03*
%TO.P,J8,24*%
%TO.N,/69*%
X81407000Y-114935000D03*
%TO.P,J8,23*%
%TO.N,/12*%
X83947000Y-114935000D03*
%TO.P,J8,22*%
%TO.N,/70*%
X81407000Y-117475000D03*
%TO.P,J8,21*%
%TO.N,/11*%
X83947000Y-117475000D03*
%TO.P,J8,20*%
%TO.N,/71*%
X81407000Y-120015000D03*
%TO.P,J8,19*%
%TO.N,/10*%
X83947000Y-120015000D03*
%TO.P,J8,18*%
%TO.N,/72*%
X81407000Y-122555000D03*
%TO.P,J8,17*%
%TO.N,/9*%
X83947000Y-122555000D03*
%TO.P,J8,16*%
%TO.N,/73*%
X81407000Y-125095000D03*
%TO.P,J8,15*%
%TO.N,/8*%
X83947000Y-125095000D03*
%TO.P,J8,14*%
%TO.N,/74*%
X81407000Y-127635000D03*
%TO.P,J8,13*%
%TO.N,/7*%
X83947000Y-127635000D03*
%TO.P,J8,12*%
%TO.N,/75*%
X81407000Y-130175000D03*
%TO.P,J8,11*%
%TO.N,/6*%
X83947000Y-130175000D03*
%TO.P,J8,10*%
%TO.N,/76*%
X81407000Y-132715000D03*
%TO.P,J8,9*%
%TO.N,/5*%
X83947000Y-132715000D03*
%TO.P,J8,8*%
%TO.N,/77*%
X81407000Y-135255000D03*
%TO.P,J8,7*%
%TO.N,/4*%
X83947000Y-135255000D03*
%TO.P,J8,6*%
%TO.N,/78*%
X81407000Y-137795000D03*
%TO.P,J8,5*%
%TO.N,/3*%
X83947000Y-137795000D03*
%TO.P,J8,4*%
%TO.N,/79*%
X81407000Y-140335000D03*
%TO.P,J8,3*%
%TO.N,/2*%
X83947000Y-140335000D03*
%TO.P,J8,2*%
%TO.N,/80*%
X81407000Y-142875000D03*
D11*
%TO.P,J8,1*%
%TO.N,/1*%
X83947000Y-142875000D03*
%TD*%
%TO.P,J6,1*%
%TO.N,/1*%
X115570000Y-142875000D03*
D10*
%TO.P,J6,2*%
%TO.N,/80*%
X118110000Y-142875000D03*
%TO.P,J6,3*%
%TO.N,/2*%
X115570000Y-140335000D03*
%TO.P,J6,4*%
%TO.N,/79*%
X118110000Y-140335000D03*
%TO.P,J6,5*%
%TO.N,/3*%
X115570000Y-137795000D03*
%TO.P,J6,6*%
%TO.N,/78*%
X118110000Y-137795000D03*
%TO.P,J6,7*%
%TO.N,/4*%
X115570000Y-135255000D03*
%TO.P,J6,8*%
%TO.N,/77*%
X118110000Y-135255000D03*
%TO.P,J6,9*%
%TO.N,/5*%
X115570000Y-132715000D03*
%TO.P,J6,10*%
%TO.N,/76*%
X118110000Y-132715000D03*
%TO.P,J6,11*%
%TO.N,/6*%
X115570000Y-130175000D03*
%TO.P,J6,12*%
%TO.N,/75*%
X118110000Y-130175000D03*
%TO.P,J6,13*%
%TO.N,/7*%
X115570000Y-127635000D03*
%TO.P,J6,14*%
%TO.N,/74*%
X118110000Y-127635000D03*
%TO.P,J6,15*%
%TO.N,/8*%
X115570000Y-125095000D03*
%TO.P,J6,16*%
%TO.N,/73*%
X118110000Y-125095000D03*
%TO.P,J6,17*%
%TO.N,/9*%
X115570000Y-122555000D03*
%TO.P,J6,18*%
%TO.N,/72*%
X118110000Y-122555000D03*
%TO.P,J6,19*%
%TO.N,/10*%
X115570000Y-120015000D03*
%TO.P,J6,20*%
%TO.N,/71*%
X118110000Y-120015000D03*
%TO.P,J6,21*%
%TO.N,/11*%
X115570000Y-117475000D03*
%TO.P,J6,22*%
%TO.N,/70*%
X118110000Y-117475000D03*
%TO.P,J6,23*%
%TO.N,/12*%
X115570000Y-114935000D03*
%TO.P,J6,24*%
%TO.N,/69*%
X118110000Y-114935000D03*
%TO.P,J6,25*%
%TO.N,/13*%
X115570000Y-112395000D03*
%TO.P,J6,26*%
%TO.N,/68*%
X118110000Y-112395000D03*
%TO.P,J6,27*%
%TO.N,/14*%
X115570000Y-109855000D03*
%TO.P,J6,28*%
%TO.N,/67*%
X118110000Y-109855000D03*
%TO.P,J6,29*%
%TO.N,/15*%
X115570000Y-107315000D03*
%TO.P,J6,30*%
%TO.N,/66*%
X118110000Y-107315000D03*
%TO.P,J6,31*%
%TO.N,/16*%
X115570000Y-104775000D03*
%TO.P,J6,32*%
%TO.N,/65*%
X118110000Y-104775000D03*
%TO.P,J6,33*%
%TO.N,/17*%
X115570000Y-102235000D03*
%TO.P,J6,34*%
%TO.N,/64*%
X118110000Y-102235000D03*
%TO.P,J6,35*%
%TO.N,/18*%
X115570000Y-99695000D03*
%TO.P,J6,36*%
%TO.N,/63*%
X118110000Y-99695000D03*
%TO.P,J6,37*%
%TO.N,/19*%
X115570000Y-97155000D03*
%TO.P,J6,38*%
%TO.N,/62*%
X118110000Y-97155000D03*
%TO.P,J6,39*%
%TO.N,/20*%
X115570000Y-94615000D03*
%TO.P,J6,40*%
%TO.N,/61*%
X118110000Y-94615000D03*
%TO.P,J6,41*%
%TO.N,/21*%
X115570000Y-92075000D03*
%TO.P,J6,42*%
%TO.N,/60*%
X118110000Y-92075000D03*
%TO.P,J6,43*%
%TO.N,/22*%
X115570000Y-89535000D03*
%TO.P,J6,44*%
%TO.N,/59*%
X118110000Y-89535000D03*
%TO.P,J6,45*%
%TO.N,/23*%
X115570000Y-86995000D03*
%TO.P,J6,46*%
%TO.N,/58*%
X118110000Y-86995000D03*
%TO.P,J6,47*%
%TO.N,/24*%
X115570000Y-84455000D03*
%TO.P,J6,48*%
%TO.N,/57*%
X118110000Y-84455000D03*
%TO.P,J6,49*%
%TO.N,/25*%
X115570000Y-81915000D03*
%TO.P,J6,50*%
%TO.N,/56*%
X118110000Y-81915000D03*
%TO.P,J6,51*%
%TO.N,/26*%
X115570000Y-79375000D03*
%TO.P,J6,52*%
%TO.N,/55*%
X118110000Y-79375000D03*
%TO.P,J6,53*%
%TO.N,/27*%
X115570000Y-76835000D03*
%TO.P,J6,54*%
%TO.N,/54*%
X118110000Y-76835000D03*
%TO.P,J6,55*%
%TO.N,/28*%
X115570000Y-74295000D03*
%TO.P,J6,56*%
%TO.N,/53*%
X118110000Y-74295000D03*
%TO.P,J6,57*%
%TO.N,/29*%
X115570000Y-71755000D03*
%TO.P,J6,58*%
%TO.N,/52*%
X118110000Y-71755000D03*
%TO.P,J6,59*%
%TO.N,/30*%
X115570000Y-69215000D03*
%TO.P,J6,60*%
%TO.N,/51*%
X118110000Y-69215000D03*
%TO.P,J6,61*%
%TO.N,/31*%
X115570000Y-66675000D03*
%TO.P,J6,62*%
%TO.N,/50*%
X118110000Y-66675000D03*
%TO.P,J6,63*%
%TO.N,/32*%
X115570000Y-64135000D03*
%TO.P,J6,64*%
%TO.N,/49*%
X118110000Y-64135000D03*
%TO.P,J6,65*%
%TO.N,/33*%
X115570000Y-61595000D03*
%TO.P,J6,66*%
%TO.N,/48*%
X118110000Y-61595000D03*
%TO.P,J6,67*%
%TO.N,/34*%
X115570000Y-59055000D03*
%TO.P,J6,68*%
%TO.N,/47*%
X118110000Y-59055000D03*
%TO.P,J6,69*%
%TO.N,/35*%
X115570000Y-56515000D03*
%TO.P,J6,70*%
%TO.N,/46*%
X118110000Y-56515000D03*
%TO.P,J6,71*%
%TO.N,/36*%
X115570000Y-53975000D03*
%TO.P,J6,72*%
%TO.N,/45*%
X118110000Y-53975000D03*
%TO.P,J6,73*%
%TO.N,/37*%
X115570000Y-51435000D03*
%TO.P,J6,74*%
%TO.N,/44*%
X118110000Y-51435000D03*
%TO.P,J6,75*%
%TO.N,/38*%
X115570000Y-48895000D03*
%TO.P,J6,76*%
%TO.N,/43*%
X118110000Y-48895000D03*
%TO.P,J6,77*%
%TO.N,/39*%
X115570000Y-46355000D03*
%TO.P,J6,78*%
%TO.N,/42*%
X118110000Y-46355000D03*
%TO.P,J6,79*%
%TO.N,/40*%
X115570000Y-43815000D03*
%TO.P,J6,80*%
%TO.N,/41*%
X118110000Y-43815000D03*
%TD*%
D11*
%TO.P,J2,1*%
%TO.N,/1*%
X217170000Y-142875000D03*
D10*
%TO.P,J2,2*%
%TO.N,/80*%
X219710000Y-142875000D03*
%TO.P,J2,3*%
%TO.N,/2*%
X217170000Y-140335000D03*
%TO.P,J2,4*%
%TO.N,/79*%
X219710000Y-140335000D03*
%TO.P,J2,5*%
%TO.N,/3*%
X217170000Y-137795000D03*
%TO.P,J2,6*%
%TO.N,/78*%
X219710000Y-137795000D03*
%TO.P,J2,7*%
%TO.N,/4*%
X217170000Y-135255000D03*
%TO.P,J2,8*%
%TO.N,/77*%
X219710000Y-135255000D03*
%TO.P,J2,9*%
%TO.N,/5*%
X217170000Y-132715000D03*
%TO.P,J2,10*%
%TO.N,/76*%
X219710000Y-132715000D03*
%TO.P,J2,11*%
%TO.N,/6*%
X217170000Y-130175000D03*
%TO.P,J2,12*%
%TO.N,/75*%
X219710000Y-130175000D03*
%TO.P,J2,13*%
%TO.N,/7*%
X217170000Y-127635000D03*
%TO.P,J2,14*%
%TO.N,/74*%
X219710000Y-127635000D03*
%TO.P,J2,15*%
%TO.N,/8*%
X217170000Y-125095000D03*
%TO.P,J2,16*%
%TO.N,/73*%
X219710000Y-125095000D03*
%TO.P,J2,17*%
%TO.N,/9*%
X217170000Y-122555000D03*
%TO.P,J2,18*%
%TO.N,/72*%
X219710000Y-122555000D03*
%TO.P,J2,19*%
%TO.N,/10*%
X217170000Y-120015000D03*
%TO.P,J2,20*%
%TO.N,/71*%
X219710000Y-120015000D03*
%TO.P,J2,21*%
%TO.N,/11*%
X217170000Y-117475000D03*
%TO.P,J2,22*%
%TO.N,/70*%
X219710000Y-117475000D03*
%TO.P,J2,23*%
%TO.N,/12*%
X217170000Y-114935000D03*
%TO.P,J2,24*%
%TO.N,/69*%
X219710000Y-114935000D03*
%TO.P,J2,25*%
%TO.N,/13*%
X217170000Y-112395000D03*
%TO.P,J2,26*%
%TO.N,/68*%
X219710000Y-112395000D03*
%TO.P,J2,27*%
%TO.N,/14*%
X217170000Y-109855000D03*
%TO.P,J2,28*%
%TO.N,/67*%
X219710000Y-109855000D03*
%TO.P,J2,29*%
%TO.N,/15*%
X217170000Y-107315000D03*
%TO.P,J2,30*%
%TO.N,/66*%
X219710000Y-107315000D03*
%TO.P,J2,31*%
%TO.N,/16*%
X217170000Y-104775000D03*
%TO.P,J2,32*%
%TO.N,/65*%
X219710000Y-104775000D03*
%TO.P,J2,33*%
%TO.N,/17*%
X217170000Y-102235000D03*
%TO.P,J2,34*%
%TO.N,/64*%
X219710000Y-102235000D03*
%TO.P,J2,35*%
%TO.N,/18*%
X217170000Y-99695000D03*
%TO.P,J2,36*%
%TO.N,/63*%
X219710000Y-99695000D03*
%TO.P,J2,37*%
%TO.N,/19*%
X217170000Y-97155000D03*
%TO.P,J2,38*%
%TO.N,/62*%
X219710000Y-97155000D03*
%TO.P,J2,39*%
%TO.N,/20*%
X217170000Y-94615000D03*
%TO.P,J2,40*%
%TO.N,/61*%
X219710000Y-94615000D03*
%TO.P,J2,41*%
%TO.N,/21*%
X217170000Y-92075000D03*
%TO.P,J2,42*%
%TO.N,/60*%
X219710000Y-92075000D03*
%TO.P,J2,43*%
%TO.N,/22*%
X217170000Y-89535000D03*
%TO.P,J2,44*%
%TO.N,/59*%
X219710000Y-89535000D03*
%TO.P,J2,45*%
%TO.N,/23*%
X217170000Y-86995000D03*
%TO.P,J2,46*%
%TO.N,/58*%
X219710000Y-86995000D03*
%TO.P,J2,47*%
%TO.N,/24*%
X217170000Y-84455000D03*
%TO.P,J2,48*%
%TO.N,/57*%
X219710000Y-84455000D03*
%TO.P,J2,49*%
%TO.N,/25*%
X217170000Y-81915000D03*
%TO.P,J2,50*%
%TO.N,/56*%
X219710000Y-81915000D03*
%TO.P,J2,51*%
%TO.N,/26*%
X217170000Y-79375000D03*
%TO.P,J2,52*%
%TO.N,/55*%
X219710000Y-79375000D03*
%TO.P,J2,53*%
%TO.N,/27*%
X217170000Y-76835000D03*
%TO.P,J2,54*%
%TO.N,/54*%
X219710000Y-76835000D03*
%TO.P,J2,55*%
%TO.N,/28*%
X217170000Y-74295000D03*
%TO.P,J2,56*%
%TO.N,/53*%
X219710000Y-74295000D03*
%TO.P,J2,57*%
%TO.N,/29*%
X217170000Y-71755000D03*
%TO.P,J2,58*%
%TO.N,/52*%
X219710000Y-71755000D03*
%TO.P,J2,59*%
%TO.N,/30*%
X217170000Y-69215000D03*
%TO.P,J2,60*%
%TO.N,/51*%
X219710000Y-69215000D03*
%TO.P,J2,61*%
%TO.N,/31*%
X217170000Y-66675000D03*
%TO.P,J2,62*%
%TO.N,/50*%
X219710000Y-66675000D03*
%TO.P,J2,63*%
%TO.N,/32*%
X217170000Y-64135000D03*
%TO.P,J2,64*%
%TO.N,/49*%
X219710000Y-64135000D03*
%TO.P,J2,65*%
%TO.N,/33*%
X217170000Y-61595000D03*
%TO.P,J2,66*%
%TO.N,/48*%
X219710000Y-61595000D03*
%TO.P,J2,67*%
%TO.N,/34*%
X217170000Y-59055000D03*
%TO.P,J2,68*%
%TO.N,/47*%
X219710000Y-59055000D03*
%TO.P,J2,69*%
%TO.N,/35*%
X217170000Y-56515000D03*
%TO.P,J2,70*%
%TO.N,/46*%
X219710000Y-56515000D03*
%TO.P,J2,71*%
%TO.N,/36*%
X217170000Y-53975000D03*
%TO.P,J2,72*%
%TO.N,/45*%
X219710000Y-53975000D03*
%TO.P,J2,73*%
%TO.N,/37*%
X217170000Y-51435000D03*
%TO.P,J2,74*%
%TO.N,/44*%
X219710000Y-51435000D03*
%TO.P,J2,75*%
%TO.N,/38*%
X217170000Y-48895000D03*
%TO.P,J2,76*%
%TO.N,/43*%
X219710000Y-48895000D03*
%TO.P,J2,77*%
%TO.N,/39*%
X217170000Y-46355000D03*
%TO.P,J2,78*%
%TO.N,/42*%
X219710000Y-46355000D03*
%TO.P,J2,79*%
%TO.N,/40*%
X217170000Y-43815000D03*
%TO.P,J2,80*%
%TO.N,/41*%
X219710000Y-43815000D03*
%TD*%
D11*
%TO.P,J4,1*%
%TO.N,/1*%
X166370000Y-142875000D03*
D10*
%TO.P,J4,2*%
%TO.N,/80*%
X168910000Y-142875000D03*
%TO.P,J4,3*%
%TO.N,/2*%
X166370000Y-140335000D03*
%TO.P,J4,4*%
%TO.N,/79*%
X168910000Y-140335000D03*
%TO.P,J4,5*%
%TO.N,/3*%
X166370000Y-137795000D03*
%TO.P,J4,6*%
%TO.N,/78*%
X168910000Y-137795000D03*
%TO.P,J4,7*%
%TO.N,/4*%
X166370000Y-135255000D03*
%TO.P,J4,8*%
%TO.N,/77*%
X168910000Y-135255000D03*
%TO.P,J4,9*%
%TO.N,/5*%
X166370000Y-132715000D03*
%TO.P,J4,10*%
%TO.N,/76*%
X168910000Y-132715000D03*
%TO.P,J4,11*%
%TO.N,/6*%
X166370000Y-130175000D03*
%TO.P,J4,12*%
%TO.N,/75*%
X168910000Y-130175000D03*
%TO.P,J4,13*%
%TO.N,/7*%
X166370000Y-127635000D03*
%TO.P,J4,14*%
%TO.N,/74*%
X168910000Y-127635000D03*
%TO.P,J4,15*%
%TO.N,/8*%
X166370000Y-125095000D03*
%TO.P,J4,16*%
%TO.N,/73*%
X168910000Y-125095000D03*
%TO.P,J4,17*%
%TO.N,/9*%
X166370000Y-122555000D03*
%TO.P,J4,18*%
%TO.N,/72*%
X168910000Y-122555000D03*
%TO.P,J4,19*%
%TO.N,/10*%
X166370000Y-120015000D03*
%TO.P,J4,20*%
%TO.N,/71*%
X168910000Y-120015000D03*
%TO.P,J4,21*%
%TO.N,/11*%
X166370000Y-117475000D03*
%TO.P,J4,22*%
%TO.N,/70*%
X168910000Y-117475000D03*
%TO.P,J4,23*%
%TO.N,/12*%
X166370000Y-114935000D03*
%TO.P,J4,24*%
%TO.N,/69*%
X168910000Y-114935000D03*
%TO.P,J4,25*%
%TO.N,/13*%
X166370000Y-112395000D03*
%TO.P,J4,26*%
%TO.N,/68*%
X168910000Y-112395000D03*
%TO.P,J4,27*%
%TO.N,/14*%
X166370000Y-109855000D03*
%TO.P,J4,28*%
%TO.N,/67*%
X168910000Y-109855000D03*
%TO.P,J4,29*%
%TO.N,/15*%
X166370000Y-107315000D03*
%TO.P,J4,30*%
%TO.N,/66*%
X168910000Y-107315000D03*
%TO.P,J4,31*%
%TO.N,/16*%
X166370000Y-104775000D03*
%TO.P,J4,32*%
%TO.N,/65*%
X168910000Y-104775000D03*
%TO.P,J4,33*%
%TO.N,/17*%
X166370000Y-102235000D03*
%TO.P,J4,34*%
%TO.N,/64*%
X168910000Y-102235000D03*
%TO.P,J4,35*%
%TO.N,/18*%
X166370000Y-99695000D03*
%TO.P,J4,36*%
%TO.N,/63*%
X168910000Y-99695000D03*
%TO.P,J4,37*%
%TO.N,/19*%
X166370000Y-97155000D03*
%TO.P,J4,38*%
%TO.N,/62*%
X168910000Y-97155000D03*
%TO.P,J4,39*%
%TO.N,/20*%
X166370000Y-94615000D03*
%TO.P,J4,40*%
%TO.N,/61*%
X168910000Y-94615000D03*
%TO.P,J4,41*%
%TO.N,/21*%
X166370000Y-92075000D03*
%TO.P,J4,42*%
%TO.N,/60*%
X168910000Y-92075000D03*
%TO.P,J4,43*%
%TO.N,/22*%
X166370000Y-89535000D03*
%TO.P,J4,44*%
%TO.N,/59*%
X168910000Y-89535000D03*
%TO.P,J4,45*%
%TO.N,/23*%
X166370000Y-86995000D03*
%TO.P,J4,46*%
%TO.N,/58*%
X168910000Y-86995000D03*
%TO.P,J4,47*%
%TO.N,/24*%
X166370000Y-84455000D03*
%TO.P,J4,48*%
%TO.N,/57*%
X168910000Y-84455000D03*
%TO.P,J4,49*%
%TO.N,/25*%
X166370000Y-81915000D03*
%TO.P,J4,50*%
%TO.N,/56*%
X168910000Y-81915000D03*
%TO.P,J4,51*%
%TO.N,/26*%
X166370000Y-79375000D03*
%TO.P,J4,52*%
%TO.N,/55*%
X168910000Y-79375000D03*
%TO.P,J4,53*%
%TO.N,/27*%
X166370000Y-76835000D03*
%TO.P,J4,54*%
%TO.N,/54*%
X168910000Y-76835000D03*
%TO.P,J4,55*%
%TO.N,/28*%
X166370000Y-74295000D03*
%TO.P,J4,56*%
%TO.N,/53*%
X168910000Y-74295000D03*
%TO.P,J4,57*%
%TO.N,/29*%
X166370000Y-71755000D03*
%TO.P,J4,58*%
%TO.N,/52*%
X168910000Y-71755000D03*
%TO.P,J4,59*%
%TO.N,/30*%
X166370000Y-69215000D03*
%TO.P,J4,60*%
%TO.N,/51*%
X168910000Y-69215000D03*
%TO.P,J4,61*%
%TO.N,/31*%
X166370000Y-66675000D03*
%TO.P,J4,62*%
%TO.N,/50*%
X168910000Y-66675000D03*
%TO.P,J4,63*%
%TO.N,/32*%
X166370000Y-64135000D03*
%TO.P,J4,64*%
%TO.N,/49*%
X168910000Y-64135000D03*
%TO.P,J4,65*%
%TO.N,/33*%
X166370000Y-61595000D03*
%TO.P,J4,66*%
%TO.N,/48*%
X168910000Y-61595000D03*
%TO.P,J4,67*%
%TO.N,/34*%
X166370000Y-59055000D03*
%TO.P,J4,68*%
%TO.N,/47*%
X168910000Y-59055000D03*
%TO.P,J4,69*%
%TO.N,/35*%
X166370000Y-56515000D03*
%TO.P,J4,70*%
%TO.N,/46*%
X168910000Y-56515000D03*
%TO.P,J4,71*%
%TO.N,/36*%
X166370000Y-53975000D03*
%TO.P,J4,72*%
%TO.N,/45*%
X168910000Y-53975000D03*
%TO.P,J4,73*%
%TO.N,/37*%
X166370000Y-51435000D03*
%TO.P,J4,74*%
%TO.N,/44*%
X168910000Y-51435000D03*
%TO.P,J4,75*%
%TO.N,/38*%
X166370000Y-48895000D03*
%TO.P,J4,76*%
%TO.N,/43*%
X168910000Y-48895000D03*
%TO.P,J4,77*%
%TO.N,/39*%
X166370000Y-46355000D03*
%TO.P,J4,78*%
%TO.N,/42*%
X168910000Y-46355000D03*
%TO.P,J4,79*%
%TO.N,/40*%
X166370000Y-43815000D03*
%TO.P,J4,80*%
%TO.N,/41*%
X168910000Y-43815000D03*
%TD*%
%TO.P,J5,80*%
%TO.N,/41*%
X143510000Y-43815000D03*
%TO.P,J5,79*%
%TO.N,/40*%
X140970000Y-43815000D03*
%TO.P,J5,78*%
%TO.N,/42*%
X143510000Y-46355000D03*
%TO.P,J5,77*%
%TO.N,/39*%
X140970000Y-46355000D03*
%TO.P,J5,76*%
%TO.N,/43*%
X143510000Y-48895000D03*
%TO.P,J5,75*%
%TO.N,/38*%
X140970000Y-48895000D03*
%TO.P,J5,74*%
%TO.N,/44*%
X143510000Y-51435000D03*
%TO.P,J5,73*%
%TO.N,/37*%
X140970000Y-51435000D03*
%TO.P,J5,72*%
%TO.N,/45*%
X143510000Y-53975000D03*
%TO.P,J5,71*%
%TO.N,/36*%
X140970000Y-53975000D03*
%TO.P,J5,70*%
%TO.N,/46*%
X143510000Y-56515000D03*
%TO.P,J5,69*%
%TO.N,/35*%
X140970000Y-56515000D03*
%TO.P,J5,68*%
%TO.N,/47*%
X143510000Y-59055000D03*
%TO.P,J5,67*%
%TO.N,/34*%
X140970000Y-59055000D03*
%TO.P,J5,66*%
%TO.N,/48*%
X143510000Y-61595000D03*
%TO.P,J5,65*%
%TO.N,/33*%
X140970000Y-61595000D03*
%TO.P,J5,64*%
%TO.N,/49*%
X143510000Y-64135000D03*
%TO.P,J5,63*%
%TO.N,/32*%
X140970000Y-64135000D03*
%TO.P,J5,62*%
%TO.N,/50*%
X143510000Y-66675000D03*
%TO.P,J5,61*%
%TO.N,/31*%
X140970000Y-66675000D03*
%TO.P,J5,60*%
%TO.N,/51*%
X143510000Y-69215000D03*
%TO.P,J5,59*%
%TO.N,/30*%
X140970000Y-69215000D03*
%TO.P,J5,58*%
%TO.N,/52*%
X143510000Y-71755000D03*
%TO.P,J5,57*%
%TO.N,/29*%
X140970000Y-71755000D03*
%TO.P,J5,56*%
%TO.N,/53*%
X143510000Y-74295000D03*
%TO.P,J5,55*%
%TO.N,/28*%
X140970000Y-74295000D03*
%TO.P,J5,54*%
%TO.N,/54*%
X143510000Y-76835000D03*
%TO.P,J5,53*%
%TO.N,/27*%
X140970000Y-76835000D03*
%TO.P,J5,52*%
%TO.N,/55*%
X143510000Y-79375000D03*
%TO.P,J5,51*%
%TO.N,/26*%
X140970000Y-79375000D03*
%TO.P,J5,50*%
%TO.N,/56*%
X143510000Y-81915000D03*
%TO.P,J5,49*%
%TO.N,/25*%
X140970000Y-81915000D03*
%TO.P,J5,48*%
%TO.N,/57*%
X143510000Y-84455000D03*
%TO.P,J5,47*%
%TO.N,/24*%
X140970000Y-84455000D03*
%TO.P,J5,46*%
%TO.N,/58*%
X143510000Y-86995000D03*
%TO.P,J5,45*%
%TO.N,/23*%
X140970000Y-86995000D03*
%TO.P,J5,44*%
%TO.N,/59*%
X143510000Y-89535000D03*
%TO.P,J5,43*%
%TO.N,/22*%
X140970000Y-89535000D03*
%TO.P,J5,42*%
%TO.N,/60*%
X143510000Y-92075000D03*
%TO.P,J5,41*%
%TO.N,/21*%
X140970000Y-92075000D03*
%TO.P,J5,40*%
%TO.N,/61*%
X143510000Y-94615000D03*
%TO.P,J5,39*%
%TO.N,/20*%
X140970000Y-94615000D03*
%TO.P,J5,38*%
%TO.N,/62*%
X143510000Y-97155000D03*
%TO.P,J5,37*%
%TO.N,/19*%
X140970000Y-97155000D03*
%TO.P,J5,36*%
%TO.N,/63*%
X143510000Y-99695000D03*
%TO.P,J5,35*%
%TO.N,/18*%
X140970000Y-99695000D03*
%TO.P,J5,34*%
%TO.N,/64*%
X143510000Y-102235000D03*
%TO.P,J5,33*%
%TO.N,/17*%
X140970000Y-102235000D03*
%TO.P,J5,32*%
%TO.N,/65*%
X143510000Y-104775000D03*
%TO.P,J5,31*%
%TO.N,/16*%
X140970000Y-104775000D03*
%TO.P,J5,30*%
%TO.N,/66*%
X143510000Y-107315000D03*
%TO.P,J5,29*%
%TO.N,/15*%
X140970000Y-107315000D03*
%TO.P,J5,28*%
%TO.N,/67*%
X143510000Y-109855000D03*
%TO.P,J5,27*%
%TO.N,/14*%
X140970000Y-109855000D03*
%TO.P,J5,26*%
%TO.N,/68*%
X143510000Y-112395000D03*
%TO.P,J5,25*%
%TO.N,/13*%
X140970000Y-112395000D03*
%TO.P,J5,24*%
%TO.N,/69*%
X143510000Y-114935000D03*
%TO.P,J5,23*%
%TO.N,/12*%
X140970000Y-114935000D03*
%TO.P,J5,22*%
%TO.N,/70*%
X143510000Y-117475000D03*
%TO.P,J5,21*%
%TO.N,/11*%
X140970000Y-117475000D03*
%TO.P,J5,20*%
%TO.N,/71*%
X143510000Y-120015000D03*
%TO.P,J5,19*%
%TO.N,/10*%
X140970000Y-120015000D03*
%TO.P,J5,18*%
%TO.N,/72*%
X143510000Y-122555000D03*
%TO.P,J5,17*%
%TO.N,/9*%
X140970000Y-122555000D03*
%TO.P,J5,16*%
%TO.N,/73*%
X143510000Y-125095000D03*
%TO.P,J5,15*%
%TO.N,/8*%
X140970000Y-125095000D03*
%TO.P,J5,14*%
%TO.N,/74*%
X143510000Y-127635000D03*
%TO.P,J5,13*%
%TO.N,/7*%
X140970000Y-127635000D03*
%TO.P,J5,12*%
%TO.N,/75*%
X143510000Y-130175000D03*
%TO.P,J5,11*%
%TO.N,/6*%
X140970000Y-130175000D03*
%TO.P,J5,10*%
%TO.N,/76*%
X143510000Y-132715000D03*
%TO.P,J5,9*%
%TO.N,/5*%
X140970000Y-132715000D03*
%TO.P,J5,8*%
%TO.N,/77*%
X143510000Y-135255000D03*
%TO.P,J5,7*%
%TO.N,/4*%
X140970000Y-135255000D03*
%TO.P,J5,6*%
%TO.N,/78*%
X143510000Y-137795000D03*
%TO.P,J5,5*%
%TO.N,/3*%
X140970000Y-137795000D03*
%TO.P,J5,4*%
%TO.N,/79*%
X143510000Y-140335000D03*
%TO.P,J5,3*%
%TO.N,/2*%
X140970000Y-140335000D03*
%TO.P,J5,2*%
%TO.N,/80*%
X143510000Y-142875000D03*
D11*
%TO.P,J5,1*%
%TO.N,/1*%
X140970000Y-142875000D03*
%TD*%
D12*
%TO.N,/1*%
X142145001Y-144050001D02*
X140970000Y-142875000D01*
X116745001Y-144050001D02*
X115570000Y-142875000D01*
X191770000Y-142875000D02*
X171196000Y-142875000D01*
X167545001Y-144050001D02*
X166370000Y-142875000D01*
X170020999Y-144050001D02*
X167545001Y-144050001D01*
X171196000Y-142875000D02*
X170020999Y-144050001D01*
X145542000Y-142875000D02*
X144366999Y-144050001D01*
X166370000Y-142875000D02*
X145542000Y-142875000D01*
X144366999Y-144050001D02*
X142145001Y-144050001D01*
X119952002Y-142875000D02*
X118777001Y-144050001D01*
X140970000Y-142875000D02*
X119952002Y-142875000D01*
X118777001Y-144050001D02*
X116745001Y-144050001D01*
X115570000Y-142875000D02*
X94742000Y-142875000D01*
X94742000Y-142875000D02*
X93566999Y-144050001D01*
X91345001Y-144050001D02*
X90170000Y-142875000D01*
X93566999Y-144050001D02*
X91345001Y-144050001D01*
X196215000Y-142875000D02*
X217170000Y-142875000D01*
X195039999Y-144050001D02*
X196215000Y-142875000D01*
X192945001Y-144050001D02*
X195039999Y-144050001D01*
X191770000Y-142875000D02*
X192945001Y-144050001D01*
X222217999Y-144050001D02*
X223393000Y-142875000D01*
X218345001Y-144050001D02*
X222217999Y-144050001D01*
X217170000Y-142875000D02*
X218345001Y-144050001D01*
X90170000Y-142875000D02*
X83947000Y-142875000D01*
%TO.N,/2*%
X168053000Y-141510001D02*
X167792988Y-141249989D01*
X170649002Y-140335000D02*
X169474001Y-141510001D01*
X167284989Y-141249989D02*
X166370000Y-140335000D01*
X167792988Y-141249989D02*
X167284989Y-141249989D01*
X169474001Y-141510001D02*
X168053000Y-141510001D01*
X191770000Y-140335000D02*
X170649002Y-140335000D01*
X141770998Y-140335000D02*
X140970000Y-140335000D01*
X142945999Y-141510001D02*
X141770998Y-140335000D01*
X144074001Y-141510001D02*
X142945999Y-141510001D01*
X145249002Y-140335000D02*
X144074001Y-141510001D01*
X166370000Y-140335000D02*
X145249002Y-140335000D01*
X119849002Y-140335000D02*
X118674001Y-141510001D01*
X117126414Y-141510001D02*
X115951413Y-140335000D01*
X118674001Y-141510001D02*
X117126414Y-141510001D01*
X140970000Y-140335000D02*
X119849002Y-140335000D01*
X115951413Y-140335000D02*
X115570000Y-140335000D01*
X217551413Y-140335000D02*
X217170000Y-140335000D01*
X91726414Y-141510001D02*
X90551413Y-140335000D01*
X94449002Y-140335000D02*
X93274001Y-141510001D01*
X115570000Y-140335000D02*
X94449002Y-140335000D01*
X90551413Y-140335000D02*
X90170000Y-140335000D01*
X93274001Y-141510001D02*
X91726414Y-141510001D01*
X196049002Y-140335000D02*
X194874001Y-141510001D01*
X217170000Y-140335000D02*
X196049002Y-140335000D01*
X194874001Y-141510001D02*
X193581412Y-141510001D01*
X193581412Y-141510001D02*
X192406411Y-140335000D01*
X192406411Y-140335000D02*
X191770000Y-140335000D01*
X217806411Y-140335000D02*
X218981412Y-141510001D01*
X221836586Y-141510001D02*
X223011587Y-140335000D01*
X217170000Y-140335000D02*
X217806411Y-140335000D01*
X218981412Y-141510001D02*
X221836586Y-141510001D01*
X223011587Y-140335000D02*
X223393000Y-140335000D01*
X90170000Y-140335000D02*
X83947000Y-140335000D01*
%TO.N,/3*%
X194874001Y-138970001D02*
X192945001Y-138970001D01*
X192945001Y-138970001D02*
X191770000Y-137795000D01*
X196049002Y-137795000D02*
X194874001Y-138970001D01*
X217170000Y-137795000D02*
X196049002Y-137795000D01*
X169474001Y-138970001D02*
X167545001Y-138970001D01*
X170649002Y-137795000D02*
X169474001Y-138970001D01*
X191770000Y-137795000D02*
X170649002Y-137795000D01*
X167545001Y-138970001D02*
X166370000Y-137795000D01*
X142945999Y-138970001D02*
X141770998Y-137795000D01*
X141770998Y-137795000D02*
X140970000Y-137795000D01*
X144074001Y-138970001D02*
X142945999Y-138970001D01*
X145249002Y-137795000D02*
X144074001Y-138970001D01*
X166370000Y-137795000D02*
X145249002Y-137795000D01*
X116745001Y-138970001D02*
X115570000Y-137795000D01*
X119849002Y-137795000D02*
X118674001Y-138970001D01*
X140970000Y-137795000D02*
X119849002Y-137795000D01*
X118674001Y-138970001D02*
X116745001Y-138970001D01*
X94449002Y-137795000D02*
X93274001Y-138970001D01*
X115570000Y-137795000D02*
X94449002Y-137795000D01*
X91345001Y-138970001D02*
X90170000Y-137795000D01*
X93274001Y-138970001D02*
X91345001Y-138970001D01*
X222217999Y-138970001D02*
X223393000Y-137795000D01*
X219145999Y-138970001D02*
X222217999Y-138970001D01*
X217970998Y-137795000D02*
X219145999Y-138970001D01*
X217170000Y-137795000D02*
X217970998Y-137795000D01*
X90170000Y-137795000D02*
X83947000Y-137795000D01*
%TO.N,/4*%
X217170000Y-135255000D02*
X196213589Y-135255000D01*
X196213589Y-135255000D02*
X195038588Y-136430001D01*
X195038588Y-136430001D02*
X192945001Y-136430001D01*
X192945001Y-136430001D02*
X191770000Y-135255000D01*
X167545001Y-136430001D02*
X166370000Y-135255000D01*
X169474001Y-136430001D02*
X167545001Y-136430001D01*
X170649002Y-135255000D02*
X169474001Y-136430001D01*
X191770000Y-135255000D02*
X170649002Y-135255000D01*
X142945999Y-136430001D02*
X141770998Y-135255000D01*
X144074001Y-136430001D02*
X142945999Y-136430001D01*
X145249002Y-135255000D02*
X144074001Y-136430001D01*
X141770998Y-135255000D02*
X140970000Y-135255000D01*
X166370000Y-135255000D02*
X145249002Y-135255000D01*
X116745001Y-136430001D02*
X115570000Y-135255000D01*
X118674001Y-136430001D02*
X116745001Y-136430001D01*
X119849002Y-135255000D02*
X118674001Y-136430001D01*
X140970000Y-135255000D02*
X119849002Y-135255000D01*
X91345001Y-136430001D02*
X90170000Y-135255000D01*
X93274001Y-136430001D02*
X91345001Y-136430001D01*
X94449002Y-135255000D02*
X93274001Y-136430001D01*
X115570000Y-135255000D02*
X94449002Y-135255000D01*
X222217999Y-136430001D02*
X223393000Y-135255000D01*
X217970998Y-135255000D02*
X219145999Y-136430001D01*
X219145999Y-136430001D02*
X222217999Y-136430001D01*
X217170000Y-135255000D02*
X217970998Y-135255000D01*
X90170000Y-135255000D02*
X83947000Y-135255000D01*
%TO.N,/5*%
X192945001Y-133890001D02*
X191770000Y-132715000D01*
X196049002Y-132715000D02*
X194874001Y-133890001D01*
X194874001Y-133890001D02*
X192945001Y-133890001D01*
X217170000Y-132715000D02*
X196049002Y-132715000D01*
X167170998Y-132715000D02*
X166370000Y-132715000D01*
X168345999Y-133890001D02*
X167170998Y-132715000D01*
X169474001Y-133890001D02*
X168345999Y-133890001D01*
X170649002Y-132715000D02*
X169474001Y-133890001D01*
X191770000Y-132715000D02*
X170649002Y-132715000D01*
X142145001Y-133890001D02*
X140970000Y-132715000D01*
X144074001Y-133890001D02*
X142145001Y-133890001D01*
X145249002Y-132715000D02*
X144074001Y-133890001D01*
X166370000Y-132715000D02*
X145249002Y-132715000D01*
X116370998Y-132715000D02*
X115570000Y-132715000D01*
X117545999Y-133890001D02*
X116370998Y-132715000D01*
X118674001Y-133890001D02*
X117545999Y-133890001D01*
X119849002Y-132715000D02*
X118674001Y-133890001D01*
X140970000Y-132715000D02*
X119849002Y-132715000D01*
X94449002Y-132715000D02*
X93274001Y-133890001D01*
X115570000Y-132715000D02*
X94449002Y-132715000D01*
X90970998Y-132715000D02*
X90170000Y-132715000D01*
X92145999Y-133890001D02*
X90970998Y-132715000D01*
X93274001Y-133890001D02*
X92145999Y-133890001D01*
X222217999Y-133890001D02*
X223393000Y-132715000D01*
X219145999Y-133890001D02*
X222217999Y-133890001D01*
X217970998Y-132715000D02*
X219145999Y-133890001D01*
X217170000Y-132715000D02*
X217970998Y-132715000D01*
X90170000Y-132715000D02*
X83947000Y-132715000D01*
%TO.N,/6*%
X116370998Y-130175000D02*
X115570000Y-130175000D01*
X117545999Y-131350001D02*
X116370998Y-130175000D01*
X118674001Y-131350001D02*
X117545999Y-131350001D01*
X119849002Y-130175000D02*
X118674001Y-131350001D01*
X140970000Y-130175000D02*
X119849002Y-130175000D01*
X94449002Y-130175000D02*
X93274001Y-131350001D01*
X115570000Y-130175000D02*
X94449002Y-130175000D01*
X142145001Y-131350001D02*
X140970000Y-130175000D01*
X144074001Y-131350001D02*
X142145001Y-131350001D01*
X145249002Y-130175000D02*
X144074001Y-131350001D01*
X166370000Y-130175000D02*
X145249002Y-130175000D01*
X192945001Y-131350001D02*
X191770000Y-130175000D01*
X194874001Y-131350001D02*
X192945001Y-131350001D01*
X196049002Y-130175000D02*
X194874001Y-131350001D01*
X217170000Y-130175000D02*
X196049002Y-130175000D01*
X167545001Y-131350001D02*
X166370000Y-130175000D01*
X169474001Y-131350001D02*
X167545001Y-131350001D01*
X170649002Y-130175000D02*
X169474001Y-131350001D01*
X191770000Y-130175000D02*
X170649002Y-130175000D01*
X90970998Y-130175000D02*
X90170000Y-130175000D01*
X92145999Y-131350001D02*
X90970998Y-130175000D01*
X93274001Y-131350001D02*
X92145999Y-131350001D01*
X222217999Y-131350001D02*
X223393000Y-130175000D01*
X219145999Y-131350001D02*
X222217999Y-131350001D01*
X217970998Y-130175000D02*
X219145999Y-131350001D01*
X217170000Y-130175000D02*
X217970998Y-130175000D01*
X90170000Y-130175000D02*
X83947000Y-130175000D01*
%TO.N,/7*%
X217170000Y-127635000D02*
X196213589Y-127635000D01*
X195038588Y-128810001D02*
X192945001Y-128810001D01*
X196213589Y-127635000D02*
X195038588Y-128810001D01*
X192945001Y-128810001D02*
X191770000Y-127635000D01*
X118674001Y-128810001D02*
X116745001Y-128810001D01*
X116745001Y-128810001D02*
X115570000Y-127635000D01*
X119849002Y-127635000D02*
X118674001Y-128810001D01*
X140970000Y-127635000D02*
X119849002Y-127635000D01*
X94449002Y-127635000D02*
X93274001Y-128810001D01*
X115570000Y-127635000D02*
X94449002Y-127635000D01*
X144074001Y-128810001D02*
X142145001Y-128810001D01*
X145249002Y-127635000D02*
X144074001Y-128810001D01*
X142145001Y-128810001D02*
X140970000Y-127635000D01*
X166370000Y-127635000D02*
X145249002Y-127635000D01*
X169474001Y-128810001D02*
X167545001Y-128810001D01*
X191770000Y-127635000D02*
X170649002Y-127635000D01*
X167545001Y-128810001D02*
X166370000Y-127635000D01*
X170649002Y-127635000D02*
X169474001Y-128810001D01*
X90970998Y-127635000D02*
X90170000Y-127635000D01*
X92145999Y-128810001D02*
X90970998Y-127635000D01*
X93274001Y-128810001D02*
X92145999Y-128810001D01*
X222217999Y-128810001D02*
X223393000Y-127635000D01*
X218345001Y-128810001D02*
X222217999Y-128810001D01*
X217170000Y-127635000D02*
X218345001Y-128810001D01*
X90170000Y-127635000D02*
X83947000Y-127635000D01*
%TO.N,/8*%
X117569999Y-126270001D02*
X116394998Y-125095000D01*
X118674001Y-126270001D02*
X117569999Y-126270001D01*
X119849002Y-125095000D02*
X118674001Y-126270001D01*
X116394998Y-125095000D02*
X115570000Y-125095000D01*
X140970000Y-125095000D02*
X119849002Y-125095000D01*
X115570000Y-125095000D02*
X94449002Y-125095000D01*
X94449002Y-125095000D02*
X93274001Y-126270001D01*
X141770998Y-125095000D02*
X140970000Y-125095000D01*
X142945999Y-126270001D02*
X141770998Y-125095000D01*
X144074001Y-126270001D02*
X142945999Y-126270001D01*
X145249002Y-125095000D02*
X144074001Y-126270001D01*
X166370000Y-125095000D02*
X145249002Y-125095000D01*
X168345999Y-126270001D02*
X167170998Y-125095000D01*
X167170998Y-125095000D02*
X166370000Y-125095000D01*
X169474001Y-126270001D02*
X168345999Y-126270001D01*
X170649002Y-125095000D02*
X169474001Y-126270001D01*
X191770000Y-125095000D02*
X170649002Y-125095000D01*
X192945001Y-126270001D02*
X191770000Y-125095000D01*
X194874001Y-126270001D02*
X192945001Y-126270001D01*
X196049002Y-125095000D02*
X194874001Y-126270001D01*
X217170000Y-125095000D02*
X196049002Y-125095000D01*
X91345001Y-126270001D02*
X90170000Y-125095000D01*
X93274001Y-126270001D02*
X91345001Y-126270001D01*
X222217999Y-126270001D02*
X223393000Y-125095000D01*
X217970998Y-125095000D02*
X219145999Y-126270001D01*
X219145999Y-126270001D02*
X222217999Y-126270001D01*
X217170000Y-125095000D02*
X217970998Y-125095000D01*
X90170000Y-125095000D02*
X83947000Y-125095000D01*
%TO.N,/9*%
X116745001Y-123730001D02*
X115570000Y-122555000D01*
X118674001Y-123730001D02*
X116745001Y-123730001D01*
X140970000Y-122555000D02*
X119849002Y-122555000D01*
X119849002Y-122555000D02*
X118674001Y-123730001D01*
X94449002Y-122555000D02*
X93274001Y-123730001D01*
X115570000Y-122555000D02*
X94449002Y-122555000D01*
X142945999Y-123730001D02*
X141770998Y-122555000D01*
X141770998Y-122555000D02*
X140970000Y-122555000D01*
X144074001Y-123730001D02*
X142945999Y-123730001D01*
X145249002Y-122555000D02*
X144074001Y-123730001D01*
X166370000Y-122555000D02*
X145249002Y-122555000D01*
X167545001Y-123730001D02*
X166370000Y-122555000D01*
X170649002Y-122555000D02*
X169474001Y-123730001D01*
X191770000Y-122555000D02*
X170649002Y-122555000D01*
X169474001Y-123730001D02*
X167545001Y-123730001D01*
X195038588Y-123730001D02*
X192945001Y-123730001D01*
X217170000Y-122555000D02*
X196213589Y-122555000D01*
X192945001Y-123730001D02*
X191770000Y-122555000D01*
X196213589Y-122555000D02*
X195038588Y-123730001D01*
X91345001Y-123730001D02*
X90170000Y-122555000D01*
X93274001Y-123730001D02*
X91345001Y-123730001D01*
X222217999Y-123730001D02*
X223393000Y-122555000D01*
X219145999Y-123730001D02*
X222217999Y-123730001D01*
X217970998Y-122555000D02*
X219145999Y-123730001D01*
X217170000Y-122555000D02*
X217970998Y-122555000D01*
X88967919Y-122555000D02*
X83947000Y-122555000D01*
X90170000Y-122555000D02*
X88967919Y-122555000D01*
%TO.N,/10*%
X118674001Y-121190001D02*
X116745001Y-121190001D01*
X116745001Y-121190001D02*
X115570000Y-120015000D01*
X119849002Y-120015000D02*
X118674001Y-121190001D01*
X140970000Y-120015000D02*
X119849002Y-120015000D01*
X94449002Y-120015000D02*
X93274001Y-121190001D01*
X115570000Y-120015000D02*
X94449002Y-120015000D01*
X141770998Y-120015000D02*
X140970000Y-120015000D01*
X142945999Y-121190001D02*
X141770998Y-120015000D01*
X145249002Y-120015000D02*
X144074001Y-121190001D01*
X144074001Y-121190001D02*
X142945999Y-121190001D01*
X166370000Y-120015000D02*
X145249002Y-120015000D01*
X168345999Y-121190001D02*
X167170998Y-120015000D01*
X167170998Y-120015000D02*
X166370000Y-120015000D01*
X169474001Y-121190001D02*
X168345999Y-121190001D01*
X170649002Y-120015000D02*
X169474001Y-121190001D01*
X191770000Y-120015000D02*
X170649002Y-120015000D01*
X196049002Y-120015000D02*
X194785999Y-121278003D01*
X217170000Y-120015000D02*
X196049002Y-120015000D01*
X194785999Y-121278003D02*
X193033003Y-121278003D01*
X193033003Y-121278003D02*
X192722500Y-120967500D01*
X192722500Y-120967500D02*
X191770000Y-120015000D01*
X91345001Y-121190001D02*
X90170000Y-120015000D01*
X93274001Y-121190001D02*
X91345001Y-121190001D01*
X222217999Y-121190001D02*
X223393000Y-120015000D01*
X219145999Y-121190001D02*
X222217999Y-121190001D01*
X217970998Y-120015000D02*
X219145999Y-121190001D01*
X217170000Y-120015000D02*
X217970998Y-120015000D01*
X90170000Y-120015000D02*
X83947000Y-120015000D01*
%TO.N,/11*%
X192945001Y-118650001D02*
X191770000Y-117475000D01*
X116745001Y-118650001D02*
X115570000Y-117475000D01*
X118674001Y-118650001D02*
X116745001Y-118650001D01*
X140970000Y-117475000D02*
X119849002Y-117475000D01*
X119849002Y-117475000D02*
X118674001Y-118650001D01*
X115570000Y-117475000D02*
X94613589Y-117475000D01*
X94613589Y-117475000D02*
X93438588Y-118650001D01*
X142145001Y-118650001D02*
X140970000Y-117475000D01*
X144074001Y-118650001D02*
X142145001Y-118650001D01*
X145249002Y-117475000D02*
X144074001Y-118650001D01*
X166370000Y-117475000D02*
X145249002Y-117475000D01*
X167545001Y-118650001D02*
X166370000Y-117475000D01*
X170649002Y-117475000D02*
X169474001Y-118650001D01*
X191770000Y-117475000D02*
X170649002Y-117475000D01*
X169474001Y-118650001D02*
X167545001Y-118650001D01*
X196025002Y-117475000D02*
X194850001Y-118650001D01*
X217170000Y-117475000D02*
X196025002Y-117475000D01*
X194850001Y-118650001D02*
X192945001Y-118650001D01*
X91345001Y-118650001D02*
X90170000Y-117475000D01*
X93438588Y-118650001D02*
X91345001Y-118650001D01*
X222217999Y-118650001D02*
X223393000Y-117475000D01*
X219145999Y-118650001D02*
X222217999Y-118650001D01*
X217970998Y-117475000D02*
X219145999Y-118650001D01*
X217170000Y-117475000D02*
X217970998Y-117475000D01*
X90170000Y-117475000D02*
X83947000Y-117475000D01*
%TO.N,/12*%
X192945001Y-116110001D02*
X191770000Y-114935000D01*
X116745001Y-116110001D02*
X115570000Y-114935000D01*
X119849002Y-114935000D02*
X118674001Y-116110001D01*
X140970000Y-114935000D02*
X119849002Y-114935000D01*
X118674001Y-116110001D02*
X116745001Y-116110001D01*
X94449002Y-114935000D02*
X93274001Y-116110001D01*
X115570000Y-114935000D02*
X94449002Y-114935000D01*
X141770998Y-114935000D02*
X140970000Y-114935000D01*
X144074001Y-116110001D02*
X142945999Y-116110001D01*
X145249002Y-114935000D02*
X144074001Y-116110001D01*
X142945999Y-116110001D02*
X141770998Y-114935000D01*
X166370000Y-114935000D02*
X145249002Y-114935000D01*
X170649002Y-114935000D02*
X169474001Y-116110001D01*
X167545001Y-116110001D02*
X166370000Y-114935000D01*
X191770000Y-114935000D02*
X170649002Y-114935000D01*
X169474001Y-116110001D02*
X167545001Y-116110001D01*
X196025002Y-114935000D02*
X194850001Y-116110001D01*
X217170000Y-114935000D02*
X196025002Y-114935000D01*
X194850001Y-116110001D02*
X192945001Y-116110001D01*
X91345001Y-116110001D02*
X90170000Y-114935000D01*
X93274001Y-116110001D02*
X91345001Y-116110001D01*
X222217999Y-116110001D02*
X223393000Y-114935000D01*
X217970998Y-114935000D02*
X219145999Y-116110001D01*
X217170000Y-114935000D02*
X217970998Y-114935000D01*
X219145999Y-116110001D02*
X222217999Y-116110001D01*
X90170000Y-114935000D02*
X83947000Y-114935000D01*
%TO.N,/13*%
X94449002Y-112395000D02*
X93274001Y-113570001D01*
X115570000Y-112395000D02*
X94449002Y-112395000D01*
X117545999Y-113570001D02*
X116370998Y-112395000D01*
X119849002Y-112395000D02*
X118674001Y-113570001D01*
X116370998Y-112395000D02*
X115570000Y-112395000D01*
X118674001Y-113570001D02*
X117545999Y-113570001D01*
X140970000Y-112395000D02*
X119849002Y-112395000D01*
X141770998Y-112395000D02*
X140970000Y-112395000D01*
X142945999Y-113570001D02*
X141770998Y-112395000D01*
X144074001Y-113570001D02*
X142945999Y-113570001D01*
X145249002Y-112395000D02*
X144074001Y-113570001D01*
X166370000Y-112395000D02*
X145249002Y-112395000D01*
X167545001Y-113570001D02*
X166370000Y-112395000D01*
X191770000Y-112395000D02*
X170649002Y-112395000D01*
X169474001Y-113570001D02*
X167545001Y-113570001D01*
X170649002Y-112395000D02*
X169474001Y-113570001D01*
X196213590Y-112395000D02*
X195001581Y-113607009D01*
X217170000Y-112395000D02*
X196213590Y-112395000D01*
X195001581Y-113607009D02*
X192982009Y-113607009D01*
X192982009Y-113607009D02*
X191770000Y-112395000D01*
X90970998Y-112395000D02*
X90170000Y-112395000D01*
X92145999Y-113570001D02*
X90970998Y-112395000D01*
X93274001Y-113570001D02*
X92145999Y-113570001D01*
X222217999Y-113570001D02*
X223393000Y-112395000D01*
X218345001Y-113570001D02*
X222217999Y-113570001D01*
X217170000Y-112395000D02*
X218345001Y-113570001D01*
X90170000Y-112395000D02*
X83947000Y-112395000D01*
%TO.N,/14*%
X195038588Y-111030001D02*
X192945001Y-111030001D01*
X192945001Y-111030001D02*
X191770000Y-109855000D01*
X94449002Y-109855000D02*
X93274001Y-111030001D01*
X115570000Y-109855000D02*
X94449002Y-109855000D01*
X116745001Y-111030001D02*
X115570000Y-109855000D01*
X118674001Y-111030001D02*
X116745001Y-111030001D01*
X119849002Y-109855000D02*
X118674001Y-111030001D01*
X140970000Y-109855000D02*
X119849002Y-109855000D01*
X167170998Y-109855000D02*
X166370000Y-109855000D01*
X168345999Y-111030001D02*
X167170998Y-109855000D01*
X170649002Y-109855000D02*
X169474001Y-111030001D01*
X169474001Y-111030001D02*
X168345999Y-111030001D01*
X191770000Y-109855000D02*
X170649002Y-109855000D01*
X142145001Y-111030001D02*
X140970000Y-109855000D01*
X144074001Y-111030001D02*
X142145001Y-111030001D01*
X145249002Y-109855000D02*
X144074001Y-111030001D01*
X166370000Y-109855000D02*
X145249002Y-109855000D01*
X196213589Y-109855000D02*
X195038588Y-111030001D01*
X217170000Y-109855000D02*
X196213589Y-109855000D01*
X91345001Y-111030001D02*
X90170000Y-109855000D01*
X93274001Y-111030001D02*
X91345001Y-111030001D01*
X222217999Y-111030001D02*
X223393000Y-109855000D01*
X219145999Y-111030001D02*
X222217999Y-111030001D01*
X217970998Y-109855000D02*
X219145999Y-111030001D01*
X217170000Y-109855000D02*
X217970998Y-109855000D01*
X90170000Y-109855000D02*
X83947000Y-109855000D01*
%TO.N,/15*%
X192945001Y-108490001D02*
X191770000Y-107315000D01*
X94449002Y-107315000D02*
X93274001Y-108490001D01*
X115570000Y-107315000D02*
X94449002Y-107315000D01*
X119849002Y-107315000D02*
X118674001Y-108490001D01*
X116745001Y-108490001D02*
X115570000Y-107315000D01*
X118674001Y-108490001D02*
X116745001Y-108490001D01*
X140970000Y-107315000D02*
X119849002Y-107315000D01*
X167545001Y-108490001D02*
X166370000Y-107315000D01*
X169474001Y-108490001D02*
X167545001Y-108490001D01*
X170649002Y-107315000D02*
X169474001Y-108490001D01*
X191770000Y-107315000D02*
X170649002Y-107315000D01*
X141770998Y-107315000D02*
X140970000Y-107315000D01*
X142945999Y-108490001D02*
X141770998Y-107315000D01*
X144074001Y-108490001D02*
X142945999Y-108490001D01*
X145249002Y-107315000D02*
X144074001Y-108490001D01*
X166370000Y-107315000D02*
X145249002Y-107315000D01*
X196025002Y-107315000D02*
X194850001Y-108490001D01*
X217170000Y-107315000D02*
X196025002Y-107315000D01*
X194850001Y-108490001D02*
X192945001Y-108490001D01*
X90970998Y-107315000D02*
X90170000Y-107315000D01*
X92145999Y-108490001D02*
X90970998Y-107315000D01*
X93274001Y-108490001D02*
X92145999Y-108490001D01*
X222217999Y-108490001D02*
X223393000Y-107315000D01*
X218345001Y-108490001D02*
X222217999Y-108490001D01*
X217170000Y-107315000D02*
X218345001Y-108490001D01*
X90170000Y-107315000D02*
X83947000Y-107315000D01*
%TO.N,/16*%
X192945001Y-105950001D02*
X191770000Y-104775000D01*
X94449002Y-104775000D02*
X93274001Y-105950001D01*
X115570000Y-104775000D02*
X94449002Y-104775000D01*
X119849002Y-104775000D02*
X118674001Y-105950001D01*
X140970000Y-104775000D02*
X119849002Y-104775000D01*
X116745001Y-105950001D02*
X115570000Y-104775000D01*
X118674001Y-105950001D02*
X116745001Y-105950001D01*
X167545001Y-105950001D02*
X166370000Y-104775000D01*
X169474001Y-105950001D02*
X167545001Y-105950001D01*
X170649002Y-104775000D02*
X169474001Y-105950001D01*
X191770000Y-104775000D02*
X170649002Y-104775000D01*
X142145001Y-105950001D02*
X140970000Y-104775000D01*
X166370000Y-104775000D02*
X145249002Y-104775000D01*
X144074001Y-105950001D02*
X142145001Y-105950001D01*
X145249002Y-104775000D02*
X144074001Y-105950001D01*
X217170000Y-104775000D02*
X196088000Y-104775000D01*
X196088000Y-104775000D02*
X194912999Y-105950001D01*
X194912999Y-105950001D02*
X192945001Y-105950001D01*
X91345001Y-105950001D02*
X90170000Y-104775000D01*
X93274001Y-105950001D02*
X91345001Y-105950001D01*
X219145999Y-105950001D02*
X222217999Y-105950001D01*
X222217999Y-105950001D02*
X223393000Y-104775000D01*
X217970998Y-104775000D02*
X219145999Y-105950001D01*
X217170000Y-104775000D02*
X217970998Y-104775000D01*
X90170000Y-104775000D02*
X83947000Y-104775000D01*
%TO.N,/17*%
X195038588Y-103410001D02*
X192945001Y-103410001D01*
X192945001Y-103410001D02*
X191770000Y-102235000D01*
X94449002Y-102235000D02*
X93274001Y-103410001D01*
X115570000Y-102235000D02*
X94449002Y-102235000D01*
X116745001Y-103410001D02*
X115570000Y-102235000D01*
X118674001Y-103410001D02*
X116745001Y-103410001D01*
X140970000Y-102235000D02*
X119849002Y-102235000D01*
X119849002Y-102235000D02*
X118674001Y-103410001D01*
X167545001Y-103410001D02*
X166370000Y-102235000D01*
X169474001Y-103410001D02*
X167545001Y-103410001D01*
X170649002Y-102235000D02*
X169474001Y-103410001D01*
X191770000Y-102235000D02*
X170649002Y-102235000D01*
X144074001Y-103410001D02*
X142145001Y-103410001D01*
X145249002Y-102235000D02*
X144074001Y-103410001D01*
X166370000Y-102235000D02*
X145249002Y-102235000D01*
X142145001Y-103410001D02*
X140970000Y-102235000D01*
X196213589Y-102235000D02*
X195038588Y-103410001D01*
X217170000Y-102235000D02*
X196213589Y-102235000D01*
X91345001Y-103410001D02*
X90170000Y-102235000D01*
X93274001Y-103410001D02*
X91345001Y-103410001D01*
X222217999Y-103410001D02*
X223393000Y-102235000D01*
X219145999Y-103410001D02*
X222217999Y-103410001D01*
X217970998Y-102235000D02*
X219145999Y-103410001D01*
X217170000Y-102235000D02*
X217970998Y-102235000D01*
X90170000Y-102235000D02*
X83947000Y-102235000D01*
%TO.N,/18*%
X94449002Y-99695000D02*
X93274001Y-100870001D01*
X115570000Y-99695000D02*
X94449002Y-99695000D01*
X116745001Y-100870001D02*
X115570000Y-99695000D01*
X118674001Y-100870001D02*
X116745001Y-100870001D01*
X119849002Y-99695000D02*
X118674001Y-100870001D01*
X140970000Y-99695000D02*
X119849002Y-99695000D01*
X167545001Y-100870001D02*
X166370000Y-99695000D01*
X170649002Y-99695000D02*
X169474001Y-100870001D01*
X169474001Y-100870001D02*
X167545001Y-100870001D01*
X191770000Y-99695000D02*
X170649002Y-99695000D01*
X145249002Y-99695000D02*
X144074001Y-100870001D01*
X144074001Y-100870001D02*
X142145001Y-100870001D01*
X166370000Y-99695000D02*
X145249002Y-99695000D01*
X142145001Y-100870001D02*
X140970000Y-99695000D01*
X192945001Y-100870001D02*
X191770000Y-99695000D01*
X196049002Y-99695000D02*
X194874001Y-100870001D01*
X194874001Y-100870001D02*
X192945001Y-100870001D01*
X217170000Y-99695000D02*
X196049002Y-99695000D01*
X90970998Y-99695000D02*
X90170000Y-99695000D01*
X92145999Y-100870001D02*
X90970998Y-99695000D01*
X93274001Y-100870001D02*
X92145999Y-100870001D01*
X222217999Y-100870001D02*
X223393000Y-99695000D01*
X219145999Y-100870001D02*
X222217999Y-100870001D01*
X217970998Y-99695000D02*
X219145999Y-100870001D01*
X217170000Y-99695000D02*
X217970998Y-99695000D01*
X90170000Y-99695000D02*
X83947000Y-99695000D01*
%TO.N,/19*%
X94449002Y-97155000D02*
X93274001Y-98330001D01*
X115570000Y-97155000D02*
X94449002Y-97155000D01*
X119849002Y-97155000D02*
X118674001Y-98330001D01*
X140970000Y-97155000D02*
X119849002Y-97155000D01*
X118674001Y-98330001D02*
X116745001Y-98330001D01*
X116745001Y-98330001D02*
X115570000Y-97155000D01*
X167545001Y-98330001D02*
X166370000Y-97155000D01*
X169474001Y-98330001D02*
X167545001Y-98330001D01*
X170649002Y-97155000D02*
X169474001Y-98330001D01*
X191770000Y-97155000D02*
X170649002Y-97155000D01*
X144074001Y-98330001D02*
X142969999Y-98330001D01*
X141794998Y-97155000D02*
X140970000Y-97155000D01*
X145249002Y-97155000D02*
X144074001Y-98330001D01*
X142969999Y-98330001D02*
X141794998Y-97155000D01*
X166370000Y-97155000D02*
X145249002Y-97155000D01*
X196213589Y-97155000D02*
X195038588Y-98330001D01*
X217170000Y-97155000D02*
X196213589Y-97155000D01*
X195038588Y-98330001D02*
X192945001Y-98330001D01*
X192945001Y-98330001D02*
X191770000Y-97155000D01*
X92145999Y-98330001D02*
X90970998Y-97155000D01*
X90970998Y-97155000D02*
X90170000Y-97155000D01*
X93274001Y-98330001D02*
X92145999Y-98330001D01*
X222217999Y-98330001D02*
X223393000Y-97155000D01*
X218345001Y-98330001D02*
X222217999Y-98330001D01*
X217170000Y-97155000D02*
X218345001Y-98330001D01*
X90170000Y-97155000D02*
X83947000Y-97155000D01*
%TO.N,/20*%
X192945001Y-95790001D02*
X191770000Y-94615000D01*
X94449002Y-94615000D02*
X93274001Y-95790001D01*
X115570000Y-94615000D02*
X94449002Y-94615000D01*
X116745001Y-95790001D02*
X115570000Y-94615000D01*
X119849002Y-94615000D02*
X118674001Y-95790001D01*
X118674001Y-95790001D02*
X116745001Y-95790001D01*
X140970000Y-94615000D02*
X119849002Y-94615000D01*
X142145001Y-95790001D02*
X140970000Y-94615000D01*
X145249002Y-94615000D02*
X144074001Y-95790001D01*
X166370000Y-94615000D02*
X145249002Y-94615000D01*
X144074001Y-95790001D02*
X142145001Y-95790001D01*
X167170998Y-94615000D02*
X166370000Y-94615000D01*
X169474001Y-95790001D02*
X168345999Y-95790001D01*
X168345999Y-95790001D02*
X167170998Y-94615000D01*
X170649002Y-94615000D02*
X169474001Y-95790001D01*
X191770000Y-94615000D02*
X170649002Y-94615000D01*
X196152002Y-94615000D02*
X194977001Y-95790001D01*
X217170000Y-94615000D02*
X196152002Y-94615000D01*
X194977001Y-95790001D02*
X192945001Y-95790001D01*
X90970998Y-94615000D02*
X90170000Y-94615000D01*
X92145999Y-95790001D02*
X90970998Y-94615000D01*
X93274001Y-95790001D02*
X92145999Y-95790001D01*
X222217999Y-95790001D02*
X223393000Y-94615000D01*
X217970998Y-94615000D02*
X219145999Y-95790001D01*
X219145999Y-95790001D02*
X222217999Y-95790001D01*
X217170000Y-94615000D02*
X217970998Y-94615000D01*
X90170000Y-94615000D02*
X88967919Y-94615000D01*
X88967919Y-94615000D02*
X83947000Y-94615000D01*
%TO.N,/21*%
X192945001Y-93250001D02*
X191770000Y-92075000D01*
X94449002Y-92075000D02*
X93274001Y-93250001D01*
X115570000Y-92075000D02*
X94449002Y-92075000D01*
X116394998Y-92075000D02*
X115570000Y-92075000D01*
X117569999Y-93250001D02*
X116394998Y-92075000D01*
X118674001Y-93250001D02*
X117569999Y-93250001D01*
X119849002Y-92075000D02*
X118674001Y-93250001D01*
X140970000Y-92075000D02*
X119849002Y-92075000D01*
X142145001Y-93250001D02*
X140970000Y-92075000D01*
X144074001Y-93250001D02*
X142145001Y-93250001D01*
X145249002Y-92075000D02*
X144074001Y-93250001D01*
X166370000Y-92075000D02*
X145249002Y-92075000D01*
X167170998Y-92075000D02*
X166370000Y-92075000D01*
X168345999Y-93250001D02*
X167170998Y-92075000D01*
X170649002Y-92075000D02*
X169474001Y-93250001D01*
X169474001Y-93250001D02*
X168345999Y-93250001D01*
X191770000Y-92075000D02*
X170649002Y-92075000D01*
X217170000Y-92075000D02*
X196025002Y-92075000D01*
X196025002Y-92075000D02*
X194850001Y-93250001D01*
X194850001Y-93250001D02*
X192945001Y-93250001D01*
X91345001Y-93250001D02*
X90170000Y-92075000D01*
X93274001Y-93250001D02*
X91345001Y-93250001D01*
X219145999Y-93250001D02*
X222217999Y-93250001D01*
X222217999Y-93250001D02*
X223393000Y-92075000D01*
X217970998Y-92075000D02*
X219145999Y-93250001D01*
X217170000Y-92075000D02*
X217970998Y-92075000D01*
X90170000Y-92075000D02*
X83947000Y-92075000D01*
%TO.N,/22*%
X192945001Y-90710001D02*
X191770000Y-89535000D01*
X115570000Y-89535000D02*
X94449002Y-89535000D01*
X94449002Y-89535000D02*
X93274001Y-90710001D01*
X116745001Y-90710001D02*
X115570000Y-89535000D01*
X119849002Y-89535000D02*
X118674001Y-90710001D01*
X140970000Y-89535000D02*
X119849002Y-89535000D01*
X118674001Y-90710001D02*
X116745001Y-90710001D01*
X167545001Y-90710001D02*
X166370000Y-89535000D01*
X170649002Y-89535000D02*
X169474001Y-90710001D01*
X169474001Y-90710001D02*
X167545001Y-90710001D01*
X191770000Y-89535000D02*
X170649002Y-89535000D01*
X142145001Y-90710001D02*
X140970000Y-89535000D01*
X166370000Y-89535000D02*
X145249002Y-89535000D01*
X145249002Y-89535000D02*
X144074001Y-90710001D01*
X144074001Y-90710001D02*
X142145001Y-90710001D01*
X196025002Y-89535000D02*
X194850001Y-90710001D01*
X217170000Y-89535000D02*
X196025002Y-89535000D01*
X194850001Y-90710001D02*
X192945001Y-90710001D01*
X91345001Y-90710001D02*
X90170000Y-89535000D01*
X93274001Y-90710001D02*
X91345001Y-90710001D01*
X219145999Y-90710001D02*
X222217999Y-90710001D01*
X217970998Y-89535000D02*
X219145999Y-90710001D01*
X222217999Y-90710001D02*
X223393000Y-89535000D01*
X217170000Y-89535000D02*
X217970998Y-89535000D01*
X90170000Y-89535000D02*
X83947000Y-89535000D01*
%TO.N,/23*%
X192945001Y-88170001D02*
X191770000Y-86995000D01*
X94449002Y-86995000D02*
X93274001Y-88170001D01*
X115570000Y-86995000D02*
X94449002Y-86995000D01*
X118674001Y-88170001D02*
X116745001Y-88170001D01*
X140970000Y-86995000D02*
X119849002Y-86995000D01*
X119849002Y-86995000D02*
X118674001Y-88170001D01*
X116419999Y-87844999D02*
X115570000Y-86995000D01*
X116745001Y-88170001D02*
X116419999Y-87844999D01*
X170649002Y-86995000D02*
X169474001Y-88170001D01*
X167545001Y-88170001D02*
X166370000Y-86995000D01*
X169474001Y-88170001D02*
X167545001Y-88170001D01*
X191770000Y-86995000D02*
X170649002Y-86995000D01*
X144112999Y-88170001D02*
X142145001Y-88170001D01*
X142145001Y-88170001D02*
X140970000Y-86995000D01*
X145288000Y-86995000D02*
X144112999Y-88170001D01*
X166370000Y-86995000D02*
X145288000Y-86995000D01*
X196025002Y-86995000D02*
X194850001Y-88170001D01*
X217170000Y-86995000D02*
X196025002Y-86995000D01*
X194850001Y-88170001D02*
X192945001Y-88170001D01*
X91345001Y-88170001D02*
X90170000Y-86995000D01*
X93274001Y-88170001D02*
X91345001Y-88170001D01*
X222217999Y-88170001D02*
X223393000Y-86995000D01*
X219145999Y-88170001D02*
X222217999Y-88170001D01*
X217970998Y-86995000D02*
X219145999Y-88170001D01*
X217170000Y-86995000D02*
X217970998Y-86995000D01*
X90170000Y-86995000D02*
X83947000Y-86995000D01*
%TO.N,/24*%
X192945001Y-85630001D02*
X191770000Y-84455000D01*
X94449002Y-84455000D02*
X93274001Y-85630001D01*
X115570000Y-84455000D02*
X94449002Y-84455000D01*
X118674001Y-85630001D02*
X117545999Y-85630001D01*
X116370998Y-84455000D02*
X115570000Y-84455000D01*
X117545999Y-85630001D02*
X116370998Y-84455000D01*
X119849002Y-84455000D02*
X118674001Y-85630001D01*
X140970000Y-84455000D02*
X119849002Y-84455000D01*
X167170998Y-84455000D02*
X166370000Y-84455000D01*
X170649002Y-84455000D02*
X169474001Y-85630001D01*
X168345999Y-85630001D02*
X167170998Y-84455000D01*
X169474001Y-85630001D02*
X168345999Y-85630001D01*
X191770000Y-84455000D02*
X170649002Y-84455000D01*
X142145001Y-85630001D02*
X140970000Y-84455000D01*
X144074001Y-85630001D02*
X142145001Y-85630001D01*
X145249002Y-84455000D02*
X144074001Y-85630001D01*
X166370000Y-84455000D02*
X145249002Y-84455000D01*
X196025002Y-84455000D02*
X194850001Y-85630001D01*
X217170000Y-84455000D02*
X196025002Y-84455000D01*
X194850001Y-85630001D02*
X192945001Y-85630001D01*
X91345001Y-85630001D02*
X90170000Y-84455000D01*
X93274001Y-85630001D02*
X91345001Y-85630001D01*
X222217999Y-85630001D02*
X223393000Y-84455000D01*
X218345001Y-85630001D02*
X222217999Y-85630001D01*
X217170000Y-84455000D02*
X218345001Y-85630001D01*
X90170000Y-84455000D02*
X88967919Y-84455000D01*
X88967919Y-84455000D02*
X83947000Y-84455000D01*
%TO.N,/25*%
X192945001Y-83090001D02*
X191770000Y-81915000D01*
X94449002Y-81915000D02*
X93274001Y-83090001D01*
X115570000Y-81915000D02*
X94449002Y-81915000D01*
X116745001Y-83090001D02*
X115570000Y-81915000D01*
X118674001Y-83090001D02*
X116745001Y-83090001D01*
X119849002Y-81915000D02*
X118674001Y-83090001D01*
X140970000Y-81915000D02*
X119849002Y-81915000D01*
X167545001Y-83090001D02*
X166370000Y-81915000D01*
X169474001Y-83090001D02*
X167545001Y-83090001D01*
X170649002Y-81915000D02*
X169474001Y-83090001D01*
X191770000Y-81915000D02*
X170649002Y-81915000D01*
X142334999Y-83279999D02*
X140970000Y-81915000D01*
X143884003Y-83279999D02*
X142334999Y-83279999D01*
X166370000Y-81915000D02*
X145249002Y-81915000D01*
X145249002Y-81915000D02*
X143884003Y-83279999D01*
X196088000Y-81915000D02*
X194912999Y-83090001D01*
X217170000Y-81915000D02*
X196088000Y-81915000D01*
X194912999Y-83090001D02*
X192945001Y-83090001D01*
X222217999Y-83090001D02*
X223393000Y-81915000D01*
X219145999Y-83090001D02*
X222217999Y-83090001D01*
X217970998Y-81915000D02*
X219145999Y-83090001D01*
X217170000Y-81915000D02*
X217970998Y-81915000D01*
X90170000Y-81915000D02*
X83947000Y-81915000D01*
X91345001Y-83090001D02*
X90170000Y-81915000D01*
X93274001Y-83090001D02*
X91345001Y-83090001D01*
%TO.N,/26*%
X116370998Y-79375000D02*
X115570000Y-79375000D01*
X117545999Y-80550001D02*
X116370998Y-79375000D01*
X118674001Y-80550001D02*
X117545999Y-80550001D01*
X119849002Y-79375000D02*
X118674001Y-80550001D01*
X140970000Y-79375000D02*
X119849002Y-79375000D01*
X167545001Y-80550001D02*
X166370000Y-79375000D01*
X169474001Y-80550001D02*
X167545001Y-80550001D01*
X170649002Y-79375000D02*
X169474001Y-80550001D01*
X191770000Y-79375000D02*
X170649002Y-79375000D01*
X142145001Y-80550001D02*
X140970000Y-79375000D01*
X145249002Y-79375000D02*
X144074001Y-80550001D01*
X144074001Y-80550001D02*
X142145001Y-80550001D01*
X166370000Y-79375000D02*
X145249002Y-79375000D01*
X192945001Y-80550001D02*
X191770000Y-79375000D01*
X194874001Y-80550001D02*
X192945001Y-80550001D01*
X196049002Y-79375000D02*
X194874001Y-80550001D01*
X217170000Y-79375000D02*
X196049002Y-79375000D01*
X222217999Y-80550001D02*
X223393000Y-79375000D01*
X217170000Y-79375000D02*
X218345001Y-80550001D01*
X218345001Y-80550001D02*
X222217999Y-80550001D01*
X90170000Y-79375000D02*
X83947000Y-79375000D01*
X93274001Y-80550001D02*
X91345001Y-80550001D01*
X94449002Y-79375000D02*
X93274001Y-80550001D01*
X115570000Y-79375000D02*
X94449002Y-79375000D01*
X91345001Y-80550001D02*
X90170000Y-79375000D01*
%TO.N,/27*%
X192945001Y-78010001D02*
X191770000Y-76835000D01*
X115570000Y-76835000D02*
X94449002Y-76835000D01*
X94449002Y-76835000D02*
X93274001Y-78010001D01*
X117545999Y-78010001D02*
X116370998Y-76835000D01*
X118674001Y-78010001D02*
X117545999Y-78010001D01*
X116370998Y-76835000D02*
X115570000Y-76835000D01*
X119849002Y-76835000D02*
X118674001Y-78010001D01*
X140970000Y-76835000D02*
X119849002Y-76835000D01*
X169474001Y-78010001D02*
X167545001Y-78010001D01*
X170649002Y-76835000D02*
X169474001Y-78010001D01*
X167545001Y-78010001D02*
X166370000Y-76835000D01*
X191770000Y-76835000D02*
X170649002Y-76835000D01*
X142945999Y-78010001D02*
X141770998Y-76835000D01*
X144074001Y-78010001D02*
X142945999Y-78010001D01*
X145249002Y-76835000D02*
X144074001Y-78010001D01*
X141770998Y-76835000D02*
X140970000Y-76835000D01*
X166370000Y-76835000D02*
X145249002Y-76835000D01*
X196152002Y-76835000D02*
X194977001Y-78010001D01*
X217170000Y-76835000D02*
X196152002Y-76835000D01*
X194977001Y-78010001D02*
X192945001Y-78010001D01*
X219145999Y-78010001D02*
X222217999Y-78010001D01*
X217970998Y-76835000D02*
X219145999Y-78010001D01*
X222217999Y-78010001D02*
X223393000Y-76835000D01*
X217170000Y-76835000D02*
X217970998Y-76835000D01*
X90170000Y-76835000D02*
X83947000Y-76835000D01*
X91345001Y-78010001D02*
X90170000Y-76835000D01*
X93274001Y-78010001D02*
X91345001Y-78010001D01*
%TO.N,/28*%
X192945001Y-75470001D02*
X191770000Y-74295000D01*
X94449002Y-74295000D02*
X93274001Y-75470001D01*
X115570000Y-74295000D02*
X94449002Y-74295000D01*
X116370998Y-74295000D02*
X115570000Y-74295000D01*
X118674001Y-75470001D02*
X117545999Y-75470001D01*
X119849002Y-74295000D02*
X118674001Y-75470001D01*
X117545999Y-75470001D02*
X116370998Y-74295000D01*
X140970000Y-74295000D02*
X119849002Y-74295000D01*
X166981000Y-74295000D02*
X166370000Y-74295000D01*
X168345999Y-75659999D02*
X166981000Y-74295000D01*
X169284003Y-75659999D02*
X168345999Y-75659999D01*
X191770000Y-74295000D02*
X170649002Y-74295000D01*
X170649002Y-74295000D02*
X169284003Y-75659999D01*
X144074001Y-75470001D02*
X142145001Y-75470001D01*
X145249002Y-74295000D02*
X144074001Y-75470001D01*
X166370000Y-74295000D02*
X145249002Y-74295000D01*
X142145001Y-75470001D02*
X140970000Y-74295000D01*
X194912999Y-75431003D02*
X194912999Y-75470001D01*
X196049002Y-74295000D02*
X194912999Y-75431003D01*
X217170000Y-74295000D02*
X196049002Y-74295000D01*
X194912999Y-75470001D02*
X192945001Y-75470001D01*
X222217999Y-75470001D02*
X223393000Y-74295000D01*
X219145999Y-75470001D02*
X222217999Y-75470001D01*
X217970998Y-74295000D02*
X219145999Y-75470001D01*
X217170000Y-74295000D02*
X217970998Y-74295000D01*
X90170000Y-74295000D02*
X83947000Y-74295000D01*
X91345001Y-75470001D02*
X90170000Y-74295000D01*
X93274001Y-75470001D02*
X91345001Y-75470001D01*
%TO.N,/29*%
X94449002Y-71755000D02*
X93274001Y-72930001D01*
X115570000Y-71755000D02*
X94449002Y-71755000D01*
X116745001Y-72930001D02*
X115570000Y-71755000D01*
X118674001Y-72930001D02*
X116745001Y-72930001D01*
X119849002Y-71755000D02*
X118674001Y-72930001D01*
X140970000Y-71755000D02*
X119849002Y-71755000D01*
X168345999Y-72930001D02*
X167170998Y-71755000D01*
X170649002Y-71755000D02*
X169474001Y-72930001D01*
X167170998Y-71755000D02*
X166370000Y-71755000D01*
X169474001Y-72930001D02*
X168345999Y-72930001D01*
X191770000Y-71755000D02*
X170649002Y-71755000D01*
X141770998Y-71755000D02*
X140970000Y-71755000D01*
X142945999Y-72930001D02*
X141770998Y-71755000D01*
X144074001Y-72930001D02*
X142945999Y-72930001D01*
X145249002Y-71755000D02*
X144074001Y-72930001D01*
X166370000Y-71755000D02*
X145249002Y-71755000D01*
X194874001Y-72930001D02*
X192945001Y-72930001D01*
X196049002Y-71755000D02*
X194874001Y-72930001D01*
X192945001Y-72930001D02*
X191770000Y-71755000D01*
X217170000Y-71755000D02*
X196049002Y-71755000D01*
X219145999Y-72930001D02*
X222217999Y-72930001D01*
X222217999Y-72930001D02*
X223393000Y-71755000D01*
X217970998Y-71755000D02*
X219145999Y-72930001D01*
X217170000Y-71755000D02*
X217970998Y-71755000D01*
X90170000Y-71755000D02*
X83947000Y-71755000D01*
X93274001Y-72930001D02*
X91345001Y-72930001D01*
X91345001Y-72930001D02*
X90170000Y-71755000D01*
%TO.N,/30*%
X192945001Y-70390001D02*
X191770000Y-69215000D01*
X115570000Y-69215000D02*
X94449002Y-69215000D01*
X94449002Y-69215000D02*
X93274001Y-70390001D01*
X116745001Y-70390001D02*
X115570000Y-69215000D01*
X118674001Y-70390001D02*
X116745001Y-70390001D01*
X119849002Y-69215000D02*
X118674001Y-70390001D01*
X140970000Y-69215000D02*
X119849002Y-69215000D01*
X167545001Y-70390001D02*
X166370000Y-69215000D01*
X169474001Y-70390001D02*
X167545001Y-70390001D01*
X170649002Y-69215000D02*
X169474001Y-70390001D01*
X191770000Y-69215000D02*
X170649002Y-69215000D01*
X141794998Y-69215000D02*
X140970000Y-69215000D01*
X144074001Y-70390001D02*
X142969999Y-70390001D01*
X145249002Y-69215000D02*
X144074001Y-70390001D01*
X142969999Y-70390001D02*
X141794998Y-69215000D01*
X166370000Y-69215000D02*
X145249002Y-69215000D01*
X196025002Y-69215000D02*
X194850001Y-70390001D01*
X217170000Y-69215000D02*
X196025002Y-69215000D01*
X194850001Y-70390001D02*
X192945001Y-70390001D01*
X222217999Y-70390001D02*
X223393000Y-69215000D01*
X219145999Y-70390001D02*
X222217999Y-70390001D01*
X217970998Y-69215000D02*
X219145999Y-70390001D01*
X217170000Y-69215000D02*
X217970998Y-69215000D01*
X90170000Y-69215000D02*
X83947000Y-69215000D01*
X90970998Y-69215000D02*
X90170000Y-69215000D01*
X92145999Y-70390001D02*
X90970998Y-69215000D01*
X93274001Y-70390001D02*
X92145999Y-70390001D01*
%TO.N,/31*%
X192945001Y-67850001D02*
X191770000Y-66675000D01*
X115570000Y-66675000D02*
X94449002Y-66675000D01*
X94449002Y-66675000D02*
X93274001Y-67850001D01*
X116745001Y-67850001D02*
X115570000Y-66675000D01*
X119849002Y-66675000D02*
X118674001Y-67850001D01*
X140970000Y-66675000D02*
X119849002Y-66675000D01*
X118674001Y-67850001D02*
X116745001Y-67850001D01*
X167545001Y-67850001D02*
X166370000Y-66675000D01*
X169474001Y-67850001D02*
X167545001Y-67850001D01*
X170649002Y-66675000D02*
X169474001Y-67850001D01*
X191770000Y-66675000D02*
X170649002Y-66675000D01*
X144074001Y-67850001D02*
X142145001Y-67850001D01*
X145249002Y-66675000D02*
X144074001Y-67850001D01*
X166370000Y-66675000D02*
X145249002Y-66675000D01*
X142145001Y-67850001D02*
X140970000Y-66675000D01*
X217170000Y-66675000D02*
X196279002Y-66675000D01*
X196279002Y-66675000D02*
X195104001Y-67850001D01*
X195104001Y-67850001D02*
X192945001Y-67850001D01*
X222217999Y-67850001D02*
X223393000Y-66675000D01*
X219145999Y-67850001D02*
X222217999Y-67850001D01*
X217970998Y-66675000D02*
X219145999Y-67850001D01*
X217170000Y-66675000D02*
X217970998Y-66675000D01*
X90170000Y-66675000D02*
X88967919Y-66675000D01*
X88967919Y-66675000D02*
X83947000Y-66675000D01*
X93274001Y-67850001D02*
X91345001Y-67850001D01*
X91345001Y-67850001D02*
X90170000Y-66675000D01*
%TO.N,/32*%
X192945001Y-65310001D02*
X191770000Y-64135000D01*
X217170000Y-64135000D02*
X196213589Y-64135000D01*
X196213589Y-64135000D02*
X195038588Y-65310001D01*
X195038588Y-65310001D02*
X192945001Y-65310001D01*
X94449002Y-64135000D02*
X93274001Y-65310001D01*
X115570000Y-64135000D02*
X94449002Y-64135000D01*
X116394998Y-64135000D02*
X115570000Y-64135000D01*
X117569999Y-65310001D02*
X116394998Y-64135000D01*
X118674001Y-65310001D02*
X117569999Y-65310001D01*
X119849002Y-64135000D02*
X118674001Y-65310001D01*
X140970000Y-64135000D02*
X119849002Y-64135000D01*
X167545001Y-65310001D02*
X166370000Y-64135000D01*
X169474001Y-65310001D02*
X167545001Y-65310001D01*
X170649002Y-64135000D02*
X169474001Y-65310001D01*
X191770000Y-64135000D02*
X170649002Y-64135000D01*
X141770998Y-64135000D02*
X140970000Y-64135000D01*
X142945999Y-65310001D02*
X141770998Y-64135000D01*
X144074001Y-65310001D02*
X142945999Y-65310001D01*
X145249002Y-64135000D02*
X144074001Y-65310001D01*
X166370000Y-64135000D02*
X145249002Y-64135000D01*
X222217999Y-65310001D02*
X223393000Y-64135000D01*
X219145999Y-65310001D02*
X222217999Y-65310001D01*
X217970998Y-64135000D02*
X219145999Y-65310001D01*
X217170000Y-64135000D02*
X217970998Y-64135000D01*
X90170000Y-64135000D02*
X83947000Y-64135000D01*
X91345001Y-65310001D02*
X90170000Y-64135000D01*
X93274001Y-65310001D02*
X91345001Y-65310001D01*
%TO.N,/33*%
X195038588Y-62770001D02*
X192945001Y-62770001D01*
X196213589Y-61595000D02*
X195038588Y-62770001D01*
X217170000Y-61595000D02*
X196213589Y-61595000D01*
X192945001Y-62770001D02*
X191770000Y-61595000D01*
X94449002Y-61595000D02*
X93274001Y-62770001D01*
X115570000Y-61595000D02*
X94449002Y-61595000D01*
X116745001Y-62770001D02*
X115570000Y-61595000D01*
X118674001Y-62770001D02*
X116745001Y-62770001D01*
X119849002Y-61595000D02*
X118674001Y-62770001D01*
X140970000Y-61595000D02*
X119849002Y-61595000D01*
X169474001Y-62770001D02*
X167545001Y-62770001D01*
X167545001Y-62770001D02*
X166370000Y-61595000D01*
X170649002Y-61595000D02*
X169474001Y-62770001D01*
X191770000Y-61595000D02*
X170649002Y-61595000D01*
X142145001Y-62770001D02*
X140970000Y-61595000D01*
X144074001Y-62770001D02*
X142145001Y-62770001D01*
X145249002Y-61595000D02*
X144074001Y-62770001D01*
X166370000Y-61595000D02*
X145249002Y-61595000D01*
X222217999Y-62770001D02*
X223393000Y-61595000D01*
X217970998Y-61595000D02*
X219145999Y-62770001D01*
X219145999Y-62770001D02*
X222217999Y-62770001D01*
X217170000Y-61595000D02*
X217970998Y-61595000D01*
X90170000Y-61595000D02*
X83947000Y-61595000D01*
X93274001Y-62770001D02*
X91345001Y-62770001D01*
X91345001Y-62770001D02*
X90170000Y-61595000D01*
%TO.N,/34*%
X94449002Y-59055000D02*
X93274001Y-60230001D01*
X115570000Y-59055000D02*
X94449002Y-59055000D01*
X116745001Y-60230001D02*
X115570000Y-59055000D01*
X119849002Y-59055000D02*
X118674001Y-60230001D01*
X118674001Y-60230001D02*
X116745001Y-60230001D01*
X140970000Y-59055000D02*
X119849002Y-59055000D01*
X167545001Y-60230001D02*
X166370000Y-59055000D01*
X169474001Y-60230001D02*
X167545001Y-60230001D01*
X170649002Y-59055000D02*
X169474001Y-60230001D01*
X191770000Y-59055000D02*
X170649002Y-59055000D01*
X144074001Y-60230001D02*
X142145001Y-60230001D01*
X142145001Y-60230001D02*
X140970000Y-59055000D01*
X166370000Y-59055000D02*
X145249002Y-59055000D01*
X145249002Y-59055000D02*
X144074001Y-60230001D01*
X192945001Y-60230001D02*
X191770000Y-59055000D01*
X195038589Y-60230001D02*
X192945001Y-60230001D01*
X196213590Y-59055000D02*
X195038589Y-60230001D01*
X217170000Y-59055000D02*
X196213590Y-59055000D01*
X219145999Y-60230001D02*
X222217999Y-60230001D01*
X217970998Y-59055000D02*
X219145999Y-60230001D01*
X222217999Y-60230001D02*
X223393000Y-59055000D01*
X217170000Y-59055000D02*
X217970998Y-59055000D01*
X90170000Y-59055000D02*
X83947000Y-59055000D01*
X90970998Y-59055000D02*
X90170000Y-59055000D01*
X92145999Y-60230001D02*
X90970998Y-59055000D01*
X93274001Y-60230001D02*
X92145999Y-60230001D01*
%TO.N,/35*%
X94449002Y-56515000D02*
X93274001Y-57690001D01*
X115570000Y-56515000D02*
X94449002Y-56515000D01*
X116394998Y-56515000D02*
X115570000Y-56515000D01*
X117569999Y-57690001D02*
X116394998Y-56515000D01*
X119849002Y-56515000D02*
X118674001Y-57690001D01*
X118674001Y-57690001D02*
X117569999Y-57690001D01*
X140970000Y-56515000D02*
X119849002Y-56515000D01*
X167545001Y-57690001D02*
X166370000Y-56515000D01*
X169474001Y-57690001D02*
X167545001Y-57690001D01*
X170649002Y-56515000D02*
X169474001Y-57690001D01*
X191770000Y-56515000D02*
X170649002Y-56515000D01*
X144074001Y-57690001D02*
X142945999Y-57690001D01*
X141770998Y-56515000D02*
X140970000Y-56515000D01*
X142945999Y-57690001D02*
X141770998Y-56515000D01*
X145249002Y-56515000D02*
X144074001Y-57690001D01*
X166370000Y-56515000D02*
X145249002Y-56515000D01*
X195038588Y-57690001D02*
X192945001Y-57690001D01*
X217170000Y-56515000D02*
X196213589Y-56515000D01*
X196213589Y-56515000D02*
X195038588Y-57690001D01*
X192945001Y-57690001D02*
X191770000Y-56515000D01*
X218345001Y-57690001D02*
X222217999Y-57690001D01*
X222217999Y-57690001D02*
X223393000Y-56515000D01*
X217170000Y-56515000D02*
X218345001Y-57690001D01*
X90170000Y-56515000D02*
X83947000Y-56515000D01*
X91345001Y-57690001D02*
X90170000Y-56515000D01*
X93274001Y-57690001D02*
X91345001Y-57690001D01*
%TO.N,/36*%
X192945001Y-55150001D02*
X191770000Y-53975000D01*
X94449002Y-53975000D02*
X93274001Y-55150001D01*
X115570000Y-53975000D02*
X94449002Y-53975000D01*
X116745001Y-55150001D02*
X115570000Y-53975000D01*
X118674001Y-55150001D02*
X116745001Y-55150001D01*
X119849002Y-53975000D02*
X118674001Y-55150001D01*
X140970000Y-53975000D02*
X119849002Y-53975000D01*
X167545001Y-55150001D02*
X166370000Y-53975000D01*
X169474001Y-55150001D02*
X167545001Y-55150001D01*
X170649002Y-53975000D02*
X169474001Y-55150001D01*
X191770000Y-53975000D02*
X170649002Y-53975000D01*
X142145001Y-55150001D02*
X140970000Y-53975000D01*
X144074001Y-55150001D02*
X142145001Y-55150001D01*
X145249002Y-53975000D02*
X144074001Y-55150001D01*
X166370000Y-53975000D02*
X145249002Y-53975000D01*
X196088000Y-53975000D02*
X194912999Y-55150001D01*
X217170000Y-53975000D02*
X196088000Y-53975000D01*
X194912999Y-55150001D02*
X192945001Y-55150001D01*
X218981412Y-55150001D02*
X222217999Y-55150001D01*
X217170000Y-53975000D02*
X217806411Y-53975000D01*
X217806411Y-53975000D02*
X218981412Y-55150001D01*
X222217999Y-55150001D02*
X223393000Y-53975000D01*
X90170000Y-53975000D02*
X83947000Y-53975000D01*
X91345001Y-55150001D02*
X90170000Y-53975000D01*
X93274001Y-55150001D02*
X91345001Y-55150001D01*
%TO.N,/37*%
X192945001Y-52610001D02*
X191770000Y-51435000D01*
X94449002Y-51435000D02*
X93084003Y-52799999D01*
X115570000Y-51435000D02*
X94449002Y-51435000D01*
X116370998Y-51435000D02*
X115570000Y-51435000D01*
X117545999Y-52610001D02*
X116370998Y-51435000D01*
X118674001Y-52610001D02*
X117545999Y-52610001D01*
X119849002Y-51435000D02*
X118674001Y-52610001D01*
X140970000Y-51435000D02*
X119849002Y-51435000D01*
X167545001Y-52610001D02*
X166370000Y-51435000D01*
X169474001Y-52610001D02*
X167545001Y-52610001D01*
X170649002Y-51435000D02*
X169474001Y-52610001D01*
X191770000Y-51435000D02*
X170649002Y-51435000D01*
X142145001Y-52610001D02*
X140970000Y-51435000D01*
X144074001Y-52610001D02*
X142145001Y-52610001D01*
X166370000Y-51435000D02*
X145249002Y-51435000D01*
X145249002Y-51435000D02*
X144074001Y-52610001D01*
X196088000Y-51435000D02*
X194912999Y-52610001D01*
X217170000Y-51435000D02*
X196088000Y-51435000D01*
X194912999Y-52610001D02*
X192945001Y-52610001D01*
X217170000Y-51435000D02*
X217806411Y-51435000D01*
X222217999Y-52610001D02*
X223393000Y-51435000D01*
X217806411Y-51435000D02*
X218981412Y-52610001D01*
X218981412Y-52610001D02*
X222217999Y-52610001D01*
X90170000Y-51435000D02*
X83947000Y-51435000D01*
X91534999Y-52799999D02*
X90170000Y-51435000D01*
X93084003Y-52799999D02*
X91534999Y-52799999D01*
%TO.N,/38*%
X192945001Y-50070001D02*
X191770000Y-48895000D01*
X94449002Y-48895000D02*
X93274001Y-50070001D01*
X115570000Y-48895000D02*
X94449002Y-48895000D01*
X140970000Y-48895000D02*
X119849002Y-48895000D01*
X116745001Y-50070001D02*
X115570000Y-48895000D01*
X118674001Y-50070001D02*
X116745001Y-50070001D01*
X119849002Y-48895000D02*
X118674001Y-50070001D01*
X169474001Y-50070001D02*
X167545001Y-50070001D01*
X170649002Y-48895000D02*
X169474001Y-50070001D01*
X167545001Y-50070001D02*
X166370000Y-48895000D01*
X191770000Y-48895000D02*
X170649002Y-48895000D01*
X142145001Y-50070001D02*
X140970000Y-48895000D01*
X144074001Y-50070001D02*
X142145001Y-50070001D01*
X166370000Y-48895000D02*
X145249002Y-48895000D01*
X145249002Y-48895000D02*
X144074001Y-50070001D01*
X196025002Y-48895000D02*
X194850001Y-50070001D01*
X217170000Y-48895000D02*
X196025002Y-48895000D01*
X194850001Y-50070001D02*
X192945001Y-50070001D01*
X217806411Y-48895000D02*
X218981412Y-50070001D01*
X218981412Y-50070001D02*
X222217999Y-50070001D01*
X217170000Y-48895000D02*
X217806411Y-48895000D01*
X222217999Y-50070001D02*
X223393000Y-48895000D01*
X90170000Y-48895000D02*
X83947000Y-48895000D01*
X90970998Y-48895000D02*
X90170000Y-48895000D01*
X92145999Y-50070001D02*
X90970998Y-48895000D01*
X93274001Y-50070001D02*
X92145999Y-50070001D01*
%TO.N,/39*%
X217170000Y-46355000D02*
X196213589Y-46355000D01*
X196213589Y-46355000D02*
X195038588Y-47530001D01*
X195038588Y-47530001D02*
X192945001Y-47530001D01*
X192945001Y-47530001D02*
X191770000Y-46355000D01*
X94449002Y-46355000D02*
X93274001Y-47530001D01*
X115570000Y-46355000D02*
X94449002Y-46355000D01*
X118674001Y-47530001D02*
X116745001Y-47530001D01*
X119849002Y-46355000D02*
X118674001Y-47530001D01*
X116745001Y-47530001D02*
X115570000Y-46355000D01*
X140970000Y-46355000D02*
X119849002Y-46355000D01*
X169474001Y-47530001D02*
X167545001Y-47530001D01*
X167545001Y-47530001D02*
X166370000Y-46355000D01*
X170649002Y-46355000D02*
X169474001Y-47530001D01*
X191770000Y-46355000D02*
X170649002Y-46355000D01*
X141770998Y-46355000D02*
X140970000Y-46355000D01*
X144074001Y-47530001D02*
X142945999Y-47530001D01*
X145249002Y-46355000D02*
X144074001Y-47530001D01*
X142945999Y-47530001D02*
X141770998Y-46355000D01*
X166370000Y-46355000D02*
X145249002Y-46355000D01*
X222217999Y-47530001D02*
X223393000Y-46355000D01*
X217970998Y-46355000D02*
X219145999Y-47530001D01*
X219145999Y-47530001D02*
X222217999Y-47530001D01*
X217170000Y-46355000D02*
X217970998Y-46355000D01*
X90170000Y-46355000D02*
X83947000Y-46355000D01*
X93274001Y-47530001D02*
X91345001Y-47530001D01*
X91345001Y-47530001D02*
X90170000Y-46355000D01*
%TO.N,/40*%
X196213589Y-43815000D02*
X195038588Y-44990001D01*
X217170000Y-43815000D02*
X196213589Y-43815000D01*
X195038588Y-44990001D02*
X192945001Y-44990001D01*
X192945001Y-44990001D02*
X191770000Y-43815000D01*
X118674001Y-44990001D02*
X116745001Y-44990001D01*
X119849002Y-43815000D02*
X118674001Y-44990001D01*
X140970000Y-43815000D02*
X119849002Y-43815000D01*
X116745001Y-44990001D02*
X115570000Y-43815000D01*
X167545001Y-44990001D02*
X166370000Y-43815000D01*
X169474001Y-44990001D02*
X167545001Y-44990001D01*
X170649002Y-43815000D02*
X169474001Y-44990001D01*
X191770000Y-43815000D02*
X170649002Y-43815000D01*
X141770998Y-43815000D02*
X140970000Y-43815000D01*
X142945999Y-44990001D02*
X141770998Y-43815000D01*
X144074001Y-44990001D02*
X142945999Y-44990001D01*
X145249002Y-43815000D02*
X144074001Y-44990001D01*
X166370000Y-43815000D02*
X145249002Y-43815000D01*
X217970998Y-43815000D02*
X219145999Y-44990001D01*
X222217999Y-44990001D02*
X223393000Y-43815000D01*
X219145999Y-44990001D02*
X222217999Y-44990001D01*
X217170000Y-43815000D02*
X217970998Y-43815000D01*
X90170000Y-43815000D02*
X83947000Y-43815000D01*
X94449002Y-43815000D02*
X93274001Y-44990001D01*
X93274001Y-44990001D02*
X91345001Y-44990001D01*
X115570000Y-43815000D02*
X94449002Y-43815000D01*
X91345001Y-44990001D02*
X90170000Y-43815000D01*
%TO.N,/41*%
X195485001Y-42639999D02*
X194310000Y-43815000D01*
X116934999Y-42639999D02*
X93885001Y-42639999D01*
X118110000Y-43815000D02*
X116934999Y-42639999D01*
X119285001Y-42639999D02*
X118110000Y-43815000D01*
X142334999Y-42639999D02*
X119285001Y-42639999D01*
X143510000Y-43815000D02*
X142334999Y-42639999D01*
X170085001Y-42639999D02*
X168910000Y-43815000D01*
X193134999Y-42639999D02*
X170085001Y-42639999D01*
X194310000Y-43815000D02*
X193134999Y-42639999D01*
X144685001Y-42639999D02*
X143510000Y-43815000D01*
X167734999Y-42639999D02*
X144685001Y-42639999D01*
X168910000Y-43815000D02*
X167734999Y-42639999D01*
X93885001Y-42639999D02*
X92710000Y-43815000D01*
X218534999Y-42639999D02*
X219710000Y-43815000D01*
X195485001Y-42639999D02*
X218534999Y-42639999D01*
X224757999Y-42639999D02*
X225933000Y-43815000D01*
X220885001Y-42639999D02*
X224757999Y-42639999D01*
X219710000Y-43815000D02*
X220885001Y-42639999D01*
X91534999Y-42639999D02*
X82582001Y-42639999D01*
X82582001Y-42639999D02*
X81407000Y-43815000D01*
X92710000Y-43815000D02*
X91534999Y-42639999D01*
%TO.N,/42*%
X142334999Y-45179999D02*
X119285001Y-45179999D01*
X119285001Y-45179999D02*
X118110000Y-46355000D01*
X143510000Y-46355000D02*
X142334999Y-45179999D01*
X118110000Y-46355000D02*
X117473589Y-46355000D01*
X116298588Y-45179999D02*
X93885001Y-45179999D01*
X117473589Y-46355000D02*
X116298588Y-45179999D01*
X93885001Y-45179999D02*
X92710000Y-46355000D01*
X170085001Y-45179999D02*
X168910000Y-46355000D01*
X193509002Y-46355000D02*
X192334001Y-45179999D01*
X192334001Y-45179999D02*
X170085001Y-45179999D01*
X194310000Y-46355000D02*
X193509002Y-46355000D01*
X144685001Y-45179999D02*
X143510000Y-46355000D01*
X166934001Y-45179999D02*
X144685001Y-45179999D01*
X168109002Y-46355000D02*
X166934001Y-45179999D01*
X168910000Y-46355000D02*
X168109002Y-46355000D01*
X195485001Y-45179999D02*
X218534999Y-45179999D01*
X218534999Y-45179999D02*
X219710000Y-46355000D01*
X194310000Y-46355000D02*
X195485001Y-45179999D01*
X222828999Y-45179999D02*
X224757999Y-45179999D01*
X221653998Y-46355000D02*
X222828999Y-45179999D01*
X224757999Y-45179999D02*
X225933000Y-46355000D01*
X219710000Y-46355000D02*
X221653998Y-46355000D01*
X92710000Y-46355000D02*
X92073589Y-46355000D01*
X92073589Y-46355000D02*
X90898588Y-45179999D01*
X90898588Y-45179999D02*
X82582001Y-45179999D01*
X82582001Y-45179999D02*
X81407000Y-46355000D01*
%TO.N,/43*%
X119285001Y-47719999D02*
X118110000Y-48895000D01*
X142334999Y-47719999D02*
X119285001Y-47719999D01*
X143510000Y-48895000D02*
X142334999Y-47719999D01*
X93885001Y-47719999D02*
X92710000Y-48895000D01*
X118110000Y-48895000D02*
X117473589Y-48895000D01*
X117473589Y-48895000D02*
X116298588Y-47719999D01*
X116298588Y-47719999D02*
X93885001Y-47719999D01*
X192334001Y-47719999D02*
X170085001Y-47719999D01*
X170085001Y-47719999D02*
X168910000Y-48895000D01*
X193509002Y-48895000D02*
X192334001Y-47719999D01*
X194310000Y-48895000D02*
X193509002Y-48895000D01*
X166934001Y-47719999D02*
X144685001Y-47719999D01*
X144685001Y-47719999D02*
X143510000Y-48895000D01*
X168109002Y-48895000D02*
X166934001Y-47719999D01*
X168910000Y-48895000D02*
X168109002Y-48895000D01*
X218534999Y-47719999D02*
X219710000Y-48895000D01*
X195485001Y-47719999D02*
X218534999Y-47719999D01*
X194310000Y-48895000D02*
X195485001Y-47719999D01*
X224757999Y-47719999D02*
X225933000Y-48895000D01*
X222828999Y-47719999D02*
X224757999Y-47719999D01*
X221653998Y-48895000D02*
X222828999Y-47719999D01*
X219710000Y-48895000D02*
X221653998Y-48895000D01*
X82582001Y-47719999D02*
X81407000Y-48895000D01*
X92073589Y-48895000D02*
X90898588Y-47719999D01*
X92710000Y-48895000D02*
X92073589Y-48895000D01*
X90898588Y-47719999D02*
X82582001Y-47719999D01*
%TO.N,/44*%
X93885001Y-50259999D02*
X92710000Y-51435000D01*
X117473589Y-51435000D02*
X116298588Y-50259999D01*
X118110000Y-51435000D02*
X117473589Y-51435000D01*
X116298588Y-50259999D02*
X93885001Y-50259999D01*
X192334001Y-50259999D02*
X170085001Y-50259999D01*
X193509002Y-51435000D02*
X192334001Y-50259999D01*
X170085001Y-50259999D02*
X168910000Y-51435000D01*
X194310000Y-51435000D02*
X193509002Y-51435000D01*
X144685001Y-50259999D02*
X143510000Y-51435000D01*
X166934001Y-50259999D02*
X144685001Y-50259999D01*
X168109002Y-51435000D02*
X166934001Y-50259999D01*
X168910000Y-51435000D02*
X168109002Y-51435000D01*
X141698588Y-50259999D02*
X119285001Y-50259999D01*
X143510000Y-51435000D02*
X142873589Y-51435000D01*
X142873589Y-51435000D02*
X141698588Y-50259999D01*
X119285001Y-50259999D02*
X118110000Y-51435000D01*
X224757999Y-50259999D02*
X225933000Y-51435000D01*
X221653998Y-51435000D02*
X222828999Y-50259999D01*
X222828999Y-50259999D02*
X224757999Y-50259999D01*
X219710000Y-51435000D02*
X221653998Y-51435000D01*
X218534999Y-50259999D02*
X219710000Y-51435000D01*
X194310000Y-51435000D02*
X195485001Y-50259999D01*
X195485001Y-50259999D02*
X218534999Y-50259999D01*
X91534999Y-50259999D02*
X82582001Y-50259999D01*
X82582001Y-50259999D02*
X81407000Y-51435000D01*
X92710000Y-51435000D02*
X91534999Y-50259999D01*
%TO.N,/45*%
X93885001Y-52799999D02*
X92710000Y-53975000D01*
X116934999Y-52799999D02*
X93885001Y-52799999D01*
X118110000Y-53975000D02*
X116934999Y-52799999D01*
X170274999Y-52610001D02*
X168910000Y-53975000D01*
X192144003Y-52610001D02*
X170274999Y-52610001D01*
X193509002Y-53975000D02*
X192144003Y-52610001D01*
X194310000Y-53975000D02*
X193509002Y-53975000D01*
X166744003Y-52610001D02*
X144874999Y-52610001D01*
X144874999Y-52610001D02*
X143510000Y-53975000D01*
X168109002Y-53975000D02*
X166744003Y-52610001D01*
X168910000Y-53975000D02*
X168109002Y-53975000D01*
X143510000Y-53975000D02*
X142873589Y-53975000D01*
X142873589Y-53975000D02*
X141698588Y-52799999D01*
X141698588Y-52799999D02*
X119285001Y-52799999D01*
X119285001Y-52799999D02*
X118110000Y-53975000D01*
X218534999Y-52799999D02*
X219710000Y-53975000D01*
X195485001Y-52799999D02*
X218534999Y-52799999D01*
X194310000Y-53975000D02*
X195485001Y-52799999D01*
X224757999Y-52799999D02*
X225933000Y-53975000D01*
X222828999Y-52799999D02*
X224757999Y-52799999D01*
X221653998Y-53975000D02*
X222828999Y-52799999D01*
X219710000Y-53975000D02*
X221653998Y-53975000D01*
X92073590Y-53975000D02*
X90898589Y-52799999D01*
X90898589Y-52799999D02*
X82582001Y-52799999D01*
X92710000Y-53975000D02*
X92073590Y-53975000D01*
X82582001Y-52799999D02*
X81407000Y-53975000D01*
%TO.N,/46*%
X118110000Y-56515000D02*
X117473589Y-56515000D01*
X93885001Y-55339999D02*
X92710000Y-56515000D01*
X116298588Y-55339999D02*
X93885001Y-55339999D01*
X117473589Y-56515000D02*
X116298588Y-55339999D01*
X170085001Y-55339999D02*
X168910000Y-56515000D01*
X192334001Y-55339999D02*
X170085001Y-55339999D01*
X193509002Y-56515000D02*
X192334001Y-55339999D01*
X194310000Y-56515000D02*
X193509002Y-56515000D01*
X168109002Y-56515000D02*
X166934001Y-55339999D01*
X144685001Y-55339999D02*
X143510000Y-56515000D01*
X166934001Y-55339999D02*
X144685001Y-55339999D01*
X168910000Y-56515000D02*
X168109002Y-56515000D01*
X142873589Y-56515000D02*
X141698588Y-55339999D01*
X143510000Y-56515000D02*
X142873589Y-56515000D01*
X119285001Y-55339999D02*
X118110000Y-56515000D01*
X141698588Y-55339999D02*
X119285001Y-55339999D01*
X195485001Y-55339999D02*
X218534999Y-55339999D01*
X218534999Y-55339999D02*
X219710000Y-56515000D01*
X194310000Y-56515000D02*
X195485001Y-55339999D01*
X224757999Y-55339999D02*
X225933000Y-56515000D01*
X222828999Y-55339999D02*
X224757999Y-55339999D01*
X221653998Y-56515000D02*
X222828999Y-55339999D01*
X219710000Y-56515000D02*
X221653998Y-56515000D01*
X82582001Y-55339999D02*
X81407000Y-56515000D01*
X92073589Y-56515000D02*
X90898588Y-55339999D01*
X92710000Y-56515000D02*
X92073589Y-56515000D01*
X90898588Y-55339999D02*
X82582001Y-55339999D01*
%TO.N,/47*%
X93885001Y-57879999D02*
X92710000Y-59055000D01*
X116934999Y-57879999D02*
X93885001Y-57879999D01*
X118110000Y-59055000D02*
X116934999Y-57879999D01*
X170085001Y-57879999D02*
X168910000Y-59055000D01*
X192334001Y-57879999D02*
X170085001Y-57879999D01*
X193509002Y-59055000D02*
X192334001Y-57879999D01*
X194310000Y-59055000D02*
X193509002Y-59055000D01*
X168109002Y-59055000D02*
X166744003Y-57690001D01*
X142334999Y-57879999D02*
X119285001Y-57879999D01*
X166744003Y-57690001D02*
X144874999Y-57690001D01*
X168910000Y-59055000D02*
X168109002Y-59055000D01*
X144874999Y-57690001D02*
X143510000Y-59055000D01*
X119285001Y-57879999D02*
X118110000Y-59055000D01*
X143510000Y-59055000D02*
X142334999Y-57879999D01*
X195485001Y-57879999D02*
X194310000Y-59055000D01*
X217734001Y-57879999D02*
X195485001Y-57879999D01*
X218345001Y-58490999D02*
X219145999Y-58490999D01*
X219145999Y-58490999D02*
X219710000Y-59055000D01*
X217734001Y-57879999D02*
X218345001Y-58490999D01*
X224757999Y-57879999D02*
X225933000Y-59055000D01*
X222828999Y-57879999D02*
X224757999Y-57879999D01*
X221653998Y-59055000D02*
X222828999Y-57879999D01*
X219710000Y-59055000D02*
X221653998Y-59055000D01*
X92073589Y-59055000D02*
X90898588Y-57879999D01*
X82582001Y-57879999D02*
X81407000Y-59055000D01*
X92710000Y-59055000D02*
X92073589Y-59055000D01*
X90898588Y-57879999D02*
X82582001Y-57879999D01*
%TO.N,/48*%
X116298588Y-60419999D02*
X93885001Y-60419999D01*
X118110000Y-61595000D02*
X117473589Y-61595000D01*
X117473589Y-61595000D02*
X116298588Y-60419999D01*
X93885001Y-60419999D02*
X92710000Y-61595000D01*
X170085001Y-60419999D02*
X168910000Y-61595000D01*
X192334001Y-60419999D02*
X170085001Y-60419999D01*
X193509002Y-61595000D02*
X192334001Y-60419999D01*
X194310000Y-61595000D02*
X193509002Y-61595000D01*
X144685001Y-60419999D02*
X143510000Y-61595000D01*
X166934001Y-60419999D02*
X144685001Y-60419999D01*
X168109002Y-61595000D02*
X166934001Y-60419999D01*
X168910000Y-61595000D02*
X168109002Y-61595000D01*
X141698588Y-60419999D02*
X119285001Y-60419999D01*
X143510000Y-61595000D02*
X142873589Y-61595000D01*
X142873589Y-61595000D02*
X141698588Y-60419999D01*
X119285001Y-60419999D02*
X118110000Y-61595000D01*
X218440000Y-60325000D02*
X219710000Y-61595000D01*
X195580000Y-60325000D02*
X218440000Y-60325000D01*
X194310000Y-61595000D02*
X195580000Y-60325000D01*
X222828999Y-60419999D02*
X224757999Y-60419999D01*
X224757999Y-60419999D02*
X225933000Y-61595000D01*
X221653998Y-61595000D02*
X222828999Y-60419999D01*
X219710000Y-61595000D02*
X221653998Y-61595000D01*
X82582001Y-60419999D02*
X81407000Y-61595000D01*
X91534999Y-60419999D02*
X82582001Y-60419999D01*
X92710000Y-61595000D02*
X91534999Y-60419999D01*
%TO.N,/49*%
X117473589Y-64135000D02*
X116298588Y-62959999D01*
X118110000Y-64135000D02*
X117473589Y-64135000D01*
X116298588Y-62959999D02*
X93885001Y-62959999D01*
X93885001Y-62959999D02*
X92710000Y-64135000D01*
X170085001Y-62959999D02*
X168910000Y-64135000D01*
X192334001Y-62959999D02*
X170085001Y-62959999D01*
X193509002Y-64135000D02*
X192334001Y-62959999D01*
X194310000Y-64135000D02*
X193509002Y-64135000D01*
X144685001Y-62959999D02*
X143510000Y-64135000D01*
X168109002Y-64135000D02*
X166934001Y-62959999D01*
X166934001Y-62959999D02*
X144685001Y-62959999D01*
X168910000Y-64135000D02*
X168109002Y-64135000D01*
X143510000Y-64135000D02*
X142873589Y-64135000D01*
X142873589Y-64135000D02*
X141698588Y-62959999D01*
X141698588Y-62959999D02*
X119285001Y-62959999D01*
X119285001Y-62959999D02*
X118110000Y-64135000D01*
X218534999Y-62959999D02*
X219710000Y-64135000D01*
X195485001Y-62959999D02*
X218534999Y-62959999D01*
X194310000Y-64135000D02*
X195485001Y-62959999D01*
X224757999Y-62959999D02*
X225933000Y-64135000D01*
X222828999Y-62959999D02*
X224757999Y-62959999D01*
X221653998Y-64135000D02*
X222828999Y-62959999D01*
X219710000Y-64135000D02*
X221653998Y-64135000D01*
X92710000Y-64135000D02*
X92073589Y-64135000D01*
X90898588Y-62959999D02*
X82582001Y-62959999D01*
X92073589Y-64135000D02*
X90898588Y-62959999D01*
X82582001Y-62959999D02*
X81407000Y-64135000D01*
%TO.N,/50*%
X93885001Y-65499999D02*
X92710000Y-66675000D01*
X116934999Y-65499999D02*
X93885001Y-65499999D01*
X118110000Y-66675000D02*
X116934999Y-65499999D01*
X119474999Y-65310001D02*
X118110000Y-66675000D01*
X142145001Y-65310001D02*
X119474999Y-65310001D01*
X143510000Y-66675000D02*
X142145001Y-65310001D01*
X170274999Y-65310001D02*
X168910000Y-66675000D01*
X192144003Y-65310001D02*
X170274999Y-65310001D01*
X193509002Y-66675000D02*
X192144003Y-65310001D01*
X194310000Y-66675000D02*
X193509002Y-66675000D01*
X167098588Y-65499999D02*
X144685001Y-65499999D01*
X168273589Y-66675000D02*
X167098588Y-65499999D01*
X168910000Y-66675000D02*
X168273589Y-66675000D01*
X144685001Y-65499999D02*
X143510000Y-66675000D01*
X218534999Y-65499999D02*
X219710000Y-66675000D01*
X195485001Y-65499999D02*
X218534999Y-65499999D01*
X194310000Y-66675000D02*
X195485001Y-65499999D01*
X221653998Y-66675000D02*
X222828999Y-65499999D01*
X224757999Y-65499999D02*
X225933000Y-66675000D01*
X222828999Y-65499999D02*
X224757999Y-65499999D01*
X219710000Y-66675000D02*
X221653998Y-66675000D01*
X92710000Y-66675000D02*
X92073589Y-66675000D01*
X92073589Y-66675000D02*
X90898588Y-65499999D01*
X90898588Y-65499999D02*
X82582001Y-65499999D01*
X82582001Y-65499999D02*
X81407000Y-66675000D01*
%TO.N,/51*%
X118110000Y-69215000D02*
X117473589Y-69215000D01*
X117473589Y-69215000D02*
X116298588Y-68039999D01*
X116298588Y-68039999D02*
X93885001Y-68039999D01*
X93885001Y-68039999D02*
X92710000Y-69215000D01*
X192334001Y-68039999D02*
X170085001Y-68039999D01*
X193509002Y-69215000D02*
X192334001Y-68039999D01*
X170085001Y-68039999D02*
X168910000Y-69215000D01*
X194310000Y-69215000D02*
X193509002Y-69215000D01*
X144685001Y-68039999D02*
X143510000Y-69215000D01*
X166934001Y-68039999D02*
X144685001Y-68039999D01*
X168109002Y-69215000D02*
X166934001Y-68039999D01*
X168910000Y-69215000D02*
X168109002Y-69215000D01*
X143510000Y-69215000D02*
X142873589Y-69215000D01*
X142873589Y-69215000D02*
X141698588Y-68039999D01*
X141698588Y-68039999D02*
X119285001Y-68039999D01*
X119285001Y-68039999D02*
X118110000Y-69215000D01*
X218534999Y-68039999D02*
X219710000Y-69215000D01*
X196374001Y-68039999D02*
X218534999Y-68039999D01*
X195199000Y-69215000D02*
X196374001Y-68039999D01*
X194310000Y-69215000D02*
X195199000Y-69215000D01*
X224568001Y-67850001D02*
X225933000Y-69215000D01*
X221653998Y-69215000D02*
X223018997Y-67850001D01*
X223018997Y-67850001D02*
X224568001Y-67850001D01*
X219710000Y-69215000D02*
X221653998Y-69215000D01*
X82582001Y-68039999D02*
X81407000Y-69215000D01*
X92073589Y-69215000D02*
X90898588Y-68039999D01*
X92710000Y-69215000D02*
X92073589Y-69215000D01*
X90898588Y-68039999D02*
X82582001Y-68039999D01*
%TO.N,/52*%
X119285001Y-70579999D02*
X118110000Y-71755000D01*
X142334999Y-70579999D02*
X119285001Y-70579999D01*
X143510000Y-71755000D02*
X142334999Y-70579999D01*
X117473589Y-71755000D02*
X116298588Y-70579999D01*
X118110000Y-71755000D02*
X117473589Y-71755000D01*
X116298588Y-70579999D02*
X93885001Y-70579999D01*
X93885001Y-70579999D02*
X92710000Y-71755000D01*
X192334001Y-70579999D02*
X170085001Y-70579999D01*
X170085001Y-70579999D02*
X168910000Y-71755000D01*
X193509002Y-71755000D02*
X192334001Y-70579999D01*
X194310000Y-71755000D02*
X193509002Y-71755000D01*
X144685001Y-70579999D02*
X143510000Y-71755000D01*
X166934001Y-70579999D02*
X144685001Y-70579999D01*
X168109002Y-71755000D02*
X166934001Y-70579999D01*
X168910000Y-71755000D02*
X168109002Y-71755000D01*
X218534999Y-70579999D02*
X219710000Y-71755000D01*
X195485001Y-70579999D02*
X218534999Y-70579999D01*
X194310000Y-71755000D02*
X195485001Y-70579999D01*
X224757999Y-70579999D02*
X225933000Y-71755000D01*
X222828999Y-70579999D02*
X224757999Y-70579999D01*
X221653998Y-71755000D02*
X222828999Y-70579999D01*
X219710000Y-71755000D02*
X221653998Y-71755000D01*
X82582001Y-70579999D02*
X81407000Y-71755000D01*
X91534999Y-70579999D02*
X82582001Y-70579999D01*
X92710000Y-71755000D02*
X91534999Y-70579999D01*
%TO.N,/53*%
X119285001Y-73119999D02*
X118110000Y-74295000D01*
X142334999Y-73119999D02*
X119285001Y-73119999D01*
X143510000Y-74295000D02*
X142334999Y-73119999D01*
X117473589Y-74295000D02*
X116298588Y-73119999D01*
X93885001Y-73119999D02*
X92710000Y-74295000D01*
X116298588Y-73119999D02*
X93885001Y-73119999D01*
X118110000Y-74295000D02*
X117473589Y-74295000D01*
X170085001Y-73119999D02*
X168910000Y-74295000D01*
X192334001Y-73119999D02*
X170085001Y-73119999D01*
X193509002Y-74295000D02*
X192334001Y-73119999D01*
X194310000Y-74295000D02*
X193509002Y-74295000D01*
X144685001Y-73119999D02*
X143510000Y-74295000D01*
X167734999Y-73119999D02*
X144685001Y-73119999D01*
X168910000Y-74295000D02*
X167734999Y-73119999D01*
X195485001Y-73119999D02*
X218534999Y-73119999D01*
X218534999Y-73119999D02*
X219710000Y-74295000D01*
X194310000Y-74295000D02*
X195485001Y-73119999D01*
X222828999Y-73119999D02*
X224757999Y-73119999D01*
X221653998Y-74295000D02*
X222828999Y-73119999D01*
X224757999Y-73119999D02*
X225933000Y-74295000D01*
X219710000Y-74295000D02*
X221653998Y-74295000D01*
X92073589Y-74295000D02*
X90898588Y-73119999D01*
X82582001Y-73119999D02*
X81407000Y-74295000D01*
X92710000Y-74295000D02*
X92073589Y-74295000D01*
X90898588Y-73119999D02*
X82582001Y-73119999D01*
%TO.N,/54*%
X93885001Y-75659999D02*
X92710000Y-76835000D01*
X116934999Y-75659999D02*
X93885001Y-75659999D01*
X118110000Y-76835000D02*
X116934999Y-75659999D01*
X170085001Y-75659999D02*
X168910000Y-76835000D01*
X192334001Y-75659999D02*
X170085001Y-75659999D01*
X193509002Y-76835000D02*
X192334001Y-75659999D01*
X194310000Y-76835000D02*
X193509002Y-76835000D01*
X168910000Y-76835000D02*
X168884590Y-76835000D01*
X167709589Y-75659999D02*
X144685001Y-75659999D01*
X168884590Y-76835000D02*
X167709589Y-75659999D01*
X144685001Y-75659999D02*
X143510000Y-76835000D01*
X119285001Y-75659999D02*
X118110000Y-76835000D01*
X142873589Y-76835000D02*
X141698588Y-75659999D01*
X143510000Y-76835000D02*
X142873589Y-76835000D01*
X141698588Y-75659999D02*
X119285001Y-75659999D01*
X218534999Y-75659999D02*
X219710000Y-76835000D01*
X195485001Y-75659999D02*
X218534999Y-75659999D01*
X194310000Y-76835000D02*
X195485001Y-75659999D01*
X222828999Y-75659999D02*
X224757999Y-75659999D01*
X224757999Y-75659999D02*
X225933000Y-76835000D01*
X221653998Y-76835000D02*
X222828999Y-75659999D01*
X219710000Y-76835000D02*
X221653998Y-76835000D01*
X92710000Y-76835000D02*
X92073589Y-76835000D01*
X92073589Y-76835000D02*
X90898588Y-75659999D01*
X90898588Y-75659999D02*
X82582001Y-75659999D01*
X82582001Y-75659999D02*
X81407000Y-76835000D01*
%TO.N,/55*%
X94074999Y-78010001D02*
X92710000Y-79375000D01*
X116745001Y-78010001D02*
X94074999Y-78010001D01*
X118110000Y-79375000D02*
X116745001Y-78010001D01*
X119285001Y-78199999D02*
X118110000Y-79375000D01*
X142334999Y-78199999D02*
X119285001Y-78199999D01*
X143510000Y-79375000D02*
X142334999Y-78199999D01*
X192334001Y-78199999D02*
X170085001Y-78199999D01*
X193509002Y-79375000D02*
X192334001Y-78199999D01*
X170085001Y-78199999D02*
X168910000Y-79375000D01*
X194310000Y-79375000D02*
X193509002Y-79375000D01*
X168109002Y-79375000D02*
X166934001Y-78199999D01*
X144685001Y-78199999D02*
X143510000Y-79375000D01*
X166934001Y-78199999D02*
X144685001Y-78199999D01*
X168910000Y-79375000D02*
X168109002Y-79375000D01*
X218534999Y-78199999D02*
X219710000Y-79375000D01*
X195485001Y-78199999D02*
X218534999Y-78199999D01*
X194310000Y-79375000D02*
X195485001Y-78199999D01*
X224757999Y-78199999D02*
X225933000Y-79375000D01*
X222828999Y-78199999D02*
X224757999Y-78199999D01*
X221653998Y-79375000D02*
X222828999Y-78199999D01*
X219710000Y-79375000D02*
X221653998Y-79375000D01*
X82582001Y-78199999D02*
X81407000Y-79375000D01*
X92073589Y-79375000D02*
X90898588Y-78199999D01*
X92710000Y-79375000D02*
X92073589Y-79375000D01*
X90898588Y-78199999D02*
X82582001Y-78199999D01*
%TO.N,/56*%
X116934999Y-80739999D02*
X118110000Y-81915000D01*
X93885001Y-80739999D02*
X116934999Y-80739999D01*
X92710000Y-81915000D02*
X93885001Y-80739999D01*
X192334001Y-80739999D02*
X170085001Y-80739999D01*
X170085001Y-80739999D02*
X168910000Y-81915000D01*
X193509002Y-81915000D02*
X192334001Y-80739999D01*
X194310000Y-81915000D02*
X193509002Y-81915000D01*
X144685001Y-80739999D02*
X143510000Y-81915000D01*
X166934001Y-80739999D02*
X144685001Y-80739999D01*
X168109002Y-81915000D02*
X166934001Y-80739999D01*
X168910000Y-81915000D02*
X168109002Y-81915000D01*
X119474999Y-80550001D02*
X118110000Y-81915000D01*
X142873590Y-81915000D02*
X141508591Y-80550001D01*
X143510000Y-81915000D02*
X142873590Y-81915000D01*
X141508591Y-80550001D02*
X119474999Y-80550001D01*
X195485001Y-80739999D02*
X217898588Y-80739999D01*
X217898588Y-80739999D02*
X219073589Y-81915000D01*
X194310000Y-81915000D02*
X195485001Y-80739999D01*
X219073589Y-81915000D02*
X219710000Y-81915000D01*
X224757999Y-80739999D02*
X225933000Y-81915000D01*
X222828999Y-80739999D02*
X224757999Y-80739999D01*
X221653998Y-81915000D02*
X222828999Y-80739999D01*
X219710000Y-81915000D02*
X221653998Y-81915000D01*
X92710000Y-81915000D02*
X92073589Y-81915000D01*
X92073589Y-81915000D02*
X90898588Y-80739999D01*
X90898588Y-80739999D02*
X82582001Y-80739999D01*
X82582001Y-80739999D02*
X81407000Y-81915000D01*
%TO.N,/57*%
X117473589Y-84455000D02*
X116298588Y-83279999D01*
X118110000Y-84455000D02*
X117473589Y-84455000D01*
X116298588Y-83279999D02*
X93885001Y-83279999D01*
X93885001Y-83279999D02*
X92710000Y-84455000D01*
X170085001Y-83279999D02*
X168910000Y-84455000D01*
X192334001Y-83279999D02*
X170085001Y-83279999D01*
X193509002Y-84455000D02*
X192334001Y-83279999D01*
X194310000Y-84455000D02*
X193509002Y-84455000D01*
X144685001Y-83279999D02*
X143510000Y-84455000D01*
X166934001Y-83279999D02*
X144685001Y-83279999D01*
X168109002Y-84455000D02*
X166934001Y-83279999D01*
X168910000Y-84455000D02*
X168109002Y-84455000D01*
X143510000Y-84455000D02*
X142873590Y-84455000D01*
X142873590Y-84455000D02*
X141508591Y-83090001D01*
X141508591Y-83090001D02*
X119474999Y-83090001D01*
X119474999Y-83090001D02*
X118110000Y-84455000D01*
X218534999Y-83279999D02*
X219710000Y-84455000D01*
X195485001Y-83279999D02*
X218534999Y-83279999D01*
X194310000Y-84455000D02*
X195485001Y-83279999D01*
X224757999Y-83279999D02*
X225933000Y-84455000D01*
X222828999Y-83279999D02*
X224757999Y-83279999D01*
X221653998Y-84455000D02*
X222828999Y-83279999D01*
X219710000Y-84455000D02*
X221653998Y-84455000D01*
X92710000Y-84455000D02*
X92073589Y-84455000D01*
X82582001Y-83279999D02*
X81407000Y-84455000D01*
X92073589Y-84455000D02*
X90898588Y-83279999D01*
X90898588Y-83279999D02*
X82582001Y-83279999D01*
%TO.N,/58*%
X116934999Y-85819999D02*
X93885001Y-85819999D01*
X93885001Y-85819999D02*
X92710000Y-86995000D01*
X118110000Y-86995000D02*
X116934999Y-85819999D01*
X192334001Y-85819999D02*
X170085001Y-85819999D01*
X170085001Y-85819999D02*
X168910000Y-86995000D01*
X193509002Y-86995000D02*
X192334001Y-85819999D01*
X194310000Y-86995000D02*
X193509002Y-86995000D01*
X144685001Y-85819999D02*
X143510000Y-86995000D01*
X167734999Y-85819999D02*
X144685001Y-85819999D01*
X168910000Y-86995000D02*
X167734999Y-85819999D01*
X142873589Y-86995000D02*
X141698588Y-85819999D01*
X119285001Y-85819999D02*
X118110000Y-86995000D01*
X143510000Y-86995000D02*
X142873589Y-86995000D01*
X141698588Y-85819999D02*
X119285001Y-85819999D01*
X217898588Y-85819999D02*
X219073589Y-86995000D01*
X219073589Y-86995000D02*
X219710000Y-86995000D01*
X195485001Y-85819999D02*
X217898588Y-85819999D01*
X194310000Y-86995000D02*
X195485001Y-85819999D01*
X224757999Y-85819999D02*
X225933000Y-86995000D01*
X222828999Y-85819999D02*
X224757999Y-85819999D01*
X221653998Y-86995000D02*
X222828999Y-85819999D01*
X219710000Y-86995000D02*
X221653998Y-86995000D01*
X90734001Y-85819999D02*
X82582001Y-85819999D01*
X91909002Y-86995000D02*
X90734001Y-85819999D01*
X82582001Y-85819999D02*
X81407000Y-86995000D01*
X92710000Y-86995000D02*
X91909002Y-86995000D01*
%TO.N,/59*%
X117473589Y-89535000D02*
X116298588Y-88359999D01*
X118110000Y-89535000D02*
X117473589Y-89535000D01*
X93885001Y-88359999D02*
X92710000Y-89535000D01*
X116298588Y-88359999D02*
X93885001Y-88359999D01*
X192334001Y-88359999D02*
X170085001Y-88359999D01*
X193509002Y-89535000D02*
X192334001Y-88359999D01*
X170085001Y-88359999D02*
X168910000Y-89535000D01*
X194310000Y-89535000D02*
X193509002Y-89535000D01*
X143510000Y-89535000D02*
X142873589Y-89535000D01*
X119285001Y-88359999D02*
X118110000Y-89535000D01*
X142873589Y-89535000D02*
X141698588Y-88359999D01*
X141698588Y-88359999D02*
X119285001Y-88359999D01*
X144685001Y-88359999D02*
X143510000Y-89535000D01*
X166934001Y-88359999D02*
X144685001Y-88359999D01*
X168109002Y-89535000D02*
X166934001Y-88359999D01*
X168910000Y-89535000D02*
X168109002Y-89535000D01*
X218534999Y-88359999D02*
X219710000Y-89535000D01*
X195485001Y-88359999D02*
X218534999Y-88359999D01*
X194310000Y-89535000D02*
X195485001Y-88359999D01*
X224757999Y-88359999D02*
X225933000Y-89535000D01*
X222828999Y-88359999D02*
X224757999Y-88359999D01*
X221653998Y-89535000D02*
X222828999Y-88359999D01*
X219710000Y-89535000D02*
X221653998Y-89535000D01*
X82582001Y-88359999D02*
X81407000Y-89535000D01*
X90734001Y-88359999D02*
X82582001Y-88359999D01*
X91909002Y-89535000D02*
X90734001Y-88359999D01*
X92710000Y-89535000D02*
X91909002Y-89535000D01*
%TO.N,/60*%
X117473589Y-92075000D02*
X116298588Y-90899999D01*
X116298588Y-90899999D02*
X93885001Y-90899999D01*
X93885001Y-90899999D02*
X92710000Y-92075000D01*
X118110000Y-92075000D02*
X117473589Y-92075000D01*
X170085001Y-90899999D02*
X168910000Y-92075000D01*
X192334001Y-90899999D02*
X170085001Y-90899999D01*
X193509002Y-92075000D02*
X192334001Y-90899999D01*
X194310000Y-92075000D02*
X193509002Y-92075000D01*
X168273590Y-92075000D02*
X166908591Y-90710001D01*
X168910000Y-92075000D02*
X168273590Y-92075000D01*
X144874999Y-90710001D02*
X143510000Y-92075000D01*
X166908591Y-90710001D02*
X144874999Y-90710001D01*
X143510000Y-92075000D02*
X142873589Y-92075000D01*
X142873589Y-92075000D02*
X141698588Y-90899999D01*
X141698588Y-90899999D02*
X119285001Y-90899999D01*
X119285001Y-90899999D02*
X118110000Y-92075000D01*
X218534999Y-90899999D02*
X219710000Y-92075000D01*
X195485001Y-90899999D02*
X218534999Y-90899999D01*
X194310000Y-92075000D02*
X195485001Y-90899999D01*
X224757999Y-90899999D02*
X225933000Y-92075000D01*
X222828999Y-90899999D02*
X224757999Y-90899999D01*
X221653998Y-92075000D02*
X222828999Y-90899999D01*
X219710000Y-92075000D02*
X221653998Y-92075000D01*
X82582001Y-90899999D02*
X81407000Y-92075000D01*
X90734001Y-90899999D02*
X82582001Y-90899999D01*
X91909002Y-92075000D02*
X90734001Y-90899999D01*
X92710000Y-92075000D02*
X91909002Y-92075000D01*
%TO.N,/61*%
X93885001Y-93439999D02*
X92710000Y-94615000D01*
X116934999Y-93439999D02*
X93885001Y-93439999D01*
X118110000Y-94615000D02*
X116934999Y-93439999D01*
X144685001Y-93439999D02*
X143510000Y-94615000D01*
X167734999Y-93439999D02*
X144685001Y-93439999D01*
X168910000Y-94615000D02*
X167734999Y-93439999D01*
X141698588Y-93439999D02*
X119285001Y-93439999D01*
X143510000Y-94615000D02*
X142873589Y-94615000D01*
X119285001Y-93439999D02*
X118110000Y-94615000D01*
X142873589Y-94615000D02*
X141698588Y-93439999D01*
X192334001Y-93439999D02*
X170085001Y-93439999D01*
X170085001Y-93439999D02*
X168910000Y-94615000D01*
X193509002Y-94615000D02*
X192334001Y-93439999D01*
X194310000Y-94615000D02*
X193509002Y-94615000D01*
X218534999Y-93439999D02*
X219710000Y-94615000D01*
X195485001Y-93439999D02*
X218534999Y-93439999D01*
X194310000Y-94615000D02*
X195485001Y-93439999D01*
X222828999Y-93439999D02*
X224757999Y-93439999D01*
X221653998Y-94615000D02*
X222828999Y-93439999D01*
X224757999Y-93439999D02*
X225933000Y-94615000D01*
X219710000Y-94615000D02*
X221653998Y-94615000D01*
X82582001Y-93439999D02*
X81407000Y-94615000D01*
X90734001Y-93439999D02*
X82582001Y-93439999D01*
X92710000Y-94615000D02*
X91909002Y-94615000D01*
X91909002Y-94615000D02*
X90734001Y-93439999D01*
%TO.N,/62*%
X118110000Y-97155000D02*
X117473589Y-97155000D01*
X93885001Y-95979999D02*
X92710000Y-97155000D01*
X116298588Y-95979999D02*
X93885001Y-95979999D01*
X117473589Y-97155000D02*
X116298588Y-95979999D01*
X170085001Y-95979999D02*
X168910000Y-97155000D01*
X192334001Y-95979999D02*
X170085001Y-95979999D01*
X193509002Y-97155000D02*
X192334001Y-95979999D01*
X194310000Y-97155000D02*
X193509002Y-97155000D01*
X144685001Y-95979999D02*
X143510000Y-97155000D01*
X167734999Y-95979999D02*
X144685001Y-95979999D01*
X168910000Y-97155000D02*
X167734999Y-95979999D01*
X143510000Y-97155000D02*
X142873589Y-97155000D01*
X142873589Y-97155000D02*
X141698588Y-95979999D01*
X119285001Y-95979999D02*
X118110000Y-97155000D01*
X141698588Y-95979999D02*
X119285001Y-95979999D01*
X218534999Y-95979999D02*
X219710000Y-97155000D01*
X195485001Y-95979999D02*
X218534999Y-95979999D01*
X194310000Y-97155000D02*
X195485001Y-95979999D01*
X224757999Y-95979999D02*
X225933000Y-97155000D01*
X221653998Y-97155000D02*
X222828999Y-95979999D01*
X222828999Y-95979999D02*
X224757999Y-95979999D01*
X219710000Y-97155000D02*
X221653998Y-97155000D01*
X82582001Y-95979999D02*
X81407000Y-97155000D01*
X91534999Y-95979999D02*
X82582001Y-95979999D01*
X92710000Y-97155000D02*
X91534999Y-95979999D01*
%TO.N,/63*%
X142334999Y-98519999D02*
X119285001Y-98519999D01*
X119285001Y-98519999D02*
X118110000Y-99695000D01*
X143510000Y-99695000D02*
X142334999Y-98519999D01*
X93885001Y-98519999D02*
X92710000Y-99695000D01*
X118110000Y-99695000D02*
X117473589Y-99695000D01*
X117473589Y-99695000D02*
X116298588Y-98519999D01*
X116298588Y-98519999D02*
X93885001Y-98519999D01*
X192334001Y-98519999D02*
X170085001Y-98519999D01*
X193509002Y-99695000D02*
X192334001Y-98519999D01*
X194310000Y-99695000D02*
X193509002Y-99695000D01*
X169759999Y-98845001D02*
X168910000Y-99695000D01*
X170085001Y-98519999D02*
X169759999Y-98845001D01*
X166934001Y-98519999D02*
X144685001Y-98519999D01*
X168109002Y-99695000D02*
X166934001Y-98519999D01*
X144685001Y-98519999D02*
X143510000Y-99695000D01*
X168910000Y-99695000D02*
X168109002Y-99695000D01*
X217898588Y-98519999D02*
X219073589Y-99695000D01*
X195485001Y-98519999D02*
X217898588Y-98519999D01*
X194310000Y-99695000D02*
X195485001Y-98519999D01*
X219073589Y-99695000D02*
X219710000Y-99695000D01*
X224757999Y-98519999D02*
X225933000Y-99695000D01*
X222828999Y-98519999D02*
X224757999Y-98519999D01*
X221653998Y-99695000D02*
X222828999Y-98519999D01*
X219710000Y-99695000D02*
X221653998Y-99695000D01*
X82582001Y-98519999D02*
X81407000Y-99695000D01*
X91534999Y-98519999D02*
X82582001Y-98519999D01*
X92710000Y-99695000D02*
X91534999Y-98519999D01*
%TO.N,/64*%
X116298588Y-101059999D02*
X93885001Y-101059999D01*
X93885001Y-101059999D02*
X92710000Y-102235000D01*
X118110000Y-102235000D02*
X117473589Y-102235000D01*
X117473589Y-102235000D02*
X116298588Y-101059999D01*
X170085001Y-101059999D02*
X168910000Y-102235000D01*
X193509002Y-102235000D02*
X192334001Y-101059999D01*
X192334001Y-101059999D02*
X170085001Y-101059999D01*
X194310000Y-102235000D02*
X193509002Y-102235000D01*
X144685001Y-101059999D02*
X143510000Y-102235000D01*
X166934001Y-101059999D02*
X144685001Y-101059999D01*
X168109002Y-102235000D02*
X166934001Y-101059999D01*
X168910000Y-102235000D02*
X168109002Y-102235000D01*
X119285001Y-101059999D02*
X118110000Y-102235000D01*
X141698588Y-101059999D02*
X119285001Y-101059999D01*
X143510000Y-102235000D02*
X142873589Y-102235000D01*
X142873589Y-102235000D02*
X141698588Y-101059999D01*
X218534999Y-101059999D02*
X219710000Y-102235000D01*
X195485001Y-101059999D02*
X218534999Y-101059999D01*
X194310000Y-102235000D02*
X195485001Y-101059999D01*
X224757999Y-101059999D02*
X225933000Y-102235000D01*
X222828999Y-101059999D02*
X224757999Y-101059999D01*
X221653998Y-102235000D02*
X222828999Y-101059999D01*
X219710000Y-102235000D02*
X221653998Y-102235000D01*
X82582001Y-101059999D02*
X81407000Y-102235000D01*
X91534999Y-101059999D02*
X82582001Y-101059999D01*
X92710000Y-102235000D02*
X91534999Y-101059999D01*
%TO.N,/65*%
X117473589Y-104775000D02*
X116298588Y-103599999D01*
X118110000Y-104775000D02*
X117473589Y-104775000D01*
X116298588Y-103599999D02*
X93885001Y-103599999D01*
X93885001Y-103599999D02*
X92710000Y-104775000D01*
X170085001Y-103599999D02*
X168910000Y-104775000D01*
X192334001Y-103599999D02*
X170085001Y-103599999D01*
X193509002Y-104775000D02*
X192334001Y-103599999D01*
X194310000Y-104775000D02*
X193509002Y-104775000D01*
X144685001Y-103599999D02*
X143510000Y-104775000D01*
X166934001Y-103599999D02*
X144685001Y-103599999D01*
X168109002Y-104775000D02*
X166934001Y-103599999D01*
X168910000Y-104775000D02*
X168109002Y-104775000D01*
X142873589Y-104775000D02*
X141698588Y-103599999D01*
X143510000Y-104775000D02*
X142873589Y-104775000D01*
X141698588Y-103599999D02*
X119285001Y-103599999D01*
X119285001Y-103599999D02*
X118110000Y-104775000D01*
X195485001Y-103599999D02*
X218534999Y-103599999D01*
X218534999Y-103599999D02*
X219710000Y-104775000D01*
X194310000Y-104775000D02*
X195485001Y-103599999D01*
X224757999Y-103599999D02*
X225933000Y-104775000D01*
X222828999Y-103599999D02*
X224757999Y-103599999D01*
X221653998Y-104775000D02*
X222828999Y-103599999D01*
X219710000Y-104775000D02*
X221653998Y-104775000D01*
X82582001Y-103599999D02*
X81407000Y-104775000D01*
X91909002Y-104775000D02*
X90734001Y-103599999D01*
X90734001Y-103599999D02*
X82582001Y-103599999D01*
X92710000Y-104775000D02*
X91909002Y-104775000D01*
%TO.N,/66*%
X93885001Y-106139999D02*
X92710000Y-107315000D01*
X118110000Y-107315000D02*
X117473589Y-107315000D01*
X117473589Y-107315000D02*
X116298588Y-106139999D01*
X116298588Y-106139999D02*
X93885001Y-106139999D01*
X193509002Y-107315000D02*
X192334001Y-106139999D01*
X170085001Y-106139999D02*
X168910000Y-107315000D01*
X192334001Y-106139999D02*
X170085001Y-106139999D01*
X194310000Y-107315000D02*
X193509002Y-107315000D01*
X144685001Y-106139999D02*
X143510000Y-107315000D01*
X166934001Y-106139999D02*
X144685001Y-106139999D01*
X168109002Y-107315000D02*
X166934001Y-106139999D01*
X168910000Y-107315000D02*
X168109002Y-107315000D01*
X119474999Y-105950001D02*
X118110000Y-107315000D01*
X141508591Y-105950001D02*
X119474999Y-105950001D01*
X143510000Y-107315000D02*
X142873590Y-107315000D01*
X142873590Y-107315000D02*
X141508591Y-105950001D01*
X218534999Y-106139999D02*
X219710000Y-107315000D01*
X195485001Y-106139999D02*
X218534999Y-106139999D01*
X194310000Y-107315000D02*
X195485001Y-106139999D01*
X224757999Y-106139999D02*
X225933000Y-107315000D01*
X222828999Y-106139999D02*
X224757999Y-106139999D01*
X221653998Y-107315000D02*
X222828999Y-106139999D01*
X219710000Y-107315000D02*
X221653998Y-107315000D01*
X82582001Y-106139999D02*
X81407000Y-107315000D01*
X90734001Y-106139999D02*
X82582001Y-106139999D01*
X91909002Y-107315000D02*
X90734001Y-106139999D01*
X92710000Y-107315000D02*
X91909002Y-107315000D01*
%TO.N,/67*%
X119285001Y-108679999D02*
X118110000Y-109855000D01*
X142334999Y-108679999D02*
X119285001Y-108679999D01*
X143510000Y-109855000D02*
X142334999Y-108679999D01*
X93885001Y-108679999D02*
X92710000Y-109855000D01*
X118110000Y-109855000D02*
X117473589Y-109855000D01*
X117473589Y-109855000D02*
X116298588Y-108679999D01*
X116298588Y-108679999D02*
X93885001Y-108679999D01*
X170085001Y-108679999D02*
X168910000Y-109855000D01*
X192334001Y-108679999D02*
X170085001Y-108679999D01*
X193509002Y-109855000D02*
X192334001Y-108679999D01*
X194310000Y-109855000D02*
X193509002Y-109855000D01*
X144685001Y-108679999D02*
X143510000Y-109855000D01*
X166934001Y-108679999D02*
X144685001Y-108679999D01*
X168109002Y-109855000D02*
X166934001Y-108679999D01*
X168910000Y-109855000D02*
X168109002Y-109855000D01*
X195485001Y-108679999D02*
X194310000Y-109855000D01*
X217734001Y-108679999D02*
X195485001Y-108679999D01*
X219145999Y-109290999D02*
X219710000Y-109855000D01*
X218345001Y-109290999D02*
X219145999Y-109290999D01*
X217734001Y-108679999D02*
X218345001Y-109290999D01*
X222828999Y-108679999D02*
X224757999Y-108679999D01*
X224757999Y-108679999D02*
X225933000Y-109855000D01*
X221653998Y-109855000D02*
X222828999Y-108679999D01*
X219710000Y-109855000D02*
X221653998Y-109855000D01*
X82582001Y-108679999D02*
X81407000Y-109855000D01*
X91534999Y-108679999D02*
X82582001Y-108679999D01*
X92710000Y-109855000D02*
X91534999Y-108679999D01*
%TO.N,/68*%
X93885001Y-111219999D02*
X92710000Y-112395000D01*
X116298588Y-111219999D02*
X93885001Y-111219999D01*
X117473589Y-112395000D02*
X116298588Y-111219999D01*
X118110000Y-112395000D02*
X117473589Y-112395000D01*
X144685001Y-111219999D02*
X143510000Y-112395000D01*
X167734999Y-111219999D02*
X144685001Y-111219999D01*
X168910000Y-112395000D02*
X167734999Y-111219999D01*
X170085001Y-111219999D02*
X168910000Y-112395000D01*
X192334001Y-111219999D02*
X170085001Y-111219999D01*
X193509002Y-112395000D02*
X192334001Y-111219999D01*
X194310000Y-112395000D02*
X193509002Y-112395000D01*
X119285001Y-111219999D02*
X118110000Y-112395000D01*
X142873589Y-112395000D02*
X141698588Y-111219999D01*
X143510000Y-112395000D02*
X142873589Y-112395000D01*
X141698588Y-111219999D02*
X119285001Y-111219999D01*
X218534999Y-111219999D02*
X219710000Y-112395000D01*
X195485001Y-111219999D02*
X218534999Y-111219999D01*
X194310000Y-112395000D02*
X195485001Y-111219999D01*
X221653998Y-112395000D02*
X219710000Y-112395000D01*
X222828999Y-111219999D02*
X221653998Y-112395000D01*
X224757999Y-111219999D02*
X222828999Y-111219999D01*
X225933000Y-112395000D02*
X224757999Y-111219999D01*
X82582001Y-111219999D02*
X81407000Y-112395000D01*
X90734001Y-111219999D02*
X82582001Y-111219999D01*
X91909002Y-112395000D02*
X90734001Y-111219999D01*
X92710000Y-112395000D02*
X91909002Y-112395000D01*
%TO.N,/69*%
X93885001Y-113759999D02*
X92710000Y-114935000D01*
X116934999Y-113759999D02*
X93885001Y-113759999D01*
X118110000Y-114935000D02*
X116934999Y-113759999D01*
X119285001Y-113759999D02*
X118110000Y-114935000D01*
X142334999Y-113759999D02*
X119285001Y-113759999D01*
X143510000Y-114935000D02*
X142334999Y-113759999D01*
X170274999Y-113570001D02*
X168910000Y-114935000D01*
X192144003Y-113570001D02*
X170274999Y-113570001D01*
X193509002Y-114935000D02*
X192144003Y-113570001D01*
X194310000Y-114935000D02*
X193509002Y-114935000D01*
X168273589Y-114935000D02*
X167098588Y-113759999D01*
X168910000Y-114935000D02*
X168273589Y-114935000D01*
X144685001Y-113759999D02*
X143510000Y-114935000D01*
X167098588Y-113759999D02*
X144685001Y-113759999D01*
X195485001Y-113759999D02*
X217898588Y-113759999D01*
X194310000Y-114935000D02*
X195485001Y-113759999D01*
X217898588Y-113759999D02*
X219073589Y-114935000D01*
X219073589Y-114935000D02*
X219710000Y-114935000D01*
X224757999Y-113759999D02*
X225933000Y-114935000D01*
X219710000Y-114935000D02*
X221653998Y-114935000D01*
X221653998Y-114935000D02*
X222828999Y-113759999D01*
X222828999Y-113759999D02*
X224757999Y-113759999D01*
X82582001Y-113759999D02*
X81407000Y-114935000D01*
X91534999Y-113759999D02*
X82582001Y-113759999D01*
X92710000Y-114935000D02*
X91534999Y-113759999D01*
%TO.N,/70*%
X119285001Y-116299999D02*
X118110000Y-117475000D01*
X142334999Y-116299999D02*
X119285001Y-116299999D01*
X143510000Y-117475000D02*
X142334999Y-116299999D01*
X118110000Y-117475000D02*
X117473589Y-117475000D01*
X93885001Y-116299999D02*
X92710000Y-117475000D01*
X116134001Y-116299999D02*
X93885001Y-116299999D01*
X117309002Y-117475000D02*
X116134001Y-116299999D01*
X118110000Y-117475000D02*
X117309002Y-117475000D01*
X170085001Y-116299999D02*
X168910000Y-117475000D01*
X193509002Y-117475000D02*
X192334001Y-116299999D01*
X192334001Y-116299999D02*
X170085001Y-116299999D01*
X194310000Y-117475000D02*
X193509002Y-117475000D01*
X167098588Y-116299999D02*
X144685001Y-116299999D01*
X168910000Y-117475000D02*
X168273589Y-117475000D01*
X168273589Y-117475000D02*
X167098588Y-116299999D01*
X144685001Y-116299999D02*
X143510000Y-117475000D01*
X218534999Y-116299999D02*
X219710000Y-117475000D01*
X195485001Y-116299999D02*
X218534999Y-116299999D01*
X194310000Y-117475000D02*
X195485001Y-116299999D01*
X222828999Y-116299999D02*
X224757999Y-116299999D01*
X224757999Y-116299999D02*
X225933000Y-117475000D01*
X221653998Y-117475000D02*
X222828999Y-116299999D01*
X219710000Y-117475000D02*
X221653998Y-117475000D01*
X82582001Y-116299999D02*
X81407000Y-117475000D01*
X90734001Y-116299999D02*
X82582001Y-116299999D01*
X91909002Y-117475000D02*
X90734001Y-116299999D01*
X92710000Y-117475000D02*
X91909002Y-117475000D01*
%TO.N,/71*%
X118110000Y-120015000D02*
X117473589Y-120015000D01*
X117473589Y-120015000D02*
X116298588Y-118839999D01*
X116298588Y-118839999D02*
X115005999Y-118839999D01*
X93885001Y-118839999D02*
X92710000Y-120015000D01*
X117309002Y-120015000D02*
X116134001Y-118839999D01*
X118110000Y-120015000D02*
X117309002Y-120015000D01*
X116134001Y-118839999D02*
X93885001Y-118839999D01*
X143510000Y-120015000D02*
X142873589Y-120015000D01*
X142873589Y-120015000D02*
X141698588Y-118839999D01*
X141698588Y-118839999D02*
X119285001Y-118839999D01*
X119285001Y-118839999D02*
X118110000Y-120015000D01*
X170085001Y-118839999D02*
X168910000Y-120015000D01*
X192334001Y-118839999D02*
X170085001Y-118839999D01*
X193509002Y-120015000D02*
X192334001Y-118839999D01*
X194310000Y-120015000D02*
X193509002Y-120015000D01*
X144685001Y-118839999D02*
X143510000Y-120015000D01*
X167098588Y-118839999D02*
X144685001Y-118839999D01*
X168910000Y-120015000D02*
X168273589Y-120015000D01*
X168273589Y-120015000D02*
X167098588Y-118839999D01*
X218534999Y-118839999D02*
X219710000Y-120015000D01*
X195485001Y-118839999D02*
X218534999Y-118839999D01*
X194310000Y-120015000D02*
X195485001Y-118839999D01*
X224757999Y-118839999D02*
X225933000Y-120015000D01*
X222828999Y-118839999D02*
X224757999Y-118839999D01*
X221653998Y-120015000D02*
X222828999Y-118839999D01*
X219710000Y-120015000D02*
X221653998Y-120015000D01*
X82582001Y-118839999D02*
X81407000Y-120015000D01*
X90734001Y-118839999D02*
X82582001Y-118839999D01*
X91909002Y-120015000D02*
X90734001Y-118839999D01*
X92710000Y-120015000D02*
X91909002Y-120015000D01*
%TO.N,/72*%
X119285001Y-121379999D02*
X118110000Y-122555000D01*
X142334999Y-121379999D02*
X119285001Y-121379999D01*
X143510000Y-122555000D02*
X142334999Y-121379999D01*
X118110000Y-122555000D02*
X117473589Y-122555000D01*
X93885001Y-121379999D02*
X92710000Y-122555000D01*
X116134001Y-121379999D02*
X93885001Y-121379999D01*
X117309002Y-122555000D02*
X116134001Y-121379999D01*
X118110000Y-122555000D02*
X117309002Y-122555000D01*
X144685001Y-121379999D02*
X143510000Y-122555000D01*
X167734999Y-121379999D02*
X144685001Y-121379999D01*
X168910000Y-122555000D02*
X167734999Y-121379999D01*
X170085001Y-121379999D02*
X168910000Y-122555000D01*
X192334001Y-121379999D02*
X170085001Y-121379999D01*
X193509002Y-122555000D02*
X192334001Y-121379999D01*
X194310000Y-122555000D02*
X193509002Y-122555000D01*
X218534999Y-121379999D02*
X219710000Y-122555000D01*
X195485001Y-121379999D02*
X218534999Y-121379999D01*
X194310000Y-122555000D02*
X195485001Y-121379999D01*
X224757999Y-121379999D02*
X225933000Y-122555000D01*
X222828999Y-121379999D02*
X224757999Y-121379999D01*
X221653998Y-122555000D02*
X222828999Y-121379999D01*
X219710000Y-122555000D02*
X221653998Y-122555000D01*
X90734001Y-121379999D02*
X82582001Y-121379999D01*
X91909002Y-122555000D02*
X90734001Y-121379999D01*
X82582001Y-121379999D02*
X81407000Y-122555000D01*
X92710000Y-122555000D02*
X91909002Y-122555000D01*
%TO.N,/73*%
X142334999Y-123919999D02*
X119285001Y-123919999D01*
X119285001Y-123919999D02*
X118110000Y-125095000D01*
X143510000Y-125095000D02*
X142334999Y-123919999D01*
X118110000Y-125095000D02*
X117473589Y-125095000D01*
X116134001Y-123919999D02*
X93885001Y-123919999D01*
X117309002Y-125095000D02*
X116134001Y-123919999D01*
X93885001Y-123919999D02*
X92710000Y-125095000D01*
X118110000Y-125095000D02*
X117309002Y-125095000D01*
X170085001Y-123919999D02*
X168910000Y-125095000D01*
X193509002Y-125095000D02*
X192334001Y-123919999D01*
X192334001Y-123919999D02*
X170085001Y-123919999D01*
X194310000Y-125095000D02*
X193509002Y-125095000D01*
X168273589Y-125095000D02*
X167098588Y-123919999D01*
X167098588Y-123919999D02*
X144685001Y-123919999D01*
X168910000Y-125095000D02*
X168273589Y-125095000D01*
X144685001Y-123919999D02*
X143510000Y-125095000D01*
X218534999Y-123919999D02*
X219710000Y-125095000D01*
X195485001Y-123919999D02*
X218534999Y-123919999D01*
X194310000Y-125095000D02*
X195485001Y-123919999D01*
X224757999Y-123919999D02*
X225933000Y-125095000D01*
X222828999Y-123919999D02*
X224757999Y-123919999D01*
X221653998Y-125095000D02*
X222828999Y-123919999D01*
X219710000Y-125095000D02*
X221653998Y-125095000D01*
X82582001Y-123919999D02*
X81407000Y-125095000D01*
X90734001Y-123919999D02*
X82582001Y-123919999D01*
X91909002Y-125095000D02*
X90734001Y-123919999D01*
X92710000Y-125095000D02*
X91909002Y-125095000D01*
%TO.N,/74*%
X142334999Y-126459999D02*
X119285001Y-126459999D01*
X119285001Y-126459999D02*
X118110000Y-127635000D01*
X143510000Y-127635000D02*
X142334999Y-126459999D01*
X93885001Y-126459999D02*
X92710000Y-127635000D01*
X116934999Y-126459999D02*
X93885001Y-126459999D01*
X118110000Y-127635000D02*
X116934999Y-126459999D01*
X144685001Y-126459999D02*
X143510000Y-127635000D01*
X167734999Y-126459999D02*
X144685001Y-126459999D01*
X168910000Y-127635000D02*
X167734999Y-126459999D01*
X170085001Y-126459999D02*
X168910000Y-127635000D01*
X192334001Y-126459999D02*
X170085001Y-126459999D01*
X193509002Y-127635000D02*
X192334001Y-126459999D01*
X194310000Y-127635000D02*
X193509002Y-127635000D01*
X218534999Y-126459999D02*
X219710000Y-127635000D01*
X195485001Y-126459999D02*
X218534999Y-126459999D01*
X194310000Y-127635000D02*
X195485001Y-126459999D01*
X222828999Y-126459999D02*
X224757999Y-126459999D01*
X221653998Y-127635000D02*
X222828999Y-126459999D01*
X224757999Y-126459999D02*
X225933000Y-127635000D01*
X219710000Y-127635000D02*
X221653998Y-127635000D01*
X82582001Y-126459999D02*
X81407000Y-127635000D01*
X90734001Y-126459999D02*
X82582001Y-126459999D01*
X91909002Y-127635000D02*
X90734001Y-126459999D01*
X92710000Y-127635000D02*
X91909002Y-127635000D01*
%TO.N,/75*%
X195485001Y-128999999D02*
X194310000Y-130175000D01*
X117473589Y-130175000D02*
X116298588Y-128999999D01*
X118110000Y-130175000D02*
X117473589Y-130175000D01*
X93885001Y-128999999D02*
X92710000Y-130175000D01*
X117309002Y-130175000D02*
X116134001Y-128999999D01*
X116134001Y-128999999D02*
X93885001Y-128999999D01*
X118110000Y-130175000D02*
X117309002Y-130175000D01*
X143510000Y-130175000D02*
X142873589Y-130175000D01*
X142873589Y-130175000D02*
X141698588Y-128999999D01*
X141698588Y-128999999D02*
X119285001Y-128999999D01*
X119285001Y-128999999D02*
X118110000Y-130175000D01*
X170085001Y-128999999D02*
X168910000Y-130175000D01*
X192334001Y-128999999D02*
X170085001Y-128999999D01*
X193509002Y-130175000D02*
X192334001Y-128999999D01*
X194310000Y-130175000D02*
X193509002Y-130175000D01*
X144685001Y-128999999D02*
X143510000Y-130175000D01*
X167098588Y-128999999D02*
X144685001Y-128999999D01*
X168910000Y-130175000D02*
X168273589Y-130175000D01*
X168273589Y-130175000D02*
X167098588Y-128999999D01*
X217734001Y-128999999D02*
X195485001Y-128999999D01*
X218345001Y-129610999D02*
X219145999Y-129610999D01*
X219145999Y-129610999D02*
X219710000Y-130175000D01*
X217734001Y-128999999D02*
X218345001Y-129610999D01*
X224757999Y-128999999D02*
X225933000Y-130175000D01*
X222828999Y-128999999D02*
X224757999Y-128999999D01*
X221653998Y-130175000D02*
X222828999Y-128999999D01*
X219710000Y-130175000D02*
X221653998Y-130175000D01*
X82582001Y-128999999D02*
X81407000Y-130175000D01*
X91534999Y-128999999D02*
X82582001Y-128999999D01*
X92710000Y-130175000D02*
X91534999Y-128999999D01*
%TO.N,/76*%
X170085001Y-131539999D02*
X168910000Y-132715000D01*
X192334001Y-131539999D02*
X170085001Y-131539999D01*
X193509002Y-132715000D02*
X192334001Y-131539999D01*
X194310000Y-132715000D02*
X193509002Y-132715000D01*
X93885001Y-131539999D02*
X92710000Y-132715000D01*
X116934999Y-131539999D02*
X93885001Y-131539999D01*
X118110000Y-132715000D02*
X116934999Y-131539999D01*
X142873589Y-132715000D02*
X141698588Y-131539999D01*
X141698588Y-131539999D02*
X119285001Y-131539999D01*
X143510000Y-132715000D02*
X142873589Y-132715000D01*
X119285001Y-131539999D02*
X118110000Y-132715000D01*
X167098588Y-131539999D02*
X144685001Y-131539999D01*
X168910000Y-132715000D02*
X168273589Y-132715000D01*
X144685001Y-131539999D02*
X143510000Y-132715000D01*
X168273589Y-132715000D02*
X167098588Y-131539999D01*
X218534999Y-131539999D02*
X219710000Y-132715000D01*
X195485001Y-131539999D02*
X218534999Y-131539999D01*
X194310000Y-132715000D02*
X195485001Y-131539999D01*
X224757999Y-131539999D02*
X225933000Y-132715000D01*
X221653998Y-132715000D02*
X222828999Y-131539999D01*
X222828999Y-131539999D02*
X224757999Y-131539999D01*
X219710000Y-132715000D02*
X221653998Y-132715000D01*
X82582001Y-131539999D02*
X81407000Y-132715000D01*
X91534999Y-131539999D02*
X82582001Y-131539999D01*
X92710000Y-132715000D02*
X91534999Y-131539999D01*
%TO.N,/77*%
X170085001Y-134079999D02*
X168910000Y-135255000D01*
X192334001Y-134079999D02*
X170085001Y-134079999D01*
X193509002Y-135255000D02*
X192334001Y-134079999D01*
X194310000Y-135255000D02*
X193509002Y-135255000D01*
X144685001Y-134079999D02*
X143510000Y-135255000D01*
X167734999Y-134079999D02*
X144685001Y-134079999D01*
X168910000Y-135255000D02*
X167734999Y-134079999D01*
X141534001Y-134079999D02*
X119285001Y-134079999D01*
X142709002Y-135255000D02*
X141534001Y-134079999D01*
X119285001Y-134079999D02*
X118110000Y-135255000D01*
X143510000Y-135255000D02*
X142709002Y-135255000D01*
X116934999Y-134079999D02*
X93885001Y-134079999D01*
X93885001Y-134079999D02*
X92710000Y-135255000D01*
X118110000Y-135255000D02*
X116934999Y-134079999D01*
X195485001Y-134079999D02*
X218534999Y-134079999D01*
X218534999Y-134079999D02*
X219710000Y-135255000D01*
X194310000Y-135255000D02*
X195485001Y-134079999D01*
X222828999Y-134079999D02*
X224757999Y-134079999D01*
X224757999Y-134079999D02*
X225933000Y-135255000D01*
X221653998Y-135255000D02*
X222828999Y-134079999D01*
X219710000Y-135255000D02*
X221653998Y-135255000D01*
X91534999Y-134079999D02*
X82582001Y-134079999D01*
X82582001Y-134079999D02*
X81407000Y-135255000D01*
X92710000Y-135255000D02*
X91534999Y-134079999D01*
%TO.N,/78*%
X192334001Y-136619999D02*
X170085001Y-136619999D01*
X193509002Y-137795000D02*
X192334001Y-136619999D01*
X170085001Y-136619999D02*
X168910000Y-137795000D01*
X194310000Y-137795000D02*
X193509002Y-137795000D01*
X142334999Y-136619999D02*
X143510000Y-137795000D01*
X119285001Y-136619999D02*
X142334999Y-136619999D01*
X118110000Y-137795000D02*
X119285001Y-136619999D01*
X168273589Y-137795000D02*
X167098588Y-136619999D01*
X168910000Y-137795000D02*
X168273589Y-137795000D01*
X167098588Y-136619999D02*
X144685001Y-136619999D01*
X144685001Y-136619999D02*
X143510000Y-137795000D01*
X116134001Y-136619999D02*
X114841412Y-136619999D01*
X93885001Y-136619999D02*
X92710000Y-137795000D01*
X116134001Y-136619999D02*
X93885001Y-136619999D01*
X117309002Y-137795000D02*
X116134001Y-136619999D01*
X118110000Y-137795000D02*
X117309002Y-137795000D01*
X218534999Y-136619999D02*
X219710000Y-137795000D01*
X195485001Y-136619999D02*
X218534999Y-136619999D01*
X194310000Y-137795000D02*
X195485001Y-136619999D01*
X222828999Y-136619999D02*
X224757999Y-136619999D01*
X224757999Y-136619999D02*
X225933000Y-137795000D01*
X221653998Y-137795000D02*
X222828999Y-136619999D01*
X219710000Y-137795000D02*
X221653998Y-137795000D01*
X82582001Y-136619999D02*
X81407000Y-137795000D01*
X90734001Y-136619999D02*
X82582001Y-136619999D01*
X91909002Y-137795000D02*
X90734001Y-136619999D01*
X92710000Y-137795000D02*
X91909002Y-137795000D01*
%TO.N,/79*%
X170085001Y-139159999D02*
X168910000Y-140335000D01*
X192334001Y-139159999D02*
X170085001Y-139159999D01*
X193509002Y-140335000D02*
X192334001Y-139159999D01*
X194310000Y-140335000D02*
X193509002Y-140335000D01*
X119285001Y-139159999D02*
X118110000Y-140335000D01*
X142334999Y-139159999D02*
X119285001Y-139159999D01*
X143510000Y-140335000D02*
X142334999Y-139159999D01*
X167098588Y-139159999D02*
X144685001Y-139159999D01*
X168910000Y-140335000D02*
X168273589Y-140335000D01*
X144685001Y-139159999D02*
X143510000Y-140335000D01*
X168273589Y-140335000D02*
X167098588Y-139159999D01*
X118110000Y-140335000D02*
X117473589Y-140335000D01*
X117473589Y-140335000D02*
X116298588Y-139159999D01*
X117309002Y-140335000D02*
X116134001Y-139159999D01*
X118110000Y-140335000D02*
X117309002Y-140335000D01*
X93885001Y-139159999D02*
X92710000Y-140335000D01*
X116134001Y-139159999D02*
X93885001Y-139159999D01*
X218534999Y-139159999D02*
X219710000Y-140335000D01*
X195485001Y-139159999D02*
X218534999Y-139159999D01*
X194310000Y-140335000D02*
X195485001Y-139159999D01*
X224757999Y-139159999D02*
X225933000Y-140335000D01*
X222828999Y-139159999D02*
X224757999Y-139159999D01*
X221653998Y-140335000D02*
X222828999Y-139159999D01*
X219710000Y-140335000D02*
X221653998Y-140335000D01*
X91909002Y-140335000D02*
X90734001Y-139159999D01*
X82582001Y-139159999D02*
X81407000Y-140335000D01*
X90734001Y-139159999D02*
X82582001Y-139159999D01*
X92710000Y-140335000D02*
X91909002Y-140335000D01*
%TO.N,/80*%
X192880001Y-141699999D02*
X170085001Y-141699999D01*
X170085001Y-141699999D02*
X168910000Y-142875000D01*
X119285001Y-141699999D02*
X118110000Y-142875000D01*
X168910000Y-142875000D02*
X168781589Y-142875000D01*
X167606588Y-141699999D02*
X144685001Y-141699999D01*
X168781589Y-142875000D02*
X167606588Y-141699999D01*
X144685001Y-141699999D02*
X143510000Y-142875000D01*
X93885001Y-141699999D02*
X92710000Y-142875000D01*
X116680001Y-141699999D02*
X93885001Y-141699999D01*
X117855002Y-142875000D02*
X116680001Y-141699999D01*
X118110000Y-142875000D02*
X117855002Y-142875000D01*
X194310000Y-142875000D02*
X194055002Y-142875000D01*
X192880001Y-141699999D02*
X190659999Y-141699999D01*
X117404992Y-142424990D02*
X116680001Y-141699999D01*
X142080001Y-141699999D02*
X139859999Y-141699999D01*
X167480001Y-141699999D02*
X165259999Y-141699999D01*
X116680001Y-141699999D02*
X114459999Y-141699999D01*
X218534999Y-141699999D02*
X219710000Y-142875000D01*
X195485001Y-141699999D02*
X218534999Y-141699999D01*
X194310000Y-142875000D02*
X195485001Y-141699999D01*
X142334999Y-141699999D02*
X119285001Y-141699999D01*
X143510000Y-142875000D02*
X142334999Y-141699999D01*
X193134999Y-141699999D02*
X194310000Y-142875000D01*
X192880001Y-141699999D02*
X193134999Y-141699999D01*
X224757999Y-141699999D02*
X225933000Y-142875000D01*
X219710000Y-142875000D02*
X221107998Y-142875000D01*
X222282999Y-141699999D02*
X224757999Y-141699999D01*
X221107998Y-142875000D02*
X222282999Y-141699999D01*
X82582001Y-141699999D02*
X81407000Y-142875000D01*
X91280001Y-141699999D02*
X82582001Y-141699999D01*
X92455002Y-142875000D02*
X91280001Y-141699999D01*
X92710000Y-142875000D02*
X92455002Y-142875000D01*
%TD*%
M02*
