M48
; DRILL file {KiCad (5.1.10-1-10_14)} date Saturday, July 17, 2021 at 10:38:14 PM
; FORMAT={-:-/ absolute / metric / decimal}
; #@! TF.CreationDate,2021-07-17T22:38:14-07:00
; #@! TF.GenerationSoftware,Kicad,Pcbnew,(5.1.10-1-10_14)
; #@! TF.FileFunction,Plated,1,2,PTH
FMAT,2
METRIC
T1C1.000
%
G90
G05
T1
X81.407Y-43.815
X81.407Y-46.355
X81.407Y-48.895
X81.407Y-51.435
X81.407Y-53.975
X81.407Y-56.515
X81.407Y-59.055
X81.407Y-61.595
X81.407Y-64.135
X81.407Y-66.675
X81.407Y-69.215
X81.407Y-71.755
X81.407Y-74.295
X81.407Y-76.835
X81.407Y-79.375
X81.407Y-81.915
X81.407Y-84.455
X81.407Y-86.995
X81.407Y-89.535
X81.407Y-92.075
X81.407Y-94.615
X81.407Y-97.155
X81.407Y-99.695
X81.407Y-102.235
X81.407Y-104.775
X81.407Y-107.315
X81.407Y-109.855
X81.407Y-112.395
X81.407Y-114.935
X81.407Y-117.475
X81.407Y-120.015
X81.407Y-122.555
X81.407Y-125.095
X81.407Y-127.635
X81.407Y-130.175
X81.407Y-132.715
X81.407Y-135.255
X81.407Y-137.795
X81.407Y-140.335
X81.407Y-142.875
X83.947Y-43.815
X83.947Y-46.355
X83.947Y-48.895
X83.947Y-51.435
X83.947Y-53.975
X83.947Y-56.515
X83.947Y-59.055
X83.947Y-61.595
X83.947Y-64.135
X83.947Y-66.675
X83.947Y-69.215
X83.947Y-71.755
X83.947Y-74.295
X83.947Y-76.835
X83.947Y-79.375
X83.947Y-81.915
X83.947Y-84.455
X83.947Y-86.995
X83.947Y-89.535
X83.947Y-92.075
X83.947Y-94.615
X83.947Y-97.155
X83.947Y-99.695
X83.947Y-102.235
X83.947Y-104.775
X83.947Y-107.315
X83.947Y-109.855
X83.947Y-112.395
X83.947Y-114.935
X83.947Y-117.475
X83.947Y-120.015
X83.947Y-122.555
X83.947Y-125.095
X83.947Y-127.635
X83.947Y-130.175
X83.947Y-132.715
X83.947Y-135.255
X83.947Y-137.795
X83.947Y-140.335
X83.947Y-142.875
X90.17Y-43.815
X90.17Y-46.355
X90.17Y-48.895
X90.17Y-51.435
X90.17Y-53.975
X90.17Y-56.515
X90.17Y-59.055
X90.17Y-61.595
X90.17Y-64.135
X90.17Y-66.675
X90.17Y-69.215
X90.17Y-71.755
X90.17Y-74.295
X90.17Y-76.835
X90.17Y-79.375
X90.17Y-81.915
X90.17Y-84.455
X90.17Y-86.995
X90.17Y-89.535
X90.17Y-92.075
X90.17Y-94.615
X90.17Y-97.155
X90.17Y-99.695
X90.17Y-102.235
X90.17Y-104.775
X90.17Y-107.315
X90.17Y-109.855
X90.17Y-112.395
X90.17Y-114.935
X90.17Y-117.475
X90.17Y-120.015
X90.17Y-122.555
X90.17Y-125.095
X90.17Y-127.635
X90.17Y-130.175
X90.17Y-132.715
X90.17Y-135.255
X90.17Y-137.795
X90.17Y-140.335
X90.17Y-142.875
X92.71Y-43.815
X92.71Y-46.355
X92.71Y-48.895
X92.71Y-51.435
X92.71Y-53.975
X92.71Y-56.515
X92.71Y-59.055
X92.71Y-61.595
X92.71Y-64.135
X92.71Y-66.675
X92.71Y-69.215
X92.71Y-71.755
X92.71Y-74.295
X92.71Y-76.835
X92.71Y-79.375
X92.71Y-81.915
X92.71Y-84.455
X92.71Y-86.995
X92.71Y-89.535
X92.71Y-92.075
X92.71Y-94.615
X92.71Y-97.155
X92.71Y-99.695
X92.71Y-102.235
X92.71Y-104.775
X92.71Y-107.315
X92.71Y-109.855
X92.71Y-112.395
X92.71Y-114.935
X92.71Y-117.475
X92.71Y-120.015
X92.71Y-122.555
X92.71Y-125.095
X92.71Y-127.635
X92.71Y-130.175
X92.71Y-132.715
X92.71Y-135.255
X92.71Y-137.795
X92.71Y-140.335
X92.71Y-142.875
X115.57Y-43.815
X115.57Y-46.355
X115.57Y-48.895
X115.57Y-51.435
X115.57Y-53.975
X115.57Y-56.515
X115.57Y-59.055
X115.57Y-61.595
X115.57Y-64.135
X115.57Y-66.675
X115.57Y-69.215
X115.57Y-71.755
X115.57Y-74.295
X115.57Y-76.835
X115.57Y-79.375
X115.57Y-81.915
X115.57Y-84.455
X115.57Y-86.995
X115.57Y-89.535
X115.57Y-92.075
X115.57Y-94.615
X115.57Y-97.155
X115.57Y-99.695
X115.57Y-102.235
X115.57Y-104.775
X115.57Y-107.315
X115.57Y-109.855
X115.57Y-112.395
X115.57Y-114.935
X115.57Y-117.475
X115.57Y-120.015
X115.57Y-122.555
X115.57Y-125.095
X115.57Y-127.635
X115.57Y-130.175
X115.57Y-132.715
X115.57Y-135.255
X115.57Y-137.795
X115.57Y-140.335
X115.57Y-142.875
X118.11Y-43.815
X118.11Y-46.355
X118.11Y-48.895
X118.11Y-51.435
X118.11Y-53.975
X118.11Y-56.515
X118.11Y-59.055
X118.11Y-61.595
X118.11Y-64.135
X118.11Y-66.675
X118.11Y-69.215
X118.11Y-71.755
X118.11Y-74.295
X118.11Y-76.835
X118.11Y-79.375
X118.11Y-81.915
X118.11Y-84.455
X118.11Y-86.995
X118.11Y-89.535
X118.11Y-92.075
X118.11Y-94.615
X118.11Y-97.155
X118.11Y-99.695
X118.11Y-102.235
X118.11Y-104.775
X118.11Y-107.315
X118.11Y-109.855
X118.11Y-112.395
X118.11Y-114.935
X118.11Y-117.475
X118.11Y-120.015
X118.11Y-122.555
X118.11Y-125.095
X118.11Y-127.635
X118.11Y-130.175
X118.11Y-132.715
X118.11Y-135.255
X118.11Y-137.795
X118.11Y-140.335
X118.11Y-142.875
X140.97Y-43.815
X140.97Y-46.355
X140.97Y-48.895
X140.97Y-51.435
X140.97Y-53.975
X140.97Y-56.515
X140.97Y-59.055
X140.97Y-61.595
X140.97Y-64.135
X140.97Y-66.675
X140.97Y-69.215
X140.97Y-71.755
X140.97Y-74.295
X140.97Y-76.835
X140.97Y-79.375
X140.97Y-81.915
X140.97Y-84.455
X140.97Y-86.995
X140.97Y-89.535
X140.97Y-92.075
X140.97Y-94.615
X140.97Y-97.155
X140.97Y-99.695
X140.97Y-102.235
X140.97Y-104.775
X140.97Y-107.315
X140.97Y-109.855
X140.97Y-112.395
X140.97Y-114.935
X140.97Y-117.475
X140.97Y-120.015
X140.97Y-122.555
X140.97Y-125.095
X140.97Y-127.635
X140.97Y-130.175
X140.97Y-132.715
X140.97Y-135.255
X140.97Y-137.795
X140.97Y-140.335
X140.97Y-142.875
X143.51Y-43.815
X143.51Y-46.355
X143.51Y-48.895
X143.51Y-51.435
X143.51Y-53.975
X143.51Y-56.515
X143.51Y-59.055
X143.51Y-61.595
X143.51Y-64.135
X143.51Y-66.675
X143.51Y-69.215
X143.51Y-71.755
X143.51Y-74.295
X143.51Y-76.835
X143.51Y-79.375
X143.51Y-81.915
X143.51Y-84.455
X143.51Y-86.995
X143.51Y-89.535
X143.51Y-92.075
X143.51Y-94.615
X143.51Y-97.155
X143.51Y-99.695
X143.51Y-102.235
X143.51Y-104.775
X143.51Y-107.315
X143.51Y-109.855
X143.51Y-112.395
X143.51Y-114.935
X143.51Y-117.475
X143.51Y-120.015
X143.51Y-122.555
X143.51Y-125.095
X143.51Y-127.635
X143.51Y-130.175
X143.51Y-132.715
X143.51Y-135.255
X143.51Y-137.795
X143.51Y-140.335
X143.51Y-142.875
X166.37Y-43.815
X166.37Y-46.355
X166.37Y-48.895
X166.37Y-51.435
X166.37Y-53.975
X166.37Y-56.515
X166.37Y-59.055
X166.37Y-61.595
X166.37Y-64.135
X166.37Y-66.675
X166.37Y-69.215
X166.37Y-71.755
X166.37Y-74.295
X166.37Y-76.835
X166.37Y-79.375
X166.37Y-81.915
X166.37Y-84.455
X166.37Y-86.995
X166.37Y-89.535
X166.37Y-92.075
X166.37Y-94.615
X166.37Y-97.155
X166.37Y-99.695
X166.37Y-102.235
X166.37Y-104.775
X166.37Y-107.315
X166.37Y-109.855
X166.37Y-112.395
X166.37Y-114.935
X166.37Y-117.475
X166.37Y-120.015
X166.37Y-122.555
X166.37Y-125.095
X166.37Y-127.635
X166.37Y-130.175
X166.37Y-132.715
X166.37Y-135.255
X166.37Y-137.795
X166.37Y-140.335
X166.37Y-142.875
X168.91Y-43.815
X168.91Y-46.355
X168.91Y-48.895
X168.91Y-51.435
X168.91Y-53.975
X168.91Y-56.515
X168.91Y-59.055
X168.91Y-61.595
X168.91Y-64.135
X168.91Y-66.675
X168.91Y-69.215
X168.91Y-71.755
X168.91Y-74.295
X168.91Y-76.835
X168.91Y-79.375
X168.91Y-81.915
X168.91Y-84.455
X168.91Y-86.995
X168.91Y-89.535
X168.91Y-92.075
X168.91Y-94.615
X168.91Y-97.155
X168.91Y-99.695
X168.91Y-102.235
X168.91Y-104.775
X168.91Y-107.315
X168.91Y-109.855
X168.91Y-112.395
X168.91Y-114.935
X168.91Y-117.475
X168.91Y-120.015
X168.91Y-122.555
X168.91Y-125.095
X168.91Y-127.635
X168.91Y-130.175
X168.91Y-132.715
X168.91Y-135.255
X168.91Y-137.795
X168.91Y-140.335
X168.91Y-142.875
X191.77Y-43.815
X191.77Y-46.355
X191.77Y-48.895
X191.77Y-51.435
X191.77Y-53.975
X191.77Y-56.515
X191.77Y-59.055
X191.77Y-61.595
X191.77Y-64.135
X191.77Y-66.675
X191.77Y-69.215
X191.77Y-71.755
X191.77Y-74.295
X191.77Y-76.835
X191.77Y-79.375
X191.77Y-81.915
X191.77Y-84.455
X191.77Y-86.995
X191.77Y-89.535
X191.77Y-92.075
X191.77Y-94.615
X191.77Y-97.155
X191.77Y-99.695
X191.77Y-102.235
X191.77Y-104.775
X191.77Y-107.315
X191.77Y-109.855
X191.77Y-112.395
X191.77Y-114.935
X191.77Y-117.475
X191.77Y-120.015
X191.77Y-122.555
X191.77Y-125.095
X191.77Y-127.635
X191.77Y-130.175
X191.77Y-132.715
X191.77Y-135.255
X191.77Y-137.795
X191.77Y-140.335
X191.77Y-142.875
X194.31Y-43.815
X194.31Y-46.355
X194.31Y-48.895
X194.31Y-51.435
X194.31Y-53.975
X194.31Y-56.515
X194.31Y-59.055
X194.31Y-61.595
X194.31Y-64.135
X194.31Y-66.675
X194.31Y-69.215
X194.31Y-71.755
X194.31Y-74.295
X194.31Y-76.835
X194.31Y-79.375
X194.31Y-81.915
X194.31Y-84.455
X194.31Y-86.995
X194.31Y-89.535
X194.31Y-92.075
X194.31Y-94.615
X194.31Y-97.155
X194.31Y-99.695
X194.31Y-102.235
X194.31Y-104.775
X194.31Y-107.315
X194.31Y-109.855
X194.31Y-112.395
X194.31Y-114.935
X194.31Y-117.475
X194.31Y-120.015
X194.31Y-122.555
X194.31Y-125.095
X194.31Y-127.635
X194.31Y-130.175
X194.31Y-132.715
X194.31Y-135.255
X194.31Y-137.795
X194.31Y-140.335
X194.31Y-142.875
X217.17Y-43.815
X217.17Y-46.355
X217.17Y-48.895
X217.17Y-51.435
X217.17Y-53.975
X217.17Y-56.515
X217.17Y-59.055
X217.17Y-61.595
X217.17Y-64.135
X217.17Y-66.675
X217.17Y-69.215
X217.17Y-71.755
X217.17Y-74.295
X217.17Y-76.835
X217.17Y-79.375
X217.17Y-81.915
X217.17Y-84.455
X217.17Y-86.995
X217.17Y-89.535
X217.17Y-92.075
X217.17Y-94.615
X217.17Y-97.155
X217.17Y-99.695
X217.17Y-102.235
X217.17Y-104.775
X217.17Y-107.315
X217.17Y-109.855
X217.17Y-112.395
X217.17Y-114.935
X217.17Y-117.475
X217.17Y-120.015
X217.17Y-122.555
X217.17Y-125.095
X217.17Y-127.635
X217.17Y-130.175
X217.17Y-132.715
X217.17Y-135.255
X217.17Y-137.795
X217.17Y-140.335
X217.17Y-142.875
X219.71Y-43.815
X219.71Y-46.355
X219.71Y-48.895
X219.71Y-51.435
X219.71Y-53.975
X219.71Y-56.515
X219.71Y-59.055
X219.71Y-61.595
X219.71Y-64.135
X219.71Y-66.675
X219.71Y-69.215
X219.71Y-71.755
X219.71Y-74.295
X219.71Y-76.835
X219.71Y-79.375
X219.71Y-81.915
X219.71Y-84.455
X219.71Y-86.995
X219.71Y-89.535
X219.71Y-92.075
X219.71Y-94.615
X219.71Y-97.155
X219.71Y-99.695
X219.71Y-102.235
X219.71Y-104.775
X219.71Y-107.315
X219.71Y-109.855
X219.71Y-112.395
X219.71Y-114.935
X219.71Y-117.475
X219.71Y-120.015
X219.71Y-122.555
X219.71Y-125.095
X219.71Y-127.635
X219.71Y-130.175
X219.71Y-132.715
X219.71Y-135.255
X219.71Y-137.795
X219.71Y-140.335
X219.71Y-142.875
X223.393Y-43.815
X223.393Y-46.355
X223.393Y-48.895
X223.393Y-51.435
X223.393Y-53.975
X223.393Y-56.515
X223.393Y-59.055
X223.393Y-61.595
X223.393Y-64.135
X223.393Y-66.675
X223.393Y-69.215
X223.393Y-71.755
X223.393Y-74.295
X223.393Y-76.835
X223.393Y-79.375
X223.393Y-81.915
X223.393Y-84.455
X223.393Y-86.995
X223.393Y-89.535
X223.393Y-92.075
X223.393Y-94.615
X223.393Y-97.155
X223.393Y-99.695
X223.393Y-102.235
X223.393Y-104.775
X223.393Y-107.315
X223.393Y-109.855
X223.393Y-112.395
X223.393Y-114.935
X223.393Y-117.475
X223.393Y-120.015
X223.393Y-122.555
X223.393Y-125.095
X223.393Y-127.635
X223.393Y-130.175
X223.393Y-132.715
X223.393Y-135.255
X223.393Y-137.795
X223.393Y-140.335
X223.393Y-142.875
X225.933Y-43.815
X225.933Y-46.355
X225.933Y-48.895
X225.933Y-51.435
X225.933Y-53.975
X225.933Y-56.515
X225.933Y-59.055
X225.933Y-61.595
X225.933Y-64.135
X225.933Y-66.675
X225.933Y-69.215
X225.933Y-71.755
X225.933Y-74.295
X225.933Y-76.835
X225.933Y-79.375
X225.933Y-81.915
X225.933Y-84.455
X225.933Y-86.995
X225.933Y-89.535
X225.933Y-92.075
X225.933Y-94.615
X225.933Y-97.155
X225.933Y-99.695
X225.933Y-102.235
X225.933Y-104.775
X225.933Y-107.315
X225.933Y-109.855
X225.933Y-112.395
X225.933Y-114.935
X225.933Y-117.475
X225.933Y-120.015
X225.933Y-122.555
X225.933Y-125.095
X225.933Y-127.635
X225.933Y-130.175
X225.933Y-132.715
X225.933Y-135.255
X225.933Y-137.795
X225.933Y-140.335
X225.933Y-142.875
T0
M30
