%TF.GenerationSoftware,KiCad,Pcbnew,(5.1.10-1-10_14)*%
%TF.CreationDate,2021-06-14T16:28:50-07:00*%
%TF.ProjectId,SR6502,53523635-3032-42e6-9b69-6361645f7063,rev?*%
%TF.SameCoordinates,Original*%
%TF.FileFunction,Soldermask,Bot*%
%TF.FilePolarity,Negative*%
%FSLAX46Y46*%
G04 Gerber Fmt 4.6, Leading zero omitted, Abs format (unit mm)*
G04 Created by KiCad (PCBNEW (5.1.10-1-10_14)) date 2021-06-14 16:28:50*
%MOMM*%
%LPD*%
G01*
G04 APERTURE LIST*
%ADD10R,1.600000X1.600000*%
%ADD11O,1.600000X1.600000*%
%ADD12R,1.800000X2.600000*%
%ADD13O,1.800000X2.600000*%
%ADD14C,3.000000*%
%ADD15C,1.397000*%
%ADD16O,1.400000X1.400000*%
%ADD17C,1.400000*%
%ADD18C,1.600000*%
%ADD19R,1.700000X1.700000*%
%ADD20O,1.700000X1.700000*%
%ADD21C,1.800000*%
G04 APERTURE END LIST*
D10*
%TO.C,U6*%
X87086440Y-61744860D03*
D11*
X102326440Y-110004860D03*
X87086440Y-64284860D03*
X102326440Y-107464860D03*
X87086440Y-66824860D03*
X102326440Y-104924860D03*
X87086440Y-69364860D03*
X102326440Y-102384860D03*
X87086440Y-71904860D03*
X102326440Y-99844860D03*
X87086440Y-74444860D03*
X102326440Y-97304860D03*
X87086440Y-76984860D03*
X102326440Y-94764860D03*
X87086440Y-79524860D03*
X102326440Y-92224860D03*
X87086440Y-82064860D03*
X102326440Y-89684860D03*
X87086440Y-84604860D03*
X102326440Y-87144860D03*
X87086440Y-87144860D03*
X102326440Y-84604860D03*
X87086440Y-89684860D03*
X102326440Y-82064860D03*
X87086440Y-92224860D03*
X102326440Y-79524860D03*
X87086440Y-94764860D03*
X102326440Y-76984860D03*
X87086440Y-97304860D03*
X102326440Y-74444860D03*
X87086440Y-99844860D03*
X102326440Y-71904860D03*
X87086440Y-102384860D03*
X102326440Y-69364860D03*
X87086440Y-104924860D03*
X102326440Y-66824860D03*
X87086440Y-107464860D03*
X102326440Y-64284860D03*
X87086440Y-110004860D03*
X102326440Y-61744860D03*
%TD*%
D12*
%TO.C,U7*%
X102707440Y-122377200D03*
D13*
X105247440Y-122377200D03*
X107787440Y-122377200D03*
X110327440Y-122377200D03*
X112867440Y-122377200D03*
X115407440Y-122377200D03*
X117947440Y-122377200D03*
X120487440Y-122377200D03*
X123027440Y-122377200D03*
X125567440Y-122377200D03*
X128107440Y-122377200D03*
X130647440Y-122377200D03*
X133187440Y-122377200D03*
X135727440Y-122377200D03*
X138267440Y-122377200D03*
X140807440Y-122377200D03*
D14*
X97208340Y-122377200D03*
X97208340Y-153377900D03*
X172206920Y-153377900D03*
X172207440Y-122377200D03*
%TD*%
D15*
%TO.C,SW6*%
X197967600Y-138257280D03*
X197967600Y-133177280D03*
X205587600Y-138257280D03*
X205587600Y-133177280D03*
%TD*%
%TO.C,SW5*%
X187589160Y-149001480D03*
X187589160Y-143921480D03*
X195209160Y-149001480D03*
X195209160Y-143921480D03*
%TD*%
%TO.C,SW4*%
X187518040Y-138181080D03*
X187518040Y-133101080D03*
X195138040Y-138181080D03*
X195138040Y-133101080D03*
%TD*%
%TO.C,SW3*%
X177292000Y-138109960D03*
X177292000Y-133029960D03*
X184912000Y-138109960D03*
X184912000Y-133029960D03*
%TD*%
%TO.C,SW2*%
X187441840Y-127294640D03*
X187441840Y-122214640D03*
X195061840Y-127294640D03*
X195061840Y-122214640D03*
%TD*%
D16*
%TO.C,R7*%
X179092320Y-155296000D03*
D17*
X177192320Y-155296000D03*
%TD*%
D16*
%TO.C,R6*%
X179070080Y-148997200D03*
D17*
X177170080Y-148997200D03*
%TD*%
D16*
%TO.C,R5*%
X179092320Y-152146000D03*
D17*
X177192320Y-152146000D03*
%TD*%
D16*
%TO.C,R4*%
X179070080Y-145847200D03*
D17*
X177170080Y-145847200D03*
%TD*%
D16*
%TO.C,R3*%
X179070080Y-142697200D03*
D17*
X177170080Y-142697200D03*
%TD*%
D10*
%TO.C,U2*%
X171170600Y-62001400D03*
D11*
X186410600Y-110261400D03*
X171170600Y-64541400D03*
X186410600Y-107721400D03*
X171170600Y-67081400D03*
X186410600Y-105181400D03*
X171170600Y-69621400D03*
X186410600Y-102641400D03*
X171170600Y-72161400D03*
X186410600Y-100101400D03*
X171170600Y-74701400D03*
X186410600Y-97561400D03*
X171170600Y-77241400D03*
X186410600Y-95021400D03*
X171170600Y-79781400D03*
X186410600Y-92481400D03*
X171170600Y-82321400D03*
X186410600Y-89941400D03*
X171170600Y-84861400D03*
X186410600Y-87401400D03*
X171170600Y-87401400D03*
X186410600Y-84861400D03*
X171170600Y-89941400D03*
X186410600Y-82321400D03*
X171170600Y-92481400D03*
X186410600Y-79781400D03*
X171170600Y-95021400D03*
X186410600Y-77241400D03*
X171170600Y-97561400D03*
X186410600Y-74701400D03*
X171170600Y-100101400D03*
X186410600Y-72161400D03*
X171170600Y-102641400D03*
X186410600Y-69621400D03*
X171170600Y-105181400D03*
X186410600Y-67081400D03*
X171170600Y-107721400D03*
X186410600Y-64541400D03*
X171170600Y-110261400D03*
X186410600Y-62001400D03*
%TD*%
%TO.C,U4*%
X158107380Y-77172820D03*
X142867380Y-110192820D03*
X158107380Y-79712820D03*
X142867380Y-107652820D03*
X158107380Y-82252820D03*
X142867380Y-105112820D03*
X158107380Y-84792820D03*
X142867380Y-102572820D03*
X158107380Y-87332820D03*
X142867380Y-100032820D03*
X158107380Y-89872820D03*
X142867380Y-97492820D03*
X158107380Y-92412820D03*
X142867380Y-94952820D03*
X158107380Y-94952820D03*
X142867380Y-92412820D03*
X158107380Y-97492820D03*
X142867380Y-89872820D03*
X158107380Y-100032820D03*
X142867380Y-87332820D03*
X158107380Y-102572820D03*
X142867380Y-84792820D03*
X158107380Y-105112820D03*
X142867380Y-82252820D03*
X158107380Y-107652820D03*
X142867380Y-79712820D03*
X158107380Y-110192820D03*
D10*
X142867380Y-77172820D03*
%TD*%
%TO.C,U3*%
X194691000Y-98986340D03*
D11*
X202311000Y-114226340D03*
X194691000Y-101526340D03*
X202311000Y-111686340D03*
X194691000Y-104066340D03*
X202311000Y-109146340D03*
X194691000Y-106606340D03*
X202311000Y-106606340D03*
X194691000Y-109146340D03*
X202311000Y-104066340D03*
X194691000Y-111686340D03*
X202311000Y-101526340D03*
X194691000Y-114226340D03*
X202311000Y-98986340D03*
%TD*%
D18*
%TO.C,C5*%
X202374500Y-95430340D03*
X199874500Y-95430340D03*
%TD*%
D10*
%TO.C,U5*%
X115956080Y-77160120D03*
D11*
X131196080Y-110180120D03*
X115956080Y-79700120D03*
X131196080Y-107640120D03*
X115956080Y-82240120D03*
X131196080Y-105100120D03*
X115956080Y-84780120D03*
X131196080Y-102560120D03*
X115956080Y-87320120D03*
X131196080Y-100020120D03*
X115956080Y-89860120D03*
X131196080Y-97480120D03*
X115956080Y-92400120D03*
X131196080Y-94940120D03*
X115956080Y-94940120D03*
X131196080Y-92400120D03*
X115956080Y-97480120D03*
X131196080Y-89860120D03*
X115956080Y-100020120D03*
X131196080Y-87320120D03*
X115956080Y-102560120D03*
X131196080Y-84780120D03*
X115956080Y-105100120D03*
X131196080Y-82240120D03*
X115956080Y-107640120D03*
X131196080Y-79700120D03*
X115956080Y-110180120D03*
X131196080Y-77160120D03*
%TD*%
D19*
%TO.C,J1*%
X84074000Y-44145200D03*
D20*
X86614000Y-44145200D03*
X89154000Y-44145200D03*
X91694000Y-44145200D03*
X94234000Y-44145200D03*
X96774000Y-44145200D03*
X99314000Y-44145200D03*
X101854000Y-44145200D03*
X104394000Y-44145200D03*
X106934000Y-44145200D03*
X109474000Y-44145200D03*
X112014000Y-44145200D03*
X114554000Y-44145200D03*
X117094000Y-44145200D03*
X119634000Y-44145200D03*
X122174000Y-44145200D03*
X124714000Y-44145200D03*
X127254000Y-44145200D03*
X129794000Y-44145200D03*
X132334000Y-44145200D03*
X134874000Y-44145200D03*
X137414000Y-44145200D03*
X139954000Y-44145200D03*
X142494000Y-44145200D03*
X145034000Y-44145200D03*
X147574000Y-44145200D03*
X150114000Y-44145200D03*
X152654000Y-44145200D03*
X155194000Y-44145200D03*
X157734000Y-44145200D03*
X160274000Y-44145200D03*
X162814000Y-44145200D03*
X165354000Y-44145200D03*
X167894000Y-44145200D03*
X170434000Y-44145200D03*
X172974000Y-44145200D03*
X175514000Y-44145200D03*
X178054000Y-44145200D03*
X180594000Y-44145200D03*
X183134000Y-44145200D03*
%TD*%
D18*
%TO.C,C4*%
X84535640Y-113154460D03*
X87035640Y-113154460D03*
%TD*%
%TO.C,C3*%
X134548880Y-74380720D03*
X134548880Y-76880720D03*
%TD*%
D11*
%TO.C,X1*%
X202387200Y-72095360D03*
X194767200Y-87335360D03*
X202387200Y-74635360D03*
X194767200Y-84795360D03*
X202387200Y-77175360D03*
X194767200Y-82255360D03*
X202387200Y-79715360D03*
X194767200Y-79715360D03*
X202387200Y-82255360D03*
X194767200Y-77175360D03*
X202387200Y-84795360D03*
X194767200Y-74635360D03*
X202387200Y-87335360D03*
D10*
X194767200Y-72095360D03*
%TD*%
D18*
%TO.C,C1*%
X166928800Y-79629000D03*
X166928800Y-77129000D03*
%TD*%
%TO.C,C2*%
X161340800Y-77089000D03*
X163840800Y-77089000D03*
%TD*%
%TO.C,C6*%
X88584400Y-133710680D03*
X91084400Y-133710680D03*
%TD*%
%TO.C,C7*%
X189537340Y-61887100D03*
X192037340Y-61887100D03*
%TD*%
D16*
%TO.C,R1*%
X186745800Y-48082200D03*
D17*
X188645800Y-48082200D03*
%TD*%
%TO.C,R2*%
X156502100Y-48869600D03*
D16*
X156502100Y-46969600D03*
%TD*%
D21*
%TO.C,RV1*%
X88465660Y-139273280D03*
X85925660Y-146893280D03*
X88465660Y-151973280D03*
%TD*%
D15*
%TO.C,SW1*%
X193791840Y-57759600D03*
X188711840Y-57759600D03*
X193791840Y-50139600D03*
X188711840Y-50139600D03*
%TD*%
D19*
%TO.C,JP1*%
X145008600Y-50292000D03*
D20*
X145008600Y-47752000D03*
%TD*%
D18*
%TO.C,C8*%
X202361800Y-68173600D03*
X202361800Y-65673600D03*
%TD*%
M02*
