M48
; DRILL file {KiCad (5.1.10-1-10_14)} date Saturday, July 17, 2021 at 10:37:26 PM
; FORMAT={-:-/ absolute / metric / decimal}
; #@! TF.CreationDate,2021-07-17T22:37:26-07:00
; #@! TF.GenerationSoftware,Kicad,Pcbnew,(5.1.10-1-10_14)
; #@! TF.FileFunction,Plated,1,2,PTH
FMAT,2
METRIC
T1C0.400
T2C0.750
T3C0.800
T4C0.813
T5C1.000
T6C1.200
T7C2.500
%
G90
G05
T1
X57.15Y-58.42
X59.69Y-60.96
X62.23Y-63.5
X94.195Y-96.735
X95.885Y-92.71
X97.282Y-66.04
X99.696Y-84.2
X99.822Y-68.58
X99.822Y-104.775
X102.362Y-71.12
X104.052Y-73.572
X105.791Y-89.916
X107.442Y-76.2
X109.347Y-95.123
X109.982Y-78.486
X110.617Y-54.483
X112.522Y-81.026
X112.522Y-106.934
X113.284Y-59.436
X113.284Y-105.791
X113.284Y-121.285
X113.284Y-121.285
X115.062Y-83.82
X115.29Y-99.84
X116.752Y-86.194
X116.774Y-139.004
X117.475Y-53.975
X119.85Y-98.14
X119.888Y-101.219
X121.005Y-44.17
X121.555Y-87.422
X121.631Y-112.991
X121.92Y-97.155
X121.994Y-126.164
X122.555Y-99.06
X124.46Y-62.23
X124.587Y-105.156
X125.73Y-95.758
X125.73Y-97.79
X127.0Y-95.25
X127.162Y-113.291
X127.828Y-55.946
X127.841Y-89.3
X127.974Y-95.334
X128.135Y-88.019
X128.524Y-54.38
X128.905Y-96.52
X129.23Y-53.907
X129.43Y-126.53
X129.498Y-90.466
X130.217Y-53.587
X130.25Y-112.941
X130.26Y-89.916
X130.99Y-84.778
X131.318Y-53.66
X132.08Y-64.77
X132.131Y-104.225
X132.842Y-120.396
X134.62Y-59.69
X134.674Y-90.751
X135.89Y-85.09
X135.92Y-90.201
X136.091Y-112.704
X136.771Y-65.32
X137.48Y-62.55
X137.56Y-68.934
X138.388Y-63.5
X138.43Y-45.72
X138.43Y-86.36
X138.765Y-60.96
X138.803Y-67.429
X139.277Y-112.271
X139.446Y-72.644
X139.615Y-60.96
X139.827Y-126.111
X140.97Y-127.254
X141.367Y-112.115
X141.732Y-106.68
X142.748Y-120.65
X143.46Y-130.36
X144.43Y-128.31
X145.796Y-42.164
X145.96Y-132.446
X146.05Y-58.42
X146.088Y-91.478
X146.363Y-133.836
X147.32Y-95.25
X147.828Y-128.012
X148.782Y-134.246
X149.81Y-127.804
X151.13Y-45.72
X152.4Y-43.815
X152.4Y-89.535
X152.804Y-45.198
X154.369Y-133.996
X154.686Y-74.676
X154.94Y-71.186
X154.94Y-86.995
X156.022Y-68.646
X156.022Y-77.15
X156.845Y-108.585
X157.607Y-66.167
X157.607Y-77.089
X159.004Y-124.291
X159.131Y-126.111
X160.298Y-72.262
X160.298Y-73.786
X160.534Y-125.518
X160.848Y-69.53
X160.848Y-76.134
X161.671Y-126.365
X161.875Y-133.746
X162.476Y-123.89
X163.026Y-125.222
X165.608Y-127.254
X166.243Y-55.88
X166.381Y-134.078
X167.56Y-134.328
X167.767Y-124.46
X168.035Y-133.623
X169.249Y-123.91
X169.276Y-125.461
X173.482Y-59.182
X173.482Y-134.578
X174.308Y-135.191
X174.371Y-53.848
X175.237Y-137.578
X175.299Y-138.426
X175.458Y-136.228
X175.514Y-135.128
X176.162Y-138.368
X176.26Y-137.018
X176.411Y-136.08
X176.437Y-73.818
X176.437Y-74.668
X176.478Y-72.969
X176.53Y-67.564
X176.54Y-76.306
X176.572Y-68.414
X176.572Y-69.342
X176.659Y-43.18
X176.822Y-70.515
X177.24Y-138.76
X177.29Y-82.862
X177.29Y-132.292
X177.712Y-48.807
X177.729Y-133.14
X177.847Y-47.002
X178.197Y-134.36
X178.21Y-54.398
X178.281Y-56.107
X178.839Y-135.668
X178.863Y-51.35
X178.977Y-134.753
X179.021Y-59.732
X179.064Y-133.635
X179.502Y-136.597
X179.562Y-47.752
X179.622Y-138.138
X179.84Y-138.968
X179.982Y-49.344
X179.993Y-48.494
X180.086Y-141.478
X180.495Y-52.791
X180.572Y-137.472
X180.577Y-54.648
X180.627Y-57.87
X180.674Y-140.062
X180.8Y-122.304
X180.821Y-138.322
X180.848Y-119.761
X180.848Y-120.611
X180.899Y-121.46
X181.572Y-142.859
X181.572Y-143.764
X181.906Y-60.616
X182.156Y-62.135
X182.156Y-64.77
X182.906Y-79.69
X183.506Y-64.926
X186.69Y-102.87
X187.96Y-43.815
X187.96Y-45.72
X187.96Y-92.075
X191.135Y-107.315
X191.77Y-109.22
X192.085Y-112.075
X192.405Y-102.235
X193.482Y-62.55
X193.548Y-59.055
X194.244Y-61.91
X194.437Y-59.055
X194.564Y-103.886
X194.945Y-100.965
X194.945Y-108.585
X195.053Y-89.935
X195.514Y-54.93
X195.98Y-52.396
X196.215Y-115.255
X196.53Y-50.076
X196.53Y-105.095
X197.205Y-47.524
X198.12Y-51.816
X198.882Y-54.356
X199.644Y-59.944
X200.24Y-43.97
X200.406Y-56.896
X200.602Y-82.862
X201.168Y-46.99
X201.295Y-83.82
X201.845Y-49.276
X201.93Y-107.95
X202.387Y-83.103
X202.88Y-105.095
X202.885Y-81.828
X203.435Y-58.82
X203.589Y-89.781
X203.92Y-66.59
X203.92Y-69.428
X204.47Y-46.736
X204.47Y-49.53
X204.47Y-93.98
X205.02Y-68.059
X205.105Y-62.865
X205.27Y-73.061
X205.27Y-73.964
X205.376Y-74.808
X206.695Y-112.715
X210.238Y-110.135
X211.09Y-46.72
X212.796Y-45.17
X216.12Y-44.22
X216.146Y-42.299
X216.535Y-106.68
X217.015Y-71.462
X217.72Y-68.969
X217.805Y-66.04
X217.932Y-76.2
X218.99Y-64.084
X219.233Y-42.851
X219.498Y-73.66
X219.917Y-64.75
X220.218Y-50.8
X220.218Y-78.74
X220.356Y-57.87
X220.98Y-74.93
X220.98Y-53.34
X220.98Y-77.216
X221.268Y-72.39
X221.53Y-55.922
X222.25Y-63.5
X222.8Y-69.088
X223.239Y-66.59
X223.605Y-63.037
X224.025Y-58.97
X224.028Y-68.58
X224.363Y-61.356
X225.275Y-61.222
X225.825Y-49.13
X225.825Y-87.395
X227.33Y-58.42
X227.965Y-41.275
X228.87Y-40.275
T2
X49.53Y-119.38
X50.8Y-119.38
X52.07Y-119.38
T3
X48.935Y-40.64
X51.435Y-40.64
X56.515Y-40.64
X59.055Y-40.64
X60.96Y-129.58
X60.96Y-132.08
X60.96Y-137.16
X60.96Y-139.66
X61.595Y-40.64
X68.58Y-129.58
X68.58Y-132.08
X82.336Y-35.306
X84.328Y-94.488
X84.836Y-35.306
X86.36Y-134.62
X86.828Y-94.488
X88.86Y-134.62
X96.393Y-82.296
X98.893Y-82.296
X101.854Y-107.061
X101.854Y-109.601
X101.854Y-112.141
X101.854Y-114.681
X101.854Y-117.221
X101.854Y-119.761
X101.854Y-122.301
X109.347Y-103.759
X109.474Y-107.061
X109.474Y-109.601
X109.474Y-112.141
X109.474Y-114.681
X109.474Y-117.221
X109.474Y-119.761
X109.474Y-122.301
X111.847Y-103.759
X115.824Y-117.602
X118.364Y-106.934
X118.364Y-114.554
X118.364Y-117.602
X120.055Y-91.44
X120.904Y-106.934
X120.904Y-114.554
X120.904Y-117.602
X122.555Y-91.44
X123.19Y-122.428
X123.19Y-130.048
X123.444Y-106.934
X123.444Y-114.554
X123.444Y-117.602
X125.73Y-43.18
X125.73Y-45.72
X125.73Y-48.26
X125.73Y-50.8
X125.73Y-53.34
X125.73Y-55.88
X125.73Y-58.42
X125.73Y-60.96
X125.73Y-63.5
X125.73Y-66.04
X125.73Y-68.58
X125.73Y-71.12
X125.73Y-73.66
X125.73Y-76.2
X125.73Y-78.74
X125.73Y-81.28
X125.73Y-83.82
X125.73Y-86.36
X125.73Y-88.9
X125.73Y-91.44
X125.73Y-122.428
X125.73Y-130.048
X125.984Y-106.934
X125.984Y-114.554
X125.984Y-117.602
X128.27Y-122.428
X128.27Y-130.048
X128.524Y-106.934
X128.524Y-114.554
X128.524Y-117.602
X130.81Y-122.428
X130.81Y-130.048
X131.064Y-106.934
X131.064Y-114.554
X131.064Y-117.602
X133.35Y-122.428
X133.35Y-130.048
X133.604Y-106.934
X133.604Y-114.554
X133.604Y-117.602
X135.89Y-122.428
X135.89Y-130.048
X136.144Y-106.934
X136.144Y-114.554
X136.144Y-117.602
X138.43Y-122.428
X138.43Y-130.048
X138.684Y-117.602
X140.97Y-43.18
X140.97Y-45.72
X140.97Y-48.26
X140.97Y-50.8
X140.97Y-53.34
X140.97Y-55.88
X140.97Y-58.42
X140.97Y-60.96
X140.97Y-63.5
X140.97Y-66.04
X140.97Y-68.58
X140.97Y-71.12
X140.97Y-73.66
X140.97Y-76.2
X140.97Y-78.74
X140.97Y-81.28
X140.97Y-83.82
X140.97Y-86.36
X140.97Y-88.9
X140.97Y-91.44
X140.97Y-122.428
X140.97Y-130.048
X142.24Y-133.35
X142.748Y-117.602
X144.74Y-133.35
X145.288Y-106.934
X145.288Y-114.554
X145.288Y-117.602
X147.828Y-106.934
X147.828Y-114.554
X147.828Y-117.602
X147.828Y-122.428
X147.828Y-130.048
X148.59Y-43.18
X148.59Y-45.72
X148.59Y-48.26
X148.59Y-50.8
X148.59Y-53.34
X148.59Y-55.88
X148.59Y-58.42
X148.59Y-60.96
X148.59Y-63.5
X148.59Y-66.04
X148.59Y-68.58
X148.59Y-71.12
X148.59Y-73.66
X148.59Y-76.2
X150.368Y-106.934
X150.368Y-114.554
X150.368Y-117.602
X150.368Y-122.428
X150.368Y-130.048
X152.908Y-106.934
X152.908Y-114.554
X152.908Y-117.602
X152.908Y-122.428
X152.908Y-130.048
X155.448Y-106.934
X155.448Y-114.554
X155.448Y-117.602
X155.448Y-122.428
X155.448Y-130.048
X157.226Y-36.576
X157.988Y-106.934
X157.988Y-114.554
X157.988Y-117.602
X157.988Y-122.428
X157.988Y-130.048
X159.726Y-36.576
X160.528Y-106.934
X160.528Y-114.554
X160.528Y-117.602
X160.528Y-122.428
X160.528Y-130.048
X163.068Y-106.934
X163.068Y-114.554
X163.068Y-117.602
X163.068Y-122.428
X163.068Y-130.048
X163.108Y-133.096
X163.83Y-43.18
X163.83Y-45.72
X163.83Y-48.26
X163.83Y-50.8
X163.83Y-53.34
X163.83Y-55.88
X163.83Y-58.42
X163.83Y-60.96
X163.83Y-63.5
X163.83Y-66.04
X163.83Y-68.58
X163.83Y-71.12
X163.83Y-73.66
X163.83Y-76.2
X165.608Y-117.602
X165.608Y-122.428
X165.608Y-130.048
X165.608Y-133.096
X168.91Y-38.354
X168.91Y-43.18
X168.91Y-45.72
X168.91Y-48.26
X168.91Y-50.8
X168.91Y-53.34
X168.91Y-55.88
X168.91Y-58.42
X168.91Y-60.96
X168.91Y-63.5
X168.91Y-66.04
X168.91Y-68.58
X168.91Y-71.12
X168.91Y-73.66
X168.91Y-76.2
X171.41Y-38.354
X181.61Y-38.1
X184.11Y-38.1
X184.15Y-43.18
X184.15Y-45.72
X184.15Y-48.26
X184.15Y-50.8
X184.15Y-53.34
X184.15Y-55.88
X184.15Y-58.42
X184.15Y-60.96
X184.15Y-63.5
X184.15Y-66.04
X184.15Y-68.58
X184.15Y-71.12
X184.15Y-73.66
X184.15Y-76.2
X184.15Y-124.333
X184.15Y-126.833
X190.5Y-100.965
X190.5Y-103.505
X190.5Y-106.045
X190.5Y-108.585
X190.5Y-111.125
X190.5Y-113.665
X190.5Y-116.205
X191.77Y-38.1
X191.77Y-43.18
X191.77Y-45.72
X191.77Y-48.26
X191.77Y-50.8
X191.77Y-53.34
X191.77Y-55.88
X191.77Y-58.42
X191.77Y-60.96
X191.77Y-63.5
X191.77Y-66.04
X191.77Y-68.58
X191.77Y-71.12
X191.77Y-73.66
X191.77Y-76.2
X191.77Y-78.74
X191.77Y-81.28
X191.77Y-83.82
X191.77Y-86.36
X191.77Y-88.9
X191.77Y-91.44
X194.27Y-38.1
X198.12Y-97.79
X198.12Y-100.965
X198.12Y-103.505
X198.12Y-106.045
X198.12Y-108.585
X198.12Y-111.125
X198.12Y-113.665
X198.12Y-116.205
X200.62Y-97.79
X206.375Y-125.73
X206.375Y-128.23
X207.01Y-43.18
X207.01Y-45.72
X207.01Y-48.26
X207.01Y-50.8
X207.01Y-53.34
X207.01Y-55.88
X207.01Y-58.42
X207.01Y-60.96
X207.01Y-63.5
X207.01Y-66.04
X207.01Y-68.58
X207.01Y-71.12
X207.01Y-73.66
X207.01Y-76.2
X207.01Y-78.74
X207.01Y-81.28
X207.01Y-83.82
X207.01Y-86.36
X207.01Y-88.9
X207.01Y-91.44
X211.455Y-125.73
X211.455Y-133.35
X212.765Y-80.01
X214.63Y-43.18
X214.63Y-45.72
X214.63Y-48.26
X214.63Y-50.8
X214.63Y-53.34
X214.63Y-55.88
X214.63Y-58.42
X214.63Y-60.96
X214.63Y-63.5
X214.63Y-66.04
X214.63Y-68.58
X214.63Y-71.12
X214.63Y-73.66
X214.63Y-76.2
X214.63Y-84.455
X214.63Y-92.075
X215.265Y-80.01
X219.71Y-100.965
X219.71Y-103.505
X219.71Y-106.045
X219.71Y-108.585
X219.71Y-111.125
X219.71Y-113.665
X219.71Y-116.205
X226.695Y-125.73
X226.695Y-133.35
X227.33Y-100.965
X227.33Y-103.505
X227.33Y-106.045
X227.33Y-108.585
X227.33Y-111.125
X227.33Y-113.665
X227.33Y-116.205
X227.965Y-97.79
X229.87Y-43.18
X229.87Y-45.72
X229.87Y-48.26
X229.87Y-50.8
X229.87Y-53.34
X229.87Y-55.88
X229.87Y-58.42
X229.87Y-60.96
X229.87Y-63.5
X229.87Y-66.04
X229.87Y-68.58
X229.87Y-71.12
X229.87Y-73.66
X229.87Y-76.2
X229.87Y-80.01
X229.87Y-84.455
X229.87Y-92.075
X230.465Y-97.79
X231.14Y-36.362
X231.14Y-38.862
X232.37Y-80.01
T4
X46.99Y-92.71
X46.99Y-97.79
X54.61Y-92.71
X54.61Y-97.79
X56.855Y-115.735
X56.855Y-120.815
X57.15Y-83.82
X57.15Y-88.9
X57.15Y-92.71
X57.15Y-97.79
X57.15Y-101.6
X57.15Y-106.68
X64.475Y-115.735
X64.475Y-120.815
X64.77Y-83.82
X64.77Y-88.9
X64.77Y-92.71
X64.77Y-97.79
X64.77Y-101.6
X64.77Y-106.68
X66.802Y-115.697
X66.802Y-120.777
X67.31Y-92.71
X67.31Y-97.79
X74.422Y-115.697
X74.422Y-120.777
X74.93Y-92.71
X74.93Y-97.79
T5
X80.645Y-142.875
X80.645Y-145.415
X83.185Y-142.875
X83.185Y-145.415
X85.725Y-142.875
X85.725Y-145.415
X88.265Y-142.875
X88.265Y-145.415
X90.805Y-142.875
X90.805Y-145.415
X93.345Y-142.875
X93.345Y-145.415
X95.885Y-142.875
X95.885Y-145.415
X97.282Y-38.354
X98.425Y-142.875
X98.425Y-145.415
X99.822Y-38.354
X100.965Y-142.875
X100.965Y-145.415
X102.362Y-38.354
X103.505Y-142.875
X103.505Y-145.415
X104.902Y-38.354
X106.045Y-142.875
X106.045Y-145.415
X107.442Y-38.354
X108.585Y-142.875
X108.585Y-145.415
X109.982Y-38.354
X111.125Y-142.875
X111.125Y-145.415
X112.522Y-38.354
X113.665Y-142.875
X113.665Y-145.415
X115.062Y-38.354
X116.205Y-142.875
X116.205Y-145.415
X117.602Y-38.354
X118.745Y-142.875
X118.745Y-145.415
X120.142Y-38.354
X121.285Y-142.875
X121.285Y-145.415
X123.825Y-142.875
X123.825Y-145.415
X124.46Y-99.568
X124.46Y-102.108
X125.984Y-38.354
X126.365Y-142.875
X126.365Y-145.415
X127.0Y-99.568
X127.0Y-102.108
X128.524Y-38.354
X128.905Y-142.875
X128.905Y-145.415
X129.54Y-99.568
X129.54Y-102.108
X131.064Y-38.354
X131.445Y-142.875
X131.445Y-145.415
X132.08Y-99.568
X132.08Y-102.108
X133.604Y-38.354
X133.985Y-142.875
X133.985Y-145.415
X134.62Y-99.568
X134.62Y-102.108
X136.144Y-38.354
X136.525Y-142.875
X136.525Y-145.415
X137.16Y-99.568
X137.16Y-102.108
X138.684Y-38.354
X139.065Y-142.875
X139.065Y-145.415
X139.7Y-99.568
X139.7Y-102.108
X141.224Y-38.354
X141.605Y-142.875
X141.605Y-145.415
X142.24Y-99.568
X142.24Y-102.108
X143.764Y-38.354
X144.145Y-142.875
X144.145Y-145.415
X144.78Y-99.568
X144.78Y-102.108
X146.304Y-38.354
X146.685Y-142.875
X146.685Y-145.415
X147.32Y-99.568
X147.32Y-102.108
X148.844Y-38.354
X149.225Y-142.875
X149.225Y-145.415
X149.86Y-99.568
X149.86Y-102.108
X151.765Y-142.875
X151.765Y-145.415
X152.4Y-99.568
X152.4Y-102.108
X154.305Y-142.875
X154.305Y-145.415
X156.845Y-142.875
X156.845Y-145.415
X159.385Y-142.875
X159.385Y-145.415
X161.925Y-142.875
X161.925Y-145.415
X164.465Y-142.875
X164.465Y-145.415
X167.005Y-142.875
X167.005Y-145.415
X169.545Y-142.875
X169.545Y-145.415
X172.085Y-142.875
X172.085Y-145.415
X174.625Y-142.875
X174.625Y-145.415
X177.165Y-142.875
X177.165Y-145.415
X179.705Y-142.875
X179.705Y-145.415
X200.66Y-38.1
X203.2Y-38.1
X205.74Y-38.1
X208.28Y-38.1
X210.82Y-38.1
X213.36Y-38.1
X215.9Y-38.1
X218.44Y-38.1
X220.98Y-38.1
X223.52Y-38.1
X226.06Y-38.1
T6
X49.53Y-46.355
X52.07Y-46.355
X54.61Y-46.355
X57.15Y-46.355
X59.69Y-46.355
X62.23Y-46.355
X64.77Y-46.355
X67.31Y-46.355
X69.85Y-46.355
X72.39Y-46.355
X74.93Y-46.355
X77.47Y-46.355
X80.01Y-46.355
X82.55Y-46.355
X85.09Y-46.355
X87.63Y-46.355
T7
X44.031Y-46.355
X44.031Y-77.356
X119.029Y-77.356
X119.03Y-46.355
T5
G00X48.61Y-129.81
M15
G01X48.61Y-131.81
M16
G05
G00X50.61Y-135.51
M15
G01X52.61Y-135.51
M16
G05
G00X54.61Y-129.81
M15
G01X54.61Y-131.81
M16
G05
T0
M30
