M48
; DRILL file {KiCad (5.1.10-1-10_14)} date Monday, June 14, 2021 at 04:28:53 PM
; FORMAT={-:-/ absolute / metric / decimal}
; #@! TF.CreationDate,2021-06-14T16:28:53-07:00
; #@! TF.GenerationSoftware,Kicad,Pcbnew,(5.1.10-1-10_14)
; #@! TF.FileFunction,Plated,1,2,PTH
FMAT,2
METRIC
T1C0.400
T2C0.700
T3C0.800
T4C0.813
T5C1.000
T6C1.200
T7C2.500
%
G90
G05
T1
X83.759Y-133.447
X86.004Y-130.947
X86.182Y-52.248
X97.155Y-88.57
X99.771Y-84.303
X105.232Y-153.924
X110.563Y-101.543
X110.815Y-100.193
X112.014Y-55.118
X112.065Y-52.781
X112.624Y-106.691
X114.132Y-98.684
X114.31Y-95.226
X114.356Y-87.31
X114.4Y-84.8
X120.874Y-68.814
X125.425Y-73.482
X134.201Y-110.549
X134.559Y-108.001
X135.057Y-97.323
X135.712Y-106.873
X136.267Y-108.024
X137.527Y-106.908
X138.321Y-102.749
X138.557Y-90.424
X138.571Y-99.705
X139.157Y-105.838
X139.404Y-79.07
X143.876Y-109.281
X147.574Y-44.145
X150.439Y-112.156
X151.178Y-52.479
X152.669Y-50.917
X154.569Y-50.917
X154.991Y-74.676
X155.722Y-112.695
X155.821Y-75.243
X156.261Y-80.747
X156.521Y-111.548
X157.175Y-112.145
X158.746Y-111.645
X159.694Y-111.645
X160.523Y-87.711
X160.628Y-106.225
X161.376Y-99.746
X161.544Y-92.431
X161.898Y-111.145
X161.91Y-101.62
X162.458Y-96.952
X163.505Y-88.943
X164.229Y-90.445
X164.279Y-91.294
X164.555Y-92.098
X164.773Y-88.861
X164.931Y-111.645
X165.588Y-83.561
X165.796Y-88.311
X165.84Y-87.462
X166.387Y-94.283
X167.124Y-95.455
X169.062Y-70.637
X172.847Y-83.612
X174.396Y-75.545
X174.396Y-106.482
X174.473Y-77.292
X175.077Y-86.68
X175.397Y-85.689
X175.942Y-86.728
X176.682Y-79.807
X176.886Y-85.745
X177.215Y-88.0
X177.709Y-80.914
X177.719Y-76.947
X177.724Y-74.301
X178.181Y-73.076
X178.87Y-89.656
X179.024Y-147.401
X180.294Y-103.383
X180.975Y-110.388
X181.219Y-103.342
X181.407Y-105.766
X182.098Y-103.322
X184.755Y-157.735
X184.755Y-158.603
X184.76Y-159.522
X186.411Y-77.241
X186.68Y-158.862
X188.646Y-80.772
X188.697Y-110.058
X188.798Y-73.127
X189.262Y-59.512
X192.151Y-59.614
X197.942Y-66.726
X198.907Y-129.311
X199.542Y-91.719
X199.568Y-115.595
X200.41Y-111.477
X201.473Y-47.422
T2
X156.502Y-46.97
X156.502Y-48.87
X177.17Y-142.697
X177.17Y-145.847
X177.17Y-148.997
X177.192Y-152.146
X177.192Y-155.296
X179.07Y-142.697
X179.07Y-145.847
X179.07Y-148.997
X179.092Y-152.146
X179.092Y-155.296
X186.746Y-48.082
X188.646Y-48.082
T3
X84.536Y-113.154
X87.036Y-113.154
X87.086Y-61.745
X87.086Y-64.285
X87.086Y-66.825
X87.086Y-69.365
X87.086Y-71.905
X87.086Y-74.445
X87.086Y-76.985
X87.086Y-79.525
X87.086Y-82.065
X87.086Y-84.605
X87.086Y-87.145
X87.086Y-89.685
X87.086Y-92.225
X87.086Y-94.765
X87.086Y-97.305
X87.086Y-99.845
X87.086Y-102.385
X87.086Y-104.925
X87.086Y-107.465
X87.086Y-110.005
X88.584Y-133.711
X91.084Y-133.711
X102.326Y-61.745
X102.326Y-64.285
X102.326Y-66.825
X102.326Y-69.365
X102.326Y-71.905
X102.326Y-74.445
X102.326Y-76.985
X102.326Y-79.525
X102.326Y-82.065
X102.326Y-84.605
X102.326Y-87.145
X102.326Y-89.685
X102.326Y-92.225
X102.326Y-94.765
X102.326Y-97.305
X102.326Y-99.845
X102.326Y-102.385
X102.326Y-104.925
X102.326Y-107.465
X102.326Y-110.005
X115.956Y-77.16
X115.956Y-79.7
X115.956Y-82.24
X115.956Y-84.78
X115.956Y-87.32
X115.956Y-89.86
X115.956Y-92.4
X115.956Y-94.94
X115.956Y-97.48
X115.956Y-100.02
X115.956Y-102.56
X115.956Y-105.1
X115.956Y-107.64
X115.956Y-110.18
X131.196Y-77.16
X131.196Y-79.7
X131.196Y-82.24
X131.196Y-84.78
X131.196Y-87.32
X131.196Y-89.86
X131.196Y-92.4
X131.196Y-94.94
X131.196Y-97.48
X131.196Y-100.02
X131.196Y-102.56
X131.196Y-105.1
X131.196Y-107.64
X131.196Y-110.18
X134.549Y-74.381
X134.549Y-76.881
X142.867Y-77.173
X142.867Y-79.713
X142.867Y-82.253
X142.867Y-84.793
X142.867Y-87.333
X142.867Y-89.873
X142.867Y-92.413
X142.867Y-94.953
X142.867Y-97.493
X142.867Y-100.033
X142.867Y-102.573
X142.867Y-105.113
X142.867Y-107.653
X142.867Y-110.193
X158.107Y-77.173
X158.107Y-79.713
X158.107Y-82.253
X158.107Y-84.793
X158.107Y-87.333
X158.107Y-89.873
X158.107Y-92.413
X158.107Y-94.953
X158.107Y-97.493
X158.107Y-100.033
X158.107Y-102.573
X158.107Y-105.113
X158.107Y-107.653
X158.107Y-110.193
X161.341Y-77.089
X163.841Y-77.089
X166.929Y-77.129
X166.929Y-79.629
X171.171Y-62.001
X171.171Y-64.541
X171.171Y-67.081
X171.171Y-69.621
X171.171Y-72.161
X171.171Y-74.701
X171.171Y-77.241
X171.171Y-79.781
X171.171Y-82.321
X171.171Y-84.861
X171.171Y-87.401
X171.171Y-89.941
X171.171Y-92.481
X171.171Y-95.021
X171.171Y-97.561
X171.171Y-100.101
X171.171Y-102.641
X171.171Y-105.181
X171.171Y-107.721
X171.171Y-110.261
X186.411Y-62.001
X186.411Y-64.541
X186.411Y-67.081
X186.411Y-69.621
X186.411Y-72.161
X186.411Y-74.701
X186.411Y-77.241
X186.411Y-79.781
X186.411Y-82.321
X186.411Y-84.861
X186.411Y-87.401
X186.411Y-89.941
X186.411Y-92.481
X186.411Y-95.021
X186.411Y-97.561
X186.411Y-100.101
X186.411Y-102.641
X186.411Y-105.181
X186.411Y-107.721
X186.411Y-110.261
X189.537Y-61.887
X192.037Y-61.887
X194.691Y-98.986
X194.691Y-101.526
X194.691Y-104.066
X194.691Y-106.606
X194.691Y-109.146
X194.691Y-111.686
X194.691Y-114.226
X194.767Y-72.095
X194.767Y-74.635
X194.767Y-77.175
X194.767Y-79.715
X194.767Y-82.255
X194.767Y-84.795
X194.767Y-87.335
X199.874Y-95.43
X202.311Y-98.986
X202.311Y-101.526
X202.311Y-104.066
X202.311Y-106.606
X202.311Y-109.146
X202.311Y-111.686
X202.311Y-114.226
X202.362Y-65.674
X202.362Y-68.174
X202.374Y-95.43
X202.387Y-72.095
X202.387Y-74.635
X202.387Y-77.175
X202.387Y-79.715
X202.387Y-82.255
X202.387Y-84.795
X202.387Y-87.335
T4
X177.292Y-133.03
X177.292Y-138.11
X184.912Y-133.03
X184.912Y-138.11
X187.442Y-122.215
X187.442Y-127.295
X187.518Y-133.101
X187.518Y-138.181
X187.589Y-143.921
X187.589Y-149.001
X188.712Y-50.14
X188.712Y-57.76
X193.792Y-50.14
X193.792Y-57.76
X195.062Y-122.215
X195.062Y-127.295
X195.138Y-133.101
X195.138Y-138.181
X195.209Y-143.921
X195.209Y-149.001
X197.968Y-133.177
X197.968Y-138.257
X205.588Y-133.177
X205.588Y-138.257
T5
X84.074Y-44.145
X85.926Y-146.893
X86.614Y-44.145
X88.466Y-139.273
X88.466Y-151.973
X89.154Y-44.145
X91.694Y-44.145
X94.234Y-44.145
X96.774Y-44.145
X99.314Y-44.145
X101.854Y-44.145
X104.394Y-44.145
X106.934Y-44.145
X109.474Y-44.145
X112.014Y-44.145
X114.554Y-44.145
X117.094Y-44.145
X119.634Y-44.145
X122.174Y-44.145
X124.714Y-44.145
X127.254Y-44.145
X129.794Y-44.145
X132.334Y-44.145
X134.874Y-44.145
X137.414Y-44.145
X139.954Y-44.145
X142.494Y-44.145
X145.009Y-47.752
X145.009Y-50.292
X145.034Y-44.145
X147.574Y-44.145
X150.114Y-44.145
X152.654Y-44.145
X155.194Y-44.145
X157.734Y-44.145
X160.274Y-44.145
X162.814Y-44.145
X165.354Y-44.145
X167.894Y-44.145
X170.434Y-44.145
X172.974Y-44.145
X175.514Y-44.145
X178.054Y-44.145
X180.594Y-44.145
X183.134Y-44.145
T6
X102.707Y-122.377
X105.247Y-122.377
X107.787Y-122.377
X110.327Y-122.377
X112.867Y-122.377
X115.407Y-122.377
X117.947Y-122.377
X120.487Y-122.377
X123.027Y-122.377
X125.567Y-122.377
X128.107Y-122.377
X130.647Y-122.377
X133.187Y-122.377
X135.727Y-122.377
X138.267Y-122.377
X140.807Y-122.377
T7
X97.208Y-122.377
X97.208Y-153.378
X172.207Y-153.378
X172.207Y-122.377
T0
M30
